STARTFONT 2.1
FONT -FontForge-Bebas Neue-Book-R-Normal--128-1230-75-75-P-471-ISO10646-1
SIZE 123 75 75
FONTBOUNDINGBOX 131 143 -27 -26
COMMENT "Generated by fontforge, http://fontforge.sourceforge.net"
COMMENT "Copyright 2019 The Bebas Neue Project Authors (https://github.com/dharmatype/Bebas-Neue)"
STARTPROPERTIES 40
FOUNDRY "FontForge"
FAMILY_NAME "Bebas Neue"
WEIGHT_NAME "Book"
SLANT "R"
SETWIDTH_NAME "Normal"
ADD_STYLE_NAME ""
PIXEL_SIZE 128
POINT_SIZE 1230
RESOLUTION_X 75
RESOLUTION_Y 75
SPACING "P"
AVERAGE_WIDTH 471
CHARSET_REGISTRY "ISO10646"
CHARSET_ENCODING "1"
FONTNAME_REGISTRY ""
CHARSET_COLLECTIONS "ISO8859-2 ISO8859-9 ISO8859-4 Symbol ISO10646-1"
FONT_NAME "BebasNeue-Regular"
FACE_NAME "Bebas Neue Regular"
COPYRIGHT "Copyright 2019 The Bebas Neue Project Authors (https://github.com/dharmatype/Bebas-Neue)"
FONT_VERSION "2.000"
FONT_ASCENT 102
FONT_DESCENT 26
UNDERLINE_POSITION -10
UNDERLINE_THICKNESS 11
X_HEIGHT 89
CAP_HEIGHT 89
RAW_ASCENT 800
RAW_DESCENT 200
NORM_SPACE 20
RELATIVE_WEIGHT 40
RELATIVE_SETWIDTH 50
SUPERSCRIPT_X 0
SUPERSCRIPT_Y 44
SUPERSCRIPT_SIZE 76
SUBSCRIPT_X 0
SUBSCRIPT_Y 9
SUBSCRIPT_SIZE 76
FIGURE_WIDTH 51
AVG_LOWERCASE_WIDTH 493
AVG_UPPERCASE_WIDTH 493
ENDPROPERTIES
CHARS 497
STARTCHAR nonmarkingreturn
ENCODING 13
SWIDTH 160 0
DWIDTH 20 0
BBX 1 1 0 0
BITMAP
00
ENDCHAR
STARTCHAR space
ENCODING 32
SWIDTH 160 0
DWIDTH 20 0
BBX 1 1 0 0
BITMAP
00
ENDCHAR
STARTCHAR exclam
ENCODING 33
SWIDTH 210 0
DWIDTH 27 0
BBX 14 90 6 0
BITMAP
FFFC
FFFC
FFFC
FFFC
FFFC
FFFC
FFFC
FFFC
FFFC
FFFC
FFFC
FFFC
FFFC
FFFC
FFFC
FFFC
FFFC
FFFC
FFFC
FFFC
FFFC
FFFC
FFFC
FFFC
FFFC
FFFC
FFFC
FFFC
FFFC
FFFC
FFFC
FFFC
FFFC
FFFC
FFFC
FFFC
FFFC
FFFC
FFFC
7FFC
7FFC
7FFC
7FFC
7FFC
7FFC
7FFC
7FFC
7FFC
7FFC
7FFC
7FFC
7FFC
7FFC
7FF8
7FF8
3FF8
3FF8
3FF8
3FF8
3FF8
3FF8
3FF8
3FF8
3FF8
3FF8
3FF8
0000
0000
0000
0000
0000
0000
0000
0000
0000
0000
7FFC
7FFC
7FFC
7FFC
7FFC
7FFC
7FFC
7FFC
7FFC
7FFC
7FFC
7FFC
7FFC
7FFC
ENDCHAR
STARTCHAR quotedbl
ENCODING 34
SWIDTH 336 0
DWIDTH 43 0
BBX 33 29 5 61
BITMAP
FFFC1FFF80
FFFC1FFF80
FFFC1FFF80
FFFC1FFF80
FFFC1FFF80
FFFC1FFF00
7FF80FFF00
7FF80FFF00
7FF80FFF00
7FF80FFF00
7FF80FFF00
7FF80FFF00
7FF80FFF00
7FF80FFF00
3FF00FFE00
3FF007FE00
3FF007FE00
3FF007FE00
3FF007FE00
3FF007FE00
3FF007FE00
3FF007FE00
3FF007FC00
1FE003FC00
1FE003FC00
1FE003FC00
1FE003FC00
1FE003FC00
1FE003FC00
ENDCHAR
STARTCHAR numbersign
ENCODING 35
SWIDTH 412 0
DWIDTH 53 0
BBX 49 90 2 0
BITMAP
0007FF007FF000
0007FF007FF000
0007FF007FF000
0007FF007FF000
000FFF007FF000
000FFF007FF000
000FFE007FF000
000FFE00FFF000
000FFE00FFE000
000FFE00FFE000
000FFE00FFE000
000FFE00FFE000
000FFE00FFE000
000FFE00FFE000
001FFE00FFE000
001FFE00FFE000
001FFC01FFE000
001FFC01FFE000
001FFC01FFC000
001FFC01FFC000
001FFC01FFC000
0FFFFFFFFFFF80
0FFFFFFFFFFF80
0FFFFFFFFFFF00
0FFFFFFFFFFF00
0FFFFFFFFFFF00
0FFFFFFFFFFF00
0FFFFFFFFFFF00
0FFFFFFFFFFF00
0FFFFFFFFFFF00
1FFFFFFFFFFF00
003FF803FF8000
003FF803FF8000
007FF803FF8000
007FF803FF8000
007FF003FF8000
007FF007FF8000
007FF007FF0000
007FF007FF0000
007FF007FF0000
007FF007FF0000
007FF007FF0000
007FF007FF0000
00FFF007FF0000
00FFF007FF0000
00FFE00FFF0000
00FFE00FFF0000
00FFE00FFE0000
00FFE00FFE0000
00FFE00FFE0000
00FFE00FFE0000
00FFE00FFE0000
01FFE00FFE0000
01FFE00FFE0000
7FFFFFFFFFF800
7FFFFFFFFFF800
7FFFFFFFFFF800
7FFFFFFFFFF800
7FFFFFFFFFF800
FFFFFFFFFFF800
FFFFFFFFFFF800
FFFFFFFFFFF000
FFFFFFFFFFF000
FFFFFFFFFFF000
03FF803FFC0000
03FF803FFC0000
03FF803FF80000
03FF803FF80000
03FF803FF80000
03FF803FF80000
03FF803FF80000
03FF803FF80000
07FF803FF80000
07FF003FF80000
07FF007FF80000
07FF007FF80000
07FF007FF00000
07FF007FF00000
07FF007FF00000
07FF007FF00000
07FF007FF00000
0FFF007FF00000
0FFF007FF00000
0FFE007FF00000
0FFE00FFF00000
0FFE00FFE00000
0FFE00FFE00000
0FFE00FFE00000
0FFE00FFE00000
0FFE00FFE00000
ENDCHAR
STARTCHAR dollar
ENCODING 36
SWIDTH 400 0
DWIDTH 51 0
BBX 42 103 5 -7
BITMAP
0001FFC00000
0001FFC00000
0001FFC00000
0001FFC00000
0001FFC00000
0001FFC00000
0001FFC00000
0001FFC00000
0007FFF80000
003FFFFE0000
00FFFFFF8000
01FFFFFFC000
03FFFFFFF000
07FFFFFFF800
0FFFFFFFF800
1FFFFFFFFC00
1FFFFFFFFE00
3FFFFFFFFE00
3FFFFFFFFF00
7FFFFFFFFF00
7FFFC0FFFF00
7FFF003FFF80
7FFE001FFF80
FFFE001FFF80
FFFC000FFF80
FFFC000FFF80
FFFC000FFF80
FFFC000FFF80
FFFC000FFF80
FFFC000FFF80
FFFC000FFF80
FFFE000FFF80
FFFE00000000
FFFE00000000
FFFF00000000
7FFF00000000
7FFF80000000
7FFF80000000
3FFFC0000000
3FFFE0000000
3FFFF0000000
1FFFF8000000
0FFFFC000000
0FFFFE000000
07FFFF000000
03FFFFC00000
03FFFFE00000
01FFFFF00000
00FFFFF80000
007FFFFC0000
003FFFFE0000
001FFFFF0000
000FFFFF8000
0007FFFFC000
0001FFFFE000
0000FFFFF000
00007FFFF800
00003FFFF800
00001FFFFC00
00000FFFFC00
000003FFFE00
000003FFFE00
000001FFFF00
000000FFFF00
0000007FFF00
0000007FFF80
0000003FFF80
FFF8003FFF80
FFF8001FFF80
FFF8001FFF80
FFF8001FFFC0
FFF8001FFFC0
FFF8001FFFC0
FFF8001FFFC0
FFF8001FFFC0
FFF8001FFF80
FFF8001FFF80
FFF8001FFF80
FFFC001FFF80
FFFC003FFF80
FFFE007FFF80
7FFF81FFFF00
7FFFFFFFFF00
7FFFFFFFFF00
3FFFFFFFFE00
3FFFFFFFFE00
1FFFFFFFFC00
0FFFFFFFF800
0FFFFFFFF800
07FFFFFFF000
03FFFFFFE000
00FFFFFF8000
003FFFFF0000
000FFFF80000
0001FFC00000
0001FFC00000
0001FFC00000
0001FFC00000
0001FFC00000
0001FFC00000
0001FFC00000
0001FFC00000
0001FFC00000
ENDCHAR
STARTCHAR percent
ENCODING 37
SWIDTH 589 0
DWIDTH 75 0
BBX 67 92 4 -1
BITMAP
003FE0000000000000
01FFF8000003FF0000
07FFFE000003FE0000
0FFFFF000003FE0000
1FFFFF800007FC0000
1FFFFFC00007FC0000
3FFFFFC0000FF80000
3FFFFFC0000FF80000
7FF0FFE0000FF80000
7FE03FE0001FF00000
7FC03FE0001FF00000
7FC03FE0003FE00000
7F801FF0003FE00000
FF801FF0003FE00000
FF801FF0007FC00000
FF801FF0007FC00000
FF801FF0007FC00000
FF801FF000FF800000
FF801FF000FF800000
FF801FF001FF000000
FF801FF001FF000000
FF801FF001FF000000
FF801FF003FE000000
FF801FF003FE000000
FF801FF007FC000000
FF801FF007FC000000
FF801FF007FC000000
FF801FF00FF8000000
FF801FF00FF8000000
FF801FF00FF8000000
FF801FF01FF0000000
FF801FF01FF0000000
FF801FF03FE0000000
FF801FF03FE0000000
FF801FF03FE0000000
FF801FF07FC0000000
FF801FF07FC0000000
FF801FF0FF80000000
7F801FF0FF80000000
7FC03FE0FF80000000
7FC03FE1FF00000000
7FE03FE1FF007FC000
7FF0FFE1FF03FFF800
3FFFFFC3FE07FFFC00
3FFFFFC3FE1FFFFE00
1FFFFF87FC1FFFFF00
1FFFFF87FC3FFFFF80
0FFFFF07FC7FFFFF80
07FFFE0FF87FFFFFC0
01FFF80FF87FE0FFC0
007FC01FF0FFC07FC0
0000001FF0FF807FE0
0000001FF0FF803FE0
0000003FE0FF803FE0
0000003FE0FF803FE0
0000003FE0FF803FE0
0000007FC0FF803FE0
0000007FC0FF803FE0
000000FF80FF803FE0
000000FF80FF803FE0
000000FF80FF803FE0
000001FF00FF803FE0
000001FF00FF803FE0
000003FE00FF803FE0
000003FE00FF803FE0
000003FE00FF803FE0
000007FC00FF803FE0
000007FC00FF803FE0
000007FC00FF803FE0
00000FF800FF803FE0
00000FF800FF803FE0
00001FF000FF803FE0
00001FF000FF803FE0
00001FF000FF803FE0
00003FE000FF803FE0
00003FE000FF803FE0
00007FC000FF803FE0
00007FC000FF803FE0
00007FC000FF803FE0
0000FF8000FF803FE0
0000FF8000FF803FE0
0000FF8000FF807FE0
0001FF0000FFC07FC0
0001FF00007FE0FFC0
0003FE00007FFFFFC0
0003FE00007FFFFF80
0003FE00003FFFFF80
0007FC00001FFFFF00
0007FC00001FFFFE00
000FF8000007FFFC00
000FF8000003FFF000
0000000000007FC000
ENDCHAR
STARTCHAR ampersand
ENCODING 38
SWIDTH 417 0
DWIDTH 53 0
BBX 47 91 4 -1
BITMAP
0000FFFFFC00
0007FFFFFC00
003FFFFFFC00
007FFFFFFC00
01FFFFFFFC00
03FFFFFFFC00
07FFFFFFFC00
07FFFFFFFC00
0FFFFFFFFC00
0FFFFFFFFC00
1FFFFFFFFC00
1FFFFFFFFC00
3FFFFFFFFC00
3FFFE0000000
3FFF80000000
3FFF00000000
7FFF00000000
7FFF00000000
7FFE00000000
7FFE00000000
7FFE00000000
7FFE00000000
7FFE00000000
7FFE00000000
7FFE00000000
7FFE00000000
7FFE0007FFE0
7FFE0007FFE0
7FFE0007FFE0
7FFE0007FFE0
3FFE0007FFE0
3FFF0007FFE0
3FFF0007FFE0
3FFF8007FFE0
1FFFC007FFE0
1FFFE007FFE0
0FFFFFFFFFFE
07FFFFFFFFFE
03FFFFFFFFFE
01FFFFFFFFFE
00FFFFFFFFFE
003FFFFFFFFE
003FFFFFFFFE
00FFFFFFFFFE
01FFFFFFFFFE
07FFFFFFFFFE
07FFFFFFFFFE
0FFFFFFFFFFE
1FFFFFFFFFFE
1FFFF007FFE0
3FFFC007FFE0
3FFF8007FFE0
7FFF0007FFE0
7FFF0007FFE0
7FFE0007FFE0
7FFE0007FFE0
7FFE0007FFE0
FFFE0007FFE0
FFFE0007FFE0
FFFC0007FFE0
FFFC0007FFE0
FFFC0007FFE0
FFFC0007FFE0
FFFC0007FFE0
FFFC0007FFE0
FFFC0007FFE0
FFFC0007FFE0
FFFC0007FFE0
FFFC0007FFE0
FFFC0007FFE0
FFFC0007FFE0
FFFE0007FFE0
FFFE000FFFE0
FFFE000FFFE0
7FFE000FFFE0
7FFF001FFFE0
7FFF003FFFE0
7FFFC07FFFE0
7FFFFFFFFFE0
7FFFFFFFFFE0
3FFFFFFFFFE0
3FFFFFFFFFE0
3FFFFFFFFFE0
1FFFFFF7FFE0
1FFFFFF7FFE0
0FFFFFE7FFE0
07FFFFC7FFE0
03FFFF83FFF0
01FFFF03FFF0
007FFE03FFF0
001FF0000000
ENDCHAR
STARTCHAR quotesingle
ENCODING 39
SWIDTH 188 0
DWIDTH 24 0
BBX 14 29 5 61
BITMAP
FFFC
FFFC
FFFC
FFFC
FFFC
FFFC
7FF8
7FF8
7FF8
7FF8
7FF8
7FF8
7FF8
7FF8
3FF0
3FF0
3FF0
3FF0
3FF0
3FF0
3FF0
3FF0
3FF0
1FE0
1FE0
1FE0
1FE0
1FE0
1FE0
ENDCHAR
STARTCHAR parenleft
ENCODING 40
SWIDTH 276 0
DWIDTH 35 0
BBX 24 103 7 -6
BITMAP
0007FF
007FFF
01FFFF
07FFFF
0FFFFF
1FFFFF
1FFFFF
3FFFFF
3FFFFF
7FFFFF
7FFFFF
7FFFFF
FFFF80
FFFF00
FFFE00
FFFC00
FFFC00
FFFC00
FFFC00
FFFC00
FFFC00
FFFC00
FFFC00
FFFC00
FFFC00
FFFC00
FFFC00
FFFC00
FFFC00
FFFC00
FFFC00
FFFC00
FFFC00
FFFC00
FFFC00
FFFC00
FFFC00
FFFC00
FFFC00
FFFC00
FFFC00
FFFC00
FFFC00
FFFC00
FFFC00
FFFC00
FFFC00
FFFC00
FFFC00
FFFC00
FFFC00
FFFC00
FFFC00
FFFC00
FFFC00
FFFC00
FFFC00
FFFC00
FFFC00
FFFC00
FFFC00
FFFC00
FFFC00
FFFC00
FFFC00
FFFC00
FFFC00
FFFC00
FFFC00
FFFC00
FFFC00
FFFC00
FFFC00
FFFC00
FFFC00
FFFC00
FFFC00
FFFC00
FFFC00
FFFC00
FFFC00
FFFC00
FFFC00
FFFC00
FFFC00
FFFC00
FFFC00
FFFC00
FFFE00
FFFF00
FFFF80
7FFFFF
7FFFFF
7FFFFF
3FFFFF
3FFFFF
1FFFFF
1FFFFF
0FFFFF
07FFFF
01FFFF
007FFF
0007FF
ENDCHAR
STARTCHAR parenright
ENCODING 41
SWIDTH 276 0
DWIDTH 35 0
BBX 25 103 4 -6
BITMAP
FFE00000
FFFE0000
FFFF8000
FFFFE000
FFFFF000
FFFFF800
FFFFFC00
FFFFFC00
FFFFFE00
FFFFFE00
FFFFFE00
FFFFFF00
01FFFF00
007FFF00
007FFF00
003FFF00
003FFF00
003FFF00
003FFF80
003FFF80
003FFF80
003FFF80
003FFF80
003FFF80
003FFF80
003FFF80
003FFF80
003FFF80
003FFF80
003FFF80
003FFF80
003FFF80
003FFF80
003FFF80
003FFF80
003FFF80
003FFF80
003FFF80
003FFF80
003FFF80
003FFF80
003FFF80
003FFF80
003FFF80
003FFF80
003FFF80
003FFF80
003FFF80
003FFF80
003FFF80
003FFF80
003FFF80
003FFF80
003FFF80
003FFF80
003FFF80
003FFF80
003FFF80
003FFF80
003FFF80
003FFF80
003FFF80
003FFF80
003FFF80
003FFF80
003FFF80
003FFF80
003FFF80
003FFF80
003FFF80
003FFF80
003FFF80
003FFF80
003FFF80
003FFF80
003FFF80
003FFF80
003FFF80
003FFF80
003FFF80
003FFF80
003FFF80
003FFF80
003FFF80
003FFF80
003FFF00
003FFF00
003FFF00
007FFF00
007FFF00
01FFFF00
FFFFFF00
FFFFFE00
FFFFFE00
FFFFFE00
FFFFFC00
FFFFFC00
FFFFF800
FFFFF000
FFFFE000
FFFF8000
FFFE0000
FFE00000
ENDCHAR
STARTCHAR asterisk
ENCODING 42
SWIDTH 422 0
DWIDTH 54 0
BBX 50 48 2 42
BITMAP
00001FFE000000
00001FFE000000
00000FFC000000
00000FFC000000
00000FFC000000
00000FFC000000
00000FFC000000
00000FFC000000
00000FFC000000
00000FFC000000
000007F8000000
000007F8000000
1C0007F8000E00
1F0007F8003E00
1FC007F800FE00
3FF007F803FF00
3FFC07F80FFF00
3FFF07F83FFF00
7FFFC3F0FFFF80
7FFFF3F3FFFF80
7FFFFFFFFFFF80
FFFFFFFFFFFFC0
FFFFFFFFFFFFC0
07FFFFFFFFF800
007FFFFFFF8000
0003FFFFF00000
00001FFE000000
00001FFE000000
00003FFF000000
00007FFF800000
0000FFFFC00000
0001FF3FE00000
0003FF3FF00000
0007FE1FF80000
000FFE1FFC0000
001FFC0FFE0000
003FFC0FFF0000
007FF807FF8000
00FFF003FFC000
01FFF003FFE000
03FFE001FFF000
01FFE001FFE000
00FFC000FFC000
007FC000FF8000
001F80007E0000
000F00003C0000
00070000380000
00010000200000
ENDCHAR
STARTCHAR plus
ENCODING 43
SWIDTH 400 0
DWIDTH 51 0
BBX 45 45 3 22
BITMAP
00003FF00000
00003FF00000
00003FF00000
00003FF00000
00003FF00000
00003FF00000
00003FF00000
00003FF00000
00003FF00000
00003FF00000
00003FF00000
00003FF00000
00003FF00000
00003FF00000
00003FF00000
00003FF00000
00003FF00000
FFFFFFFFFFF8
FFFFFFFFFFF8
FFFFFFFFFFF8
FFFFFFFFFFF8
FFFFFFFFFFF8
FFFFFFFFFFF8
FFFFFFFFFFF8
FFFFFFFFFFF8
FFFFFFFFFFF8
FFFFFFFFFFF8
00003FF00000
00003FF00000
00003FF00000
00003FF00000
00003FF00000
00003FF00000
00003FF00000
00003FF00000
00003FF00000
00003FF00000
00003FF00000
00003FF00000
00003FF00000
00003FF00000
00003FF00000
00003FF00000
00003FF00000
00003FF00000
ENDCHAR
STARTCHAR comma
ENCODING 44
SWIDTH 188 0
DWIDTH 24 0
BBX 14 29 5 -15
BITMAP
FFFC
FFFC
FFFC
FFFC
FFFC
FFFC
FFFC
FFFC
FFFC
FFFC
FFFC
FFFC
FFFC
FFF8
07F8
0FF8
0FF0
0FF0
0FE0
1FE0
1FE0
1FC0
3FC0
3F80
3F80
7F00
7F00
7F00
FE00
ENDCHAR
STARTCHAR hyphen
ENCODING 45
SWIDTH 270 0
DWIDTH 35 0
BBX 28 13 3 38
BITMAP
FFFFFFF0
FFFFFFF0
FFFFFFF0
FFFFFFF0
FFFFFFF0
FFFFFFF0
FFFFFFF0
FFFFFFF0
FFFFFFF0
FFFFFFF0
FFFFFFF0
FFFFFFF0
FFFFFFF0
ENDCHAR
STARTCHAR period
ENCODING 46
SWIDTH 188 0
DWIDTH 24 0
BBX 14 14 5 0
BITMAP
FFFC
FFFC
FFFC
FFFC
FFFC
FFFC
FFFC
FFFC
FFFC
FFFC
FFFC
FFFC
FFFC
FFFC
ENDCHAR
STARTCHAR slash
ENCODING 47
SWIDTH 389 0
DWIDTH 50 0
BBX 48 90 1 0
BITMAP
000000001FFF
000000001FFE
000000003FFE
000000003FFC
000000003FFC
000000007FF8
000000007FF8
000000007FF8
00000000FFF0
00000000FFF0
00000001FFF0
00000001FFE0
00000001FFE0
00000003FFC0
00000003FFC0
00000007FFC0
00000007FF80
00000007FF80
0000000FFF00
0000000FFF00
0000001FFF00
0000001FFE00
0000001FFE00
0000003FFC00
0000003FFC00
0000007FFC00
0000007FF800
0000007FF800
000000FFF000
000000FFF000
000000FFF000
000001FFE000
000001FFE000
000003FFC000
000003FFC000
000003FFC000
000007FF8000
000007FF8000
00000FFF8000
00000FFF0000
00000FFF0000
00001FFE0000
00001FFE0000
00003FFE0000
00003FFC0000
00003FFC0000
00007FF80000
00007FF80000
0000FFF80000
0000FFF00000
0000FFF00000
0001FFE00000
0001FFE00000
0003FFE00000
0003FFC00000
0003FFC00000
0007FF800000
0007FF800000
0007FF800000
000FFF000000
000FFF000000
001FFF000000
001FFE000000
001FFE000000
003FFC000000
003FFC000000
007FFC000000
007FF8000000
007FF8000000
00FFF0000000
00FFF0000000
01FFF0000000
01FFE0000000
01FFE0000000
03FFC0000000
03FFC0000000
07FFC0000000
07FF80000000
07FF80000000
0FFF00000000
0FFF00000000
1FFF00000000
1FFE00000000
1FFE00000000
3FFC00000000
3FFC00000000
3FFC00000000
7FF800000000
7FF800000000
FFF800000000
ENDCHAR
STARTCHAR zero
ENCODING 48
SWIDTH 400 0
DWIDTH 51 0
BBX 43 92 4 -1
BITMAP
0000FFE00000
000FFFFE0000
003FFFFF8000
00FFFFFFE000
01FFFFFFF000
03FFFFFFF800
07FFFFFFFC00
0FFFFFFFFE00
0FFFFFFFFE00
1FFFFFFFFF00
1FFFFFFFFF80
3FFFFFFFFF80
3FFFFFFFFF80
7FFFC07FFFC0
7FFF801FFFC0
7FFF001FFFC0
7FFE000FFFC0
7FFE000FFFE0
FFFE0007FFE0
FFFC0007FFE0
FFFC0007FFE0
FFFC0007FFE0
FFFC0007FFE0
FFFC0007FFE0
FFFC0007FFE0
FFFC0007FFE0
FFFC0007FFE0
FFFC0007FFE0
FFFC0007FFE0
FFFC0007FFE0
FFFC0007FFE0
FFFC0007FFE0
FFFC0007FFE0
FFFC0007FFE0
FFFC0007FFE0
FFFC0007FFE0
FFFC0007FFE0
FFFC0007FFE0
FFFC0007FFE0
FFFC0007FFE0
FFFC0007FFE0
FFFC0007FFE0
FFFC0007FFE0
FFFC0007FFE0
FFFC0007FFE0
FFFC0007FFE0
FFFC0007FFE0
FFFC0007FFE0
FFFC0007FFE0
FFFC0007FFE0
FFFC0007FFE0
FFFC0007FFE0
FFFC0007FFE0
FFFC0007FFE0
FFFC0007FFE0
FFFC0007FFE0
FFFC0007FFE0
FFFC0007FFE0
FFFC0007FFE0
FFFC0007FFE0
FFFC0007FFE0
FFFC0007FFE0
FFFC0007FFE0
FFFC0007FFE0
FFFC0007FFE0
FFFC0007FFE0
FFFC0007FFE0
FFFC0007FFE0
FFFC0007FFE0
FFFC0007FFE0
FFFC0007FFE0
FFFC0007FFE0
FFFC0007FFE0
FFFE0007FFE0
7FFE000FFFE0
7FFE000FFFC0
7FFF001FFFC0
7FFF801FFFC0
7FFFC07FFFC0
3FFFFFFFFF80
3FFFFFFFFF80
1FFFFFFFFF80
1FFFFFFFFF00
0FFFFFFFFE00
0FFFFFFFFE00
07FFFFFFFC00
03FFFFFFF800
01FFFFFFF000
00FFFFFFE000
003FFFFF8000
000FFFFE0000
0000FFE00000
ENDCHAR
STARTCHAR one
ENCODING 49
SWIDTH 400 0
DWIDTH 51 0
BBX 29 90 10 0
BITMAP
00001FF8
00001FF8
00001FF8
00003FF8
00003FF8
00007FF8
0000FFF8
0000FFF8
0003FFF8
0007FFF8
001FFFF8
01FFFFF8
FFFFFFF8
FFFFFFF8
FFFFFFF8
FFFFFFF8
FFFFFFF8
FFFFFFF8
FFFFFFF8
FFFFFFF8
FFFFFFF8
FFFFFFF8
0001FFF8
0001FFF8
0001FFF8
0001FFF8
0001FFF8
0001FFF8
0001FFF8
0001FFF8
0001FFF8
0001FFF8
0001FFF8
0001FFF8
0001FFF8
0001FFF8
0001FFF8
0001FFF8
0001FFF8
0001FFF8
0001FFF8
0001FFF8
0001FFF8
0001FFF8
0001FFF8
0001FFF8
0001FFF8
0001FFF8
0001FFF8
0001FFF8
0001FFF8
0001FFF8
0001FFF8
0001FFF8
0001FFF8
0001FFF8
0001FFF8
0001FFF8
0001FFF8
0001FFF8
0001FFF8
0001FFF8
0001FFF8
0001FFF8
0001FFF8
0001FFF8
0001FFF8
0001FFF8
0001FFF8
0001FFF8
0001FFF8
0001FFF8
0001FFF8
0001FFF8
0001FFF8
0001FFF8
0001FFF8
0001FFF8
0001FFF8
0001FFF8
0001FFF8
0001FFF8
0001FFF8
0001FFF8
0001FFF8
0001FFF8
0001FFF8
0001FFF8
0001FFF8
0001FFF8
ENDCHAR
STARTCHAR two
ENCODING 50
SWIDTH 400 0
DWIDTH 51 0
BBX 42 91 5 0
BITMAP
0000FFC00000
000FFFFC0000
003FFFFF0000
00FFFFFFC000
01FFFFFFE000
03FFFFFFF000
07FFFFFFF800
0FFFFFFFFC00
1FFFFFFFFE00
1FFFFFFFFE00
3FFFFFFFFF00
3FFFFFFFFF00
7FFFFFFFFF00
7FFF80FFFF80
7FFF007FFF80
7FFE003FFF80
FFFC001FFF80
FFFC001FFFC0
FFFC001FFFC0
FFF8000FFFC0
FFF8000FFFC0
FFF8000FFFC0
FFF8000FFFC0
FFF8000FFFC0
FFF8000FFFC0
FFF8000FFFC0
FFF8000FFFC0
FFF8001FFFC0
FFF8001FFF80
FFF8001FFF80
FFF8001FFF80
0000003FFF80
0000003FFF00
0000003FFF00
0000007FFF00
0000007FFE00
000000FFFE00
000000FFFE00
000001FFFC00
000003FFFC00
000003FFF800
000007FFF000
00000FFFF000
00001FFFE000
00001FFFE000
00003FFFC000
00007FFF8000
0000FFFF0000
0001FFFF0000
0003FFFE0000
0007FFFC0000
000FFFF80000
001FFFF00000
001FFFE00000
003FFFC00000
007FFFC00000
00FFFF800000
01FFFF000000
01FFFE000000
03FFFC000000
07FFF8000000
07FFF0000000
0FFFE0000000
0FFFE0000000
1FFFC0000000
1FFF80000000
3FFF80000000
3FFF00000000
3FFF00000000
7FFE00000000
7FFE00000000
7FFE00000000
7FFC00000000
7FFC00000000
FFFC00000000
FFFC00000000
FFFC00000000
FFFC00000000
FFFFFFFFFF80
FFFFFFFFFF80
FFFFFFFFFF80
FFFFFFFFFF80
FFFFFFFFFF80
FFFFFFFFFF80
FFFFFFFFFF80
FFFFFFFFFF80
FFFFFFFFFF80
FFFFFFFFFF80
FFFFFFFFFF80
FFFFFFFFFF80
FFFFFFFFFF80
ENDCHAR
STARTCHAR three
ENCODING 51
SWIDTH 400 0
DWIDTH 51 0
BBX 42 92 4 -1
BITMAP
0000FFE00000
000FFFFC0000
003FFFFF8000
00FFFFFFC000
01FFFFFFE000
03FFFFFFF000
07FFFFFFF800
0FFFFFFFFC00
0FFFFFFFFE00
1FFFFFFFFE00
1FFFFFFFFF00
3FFFFFFFFF00
3FFFFFFFFF80
3FFF80FFFF80
7FFF007FFF80
7FFE003FFF80
7FFE001FFF80
7FFC001FFFC0
7FFC001FFFC0
7FFC000FFFC0
7FFC000FFFC0
7FFC000FFFC0
7FFC000FFFC0
7FFC000FFFC0
7FFC000FFFC0
7FFC000FFFC0
7FFC000FFFC0
0000000FFFC0
0000000FFFC0
0000000FFFC0
0000000FFF80
0000001FFF80
0000001FFF80
0000001FFF80
0000003FFF00
0000007FFF00
000001FFFE00
0003FFFFFE00
0003FFFFFC00
0003FFFFF800
0003FFFFF000
0003FFFFE000
0003FFFF8000
0003FFFF8000
0003FFFFE000
0003FFFFF000
0003FFFFF800
0003FFFFFC00
0003FFFFFE00
0003FFFFFF00
000001FFFF00
0000007FFF80
0000003FFF80
0000001FFF80
0000001FFF80
0000001FFFC0
0000000FFFC0
0000000FFFC0
0000000FFFC0
0000000FFFC0
0000000FFFC0
0000000FFFC0
FFFC000FFFC0
FFFC000FFFC0
FFFC000FFFC0
FFFC000FFFC0
FFFC000FFFC0
FFFC000FFFC0
FFFC000FFFC0
FFFC000FFFC0
FFFC000FFFC0
FFFC000FFFC0
FFFC000FFFC0
FFFC000FFFC0
7FFC001FFFC0
7FFC001FFFC0
7FFE001FFFC0
7FFF003FFF80
7FFF80FFFF80
3FFFFFFFFF80
3FFFFFFFFF00
3FFFFFFFFF00
1FFFFFFFFF00
1FFFFFFFFE00
0FFFFFFFFC00
07FFFFFFFC00
03FFFFFFF800
01FFFFFFF000
00FFFFFFC000
003FFFFF8000
000FFFFC0000
0000FFE00000
ENDCHAR
STARTCHAR four
ENCODING 52
SWIDTH 400 0
DWIDTH 51 0
BBX 48 90 2 0
BITMAP
0000007FFF80
0000007FFF80
000000FFFF80
000000FFFF80
000000FFFF80
000001FFFF80
000001FFFF80
000003FFFF80
000003FFFF80
000003FFFF80
000007FFFF80
000007FFFF80
00000FFFFF80
00000FFFFF80
00001FFFFF80
00001FFFFF80
00001FFFFF80
00003FFFFF80
00003FFFFF80
00007FFFFF80
00007FFFFF80
0000FFFFFF80
0000FFFFFF80
0000FFFFFF80
0001FFFFFF80
0001FFFFFF80
0003FFDFFF80
0003FFDFFF80
0003FFDFFF80
0007FF9FFF80
0007FF9FFF80
000FFF1FFF80
000FFF1FFF80
001FFF1FFF80
001FFE1FFF80
001FFE1FFF80
003FFC1FFF80
003FFC1FFF80
007FFC1FFF80
007FF81FFF80
007FF81FFF80
00FFF01FFF80
00FFF01FFF80
01FFF01FFF80
01FFE01FFF80
03FFE01FFF80
03FFC01FFF80
03FFC01FFF80
07FFC01FFF80
07FF801FFF80
0FFF801FFF80
0FFF001FFF80
1FFF001FFF80
1FFF001FFF80
1FFE001FFF80
3FFE001FFF80
3FFE001FFF80
7FFC001FFF80
7FFC001FFF80
7FF8001FFF80
FFF8001FFF80
FFFFFFFFFFFF
FFFFFFFFFFFF
FFFFFFFFFFFF
FFFFFFFFFFFF
FFFFFFFFFFFF
FFFFFFFFFFFF
FFFFFFFFFFFF
FFFFFFFFFFFF
FFFFFFFFFFFF
FFFFFFFFFFFF
FFFFFFFFFFFF
FFFFFFFFFFFF
FFFFFFFFFFFF
0000001FFF80
0000001FFF80
0000001FFF80
0000001FFF80
0000001FFF80
0000001FFF80
0000001FFF80
0000001FFF80
0000001FFF80
0000001FFF80
0000001FFF80
0000001FFF80
0000001FFF80
0000001FFF80
0000001FFF80
0000001FFF80
ENDCHAR
STARTCHAR five
ENCODING 53
SWIDTH 400 0
DWIDTH 51 0
BBX 42 91 5 -1
BITMAP
3FFFFFFFFF00
3FFFFFFFFF00
3FFFFFFFFF00
3FFFFFFFFF00
3FFFFFFFFF00
3FFFFFFFFF00
3FFFFFFFFF00
3FFFFFFFFF00
3FFFFFFFFF00
3FFFFFFFFF00
3FFFFFFFFF00
3FFFFFFFFF00
3FFFFFFFFF00
3FFE00000000
3FFE00000000
3FFE00000000
3FFE00000000
3FFE00000000
7FFE00000000
7FFE00000000
7FFE00000000
7FFE00000000
7FFC00000000
7FFC00000000
7FFC00000000
7FFC00000000
7FFC00000000
7FFC00000000
7FFC03FE0000
7FFC1FFF8000
7FFC3FFFE000
7FFC7FFFF000
7FFCFFFFF800
7FFDFFFFFC00
7FFFFFFFFE00
7FFFFFFFFE00
7FFFFFFFFF00
FFFFFFFFFF00
FFFFFFFFFF80
FFFFFFFFFF80
FFFFFFFFFF80
FFFF80FFFF80
FFFF007FFF80
FFFE003FFFC0
FFFC001FFFC0
FFFC001FFFC0
FFF8001FFFC0
FFF8000FFFC0
FFF8000FFFC0
FFF8000FFFC0
0000000FFFC0
0000000FFFC0
0000000FFFC0
0000000FFFC0
0000000FFFC0
0000000FFFC0
0000000FFFC0
0000000FFFC0
0000000FFFC0
0000000FFFC0
0000000FFFC0
0000000FFFC0
FFF8000FFFC0
FFF8000FFFC0
FFF8000FFFC0
FFF8000FFFC0
FFF8000FFFC0
FFF8000FFFC0
FFF8000FFFC0
FFF8000FFFC0
FFF8000FFFC0
FFF8000FFFC0
FFF8001FFFC0
FFFC001FFFC0
FFFC001FFF80
7FFE003FFF80
7FFE007FFF80
7FFF80FFFF80
7FFFFFFFFF00
3FFFFFFFFF00
3FFFFFFFFF00
1FFFFFFFFE00
1FFFFFFFFC00
0FFFFFFFFC00
07FFFFFFF800
07FFFFFFF000
01FFFFFFE000
00FFFFFFC000
007FFFFF0000
000FFFFC0000
0001FFC00000
ENDCHAR
STARTCHAR six
ENCODING 54
SWIDTH 400 0
DWIDTH 51 0
BBX 42 92 5 -1
BITMAP
0001FFE00000
000FFFFC0000
007FFFFF0000
00FFFFFFC000
03FFFFFFE000
07FFFFFFF000
0FFFFFFFF800
0FFFFFFFFC00
1FFFFFFFFE00
3FFFFFFFFE00
3FFFFFFFFF00
7FFFFFFFFF00
7FFFFFFFFF80
7FFFC07FFF80
7FFF003FFF80
FFFE001FFF80
FFFE000FFFC0
FFFC000FFFC0
FFFC0007FFC0
FFFC0007FFC0
FFFC0007FFC0
FFFC0007FFC0
FFFC0007FFC0
FFFC0007FFC0
FFFC00000000
FFFC00000000
FFFC00000000
FFFC00000000
FFFC00000000
FFFC00000000
FFFC00000000
FFFC00000000
FFFC00000000
FFFC01FE0000
FFFC0FFFC000
FFFC3FFFF000
FFFC7FFFF800
FFFCFFFFFC00
FFFDFFFFFE00
FFFDFFFFFE00
FFFFFFFFFF00
FFFFFFFFFF00
FFFFFFFFFF80
FFFFFFFFFF80
FFFFFFFFFF80
FFFFFFFFFFC0
FFFF80FFFFC0
FFFF003FFFC0
FFFE001FFFC0
FFFE001FFFC0
FFFC000FFFC0
FFFC000FFFC0
FFFC000FFFC0
FFFC000FFFC0
FFFC000FFFC0
FFFC000FFFC0
FFFC000FFFC0
FFFC000FFFC0
FFFC000FFFC0
FFFC000FFFC0
FFFC000FFFC0
FFFC000FFFC0
FFFC000FFFC0
FFFC000FFFC0
FFFC000FFFC0
FFFC000FFFC0
FFFC000FFFC0
FFFC000FFFC0
FFFC000FFFC0
FFFC000FFFC0
FFFC000FFFC0
FFFC000FFFC0
FFFC000FFFC0
FFFC000FFFC0
FFFC000FFFC0
FFFE001FFFC0
FFFE001FFFC0
7FFF003FFF80
7FFF80FFFF80
7FFFFFFFFF80
3FFFFFFFFF00
3FFFFFFFFF00
3FFFFFFFFE00
1FFFFFFFFE00
0FFFFFFFFC00
07FFFFFFF800
07FFFFFFF800
01FFFFFFE000
00FFFFFFC000
007FFFFF0000
000FFFFC0000
0001FFC00000
ENDCHAR
STARTCHAR seven
ENCODING 55
SWIDTH 400 0
DWIDTH 51 0
BBX 43 90 4 0
BITMAP
FFFFFFFFFFE0
FFFFFFFFFFE0
FFFFFFFFFFE0
FFFFFFFFFFE0
FFFFFFFFFFE0
FFFFFFFFFFE0
FFFFFFFFFFE0
FFFFFFFFFFE0
FFFFFFFFFFE0
FFFFFFFFFFE0
FFFFFFFFFFE0
FFFFFFFFFFE0
FFFFFFFFFFE0
00000007FFC0
0000000FFFC0
0000000FFFC0
0000000FFF80
0000001FFF80
0000001FFF80
0000001FFF80
0000001FFF00
0000003FFF00
0000003FFF00
0000003FFE00
0000007FFE00
0000007FFE00
0000007FFE00
000000FFFC00
000000FFFC00
000000FFFC00
000000FFF800
000001FFF800
000001FFF800
000001FFF800
000003FFF000
000003FFF000
000003FFF000
000003FFE000
000007FFE000
000007FFE000
000007FFE000
00000FFFC000
00000FFFC000
00000FFFC000
00001FFF8000
00001FFF8000
00001FFF8000
00001FFF8000
00003FFF0000
00003FFF0000
00003FFF0000
00007FFE0000
00007FFE0000
00007FFE0000
00007FFE0000
0000FFFC0000
0000FFFC0000
0000FFFC0000
0001FFFC0000
0001FFF80000
0001FFF80000
0001FFF80000
0003FFF00000
0003FFF00000
0003FFF00000
0007FFF00000
0007FFE00000
0007FFE00000
000FFFE00000
000FFFC00000
000FFFC00000
000FFFC00000
001FFFC00000
001FFF800000
001FFF800000
003FFF800000
003FFF000000
003FFF000000
003FFF000000
007FFF000000
007FFE000000
007FFE000000
00FFFE000000
00FFFC000000
00FFFC000000
00FFFC000000
01FFFC000000
01FFF8000000
01FFF8000000
03FFF8000000
ENDCHAR
STARTCHAR eight
ENCODING 56
SWIDTH 400 0
DWIDTH 51 0
BBX 44 92 4 -1
BITMAP
0000FFE00000
000FFFFE0000
003FFFFF8000
00FFFFFFE000
01FFFFFFF000
03FFFFFFF800
07FFFFFFFC00
0FFFFFFFFE00
1FFFFFFFFF00
1FFFFFFFFF00
3FFFFFFFFF80
3FFFFFFFFF80
7FFFFFFFFFC0
7FFFC07FFFC0
7FFF001FFFC0
7FFF000FFFC0
FFFE000FFFE0
FFFE000FFFE0
FFFC0007FFE0
FFFC0007FFE0
FFFC0007FFE0
FFFC0007FFE0
FFFC0007FFE0
FFFC0007FFE0
FFFC0007FFE0
FFFC0007FFE0
FFFC0007FFE0
FFFC0007FFE0
FFFC0007FFE0
FFFC0007FFE0
FFFC0007FFE0
7FFC0007FFE0
7FFE000FFFC0
7FFE000FFFC0
7FFF000FFFC0
3FFF801FFF80
3FFFC07FFF80
1FFFFFFFFF00
1FFFFFFFFF00
0FFFFFFFFE00
07FFFFFFFC00
03FFFFFFF800
00FFFFFFE000
00FFFFFFE000
01FFFFFFF000
03FFFFFFFC00
0FFFFFFFFE00
0FFFFFFFFF00
1FFFFFFFFF00
3FFFFFFFFF80
3FFFE07FFF80
7FFF803FFFC0
7FFF001FFFC0
7FFE000FFFE0
FFFE0007FFE0
FFFC0007FFE0
FFFC0007FFE0
FFFC0007FFE0
FFFC0007FFE0
FFFC0003FFF0
FFFC0003FFF0
FFFC0003FFF0
FFFC0003FFF0
FFFC0003FFF0
FFFC0003FFF0
FFFC0003FFF0
FFFC0003FFF0
FFFC0003FFF0
FFFC0003FFF0
FFFC0003FFF0
FFFC0007FFF0
FFFC0007FFF0
FFFC0007FFF0
FFFC0007FFE0
FFFC0007FFE0
FFFE000FFFE0
FFFF000FFFE0
FFFF001FFFE0
7FFFC07FFFC0
7FFFFFFFFFC0
7FFFFFFFFFC0
3FFFFFFFFF80
3FFFFFFFFF80
1FFFFFFFFF00
0FFFFFFFFE00
07FFFFFFFE00
07FFFFFFFC00
01FFFFFFF800
00FFFFFFE000
003FFFFF8000
000FFFFE0000
0000FFE00000
ENDCHAR
STARTCHAR nine
ENCODING 57
SWIDTH 400 0
DWIDTH 51 0
BBX 43 92 4 -1
BITMAP
0000FFE00000
000FFFFC0000
003FFFFF8000
00FFFFFFC000
01FFFFFFF000
03FFFFFFF800
07FFFFFFFC00
0FFFFFFFFC00
1FFFFFFFFE00
1FFFFFFFFF00
3FFFFFFFFF00
3FFFFFFFFF80
7FFFFFFFFF80
7FFFC07FFF80
7FFF003FFFC0
7FFE001FFFC0
FFFE000FFFC0
FFFC000FFFC0
FFFC000FFFC0
FFFC000FFFC0
FFFC000FFFE0
FFFC0007FFE0
FFFC0007FFE0
FFFC0007FFE0
FFFC0007FFE0
FFFC0007FFE0
FFFC0007FFE0
FFFC0007FFE0
FFFC0007FFE0
FFFC0007FFE0
FFFC0007FFE0
FFFC0007FFE0
FFFC0007FFE0
FFFC0007FFE0
FFFC0007FFE0
FFFC0007FFE0
FFFC0007FFE0
FFFC000FFFE0
FFFC000FFFE0
FFFC000FFFE0
FFFC000FFFE0
FFFE000FFFE0
FFFE001FFFE0
FFFF001FFFE0
FFFF003FFFE0
FFFFC0FFFFE0
7FFFFFFFFFE0
7FFFFFFFFFE0
7FFFFFFFFFE0
3FFFFFFFFFE0
3FFFFFFFFFE0
3FFFFFF7FFE0
1FFFFFE7FFE0
0FFFFFE7FFE0
07FFFFC7FFE0
03FFFF87FFE0
01FFFF07FFE0
007FFC07FFE0
000FE007FFE0
00000007FFE0
00000007FFE0
00000007FFE0
00000007FFE0
00000007FFE0
00000007FFE0
00000007FFE0
00000007FFE0
00000007FFE0
FFF8000FFFE0
FFF8000FFFE0
FFF8000FFFE0
FFF8000FFFE0
FFFC000FFFC0
FFFC000FFFC0
FFFC000FFFC0
7FFC001FFFC0
7FFE001FFFC0
7FFF003FFFC0
7FFF80FFFF80
3FFFFFFFFF80
3FFFFFFFFF80
3FFFFFFFFF00
1FFFFFFFFF00
1FFFFFFFFE00
0FFFFFFFFE00
07FFFFFFFC00
03FFFFFFF800
01FFFFFFF000
00FFFFFFE000
003FFFFF8000
000FFFFE0000
0000FFE00000
ENDCHAR
STARTCHAR colon
ENCODING 58
SWIDTH 188 0
DWIDTH 24 0
BBX 14 63 5 0
BITMAP
FFFC
FFFC
FFFC
FFFC
FFFC
FFFC
FFFC
FFFC
FFFC
FFFC
FFFC
FFFC
FFFC
FFFC
0000
0000
0000
0000
0000
0000
0000
0000
0000
0000
0000
0000
0000
0000
0000
0000
0000
0000
0000
0000
0000
0000
0000
0000
0000
0000
0000
0000
0000
0000
0000
0000
0000
0000
0000
FFFC
FFFC
FFFC
FFFC
FFFC
FFFC
FFFC
FFFC
FFFC
FFFC
FFFC
FFFC
FFFC
FFFC
ENDCHAR
STARTCHAR semicolon
ENCODING 59
SWIDTH 188 0
DWIDTH 24 0
BBX 15 78 4 -15
BITMAP
7FFE
7FFE
7FFE
7FFE
7FFE
7FFE
7FFE
7FFE
7FFE
7FFE
7FFE
7FFE
7FFE
7FFE
0000
0000
0000
0000
0000
0000
0000
0000
0000
0000
0000
0000
0000
0000
0000
0000
0000
0000
0000
0000
0000
0000
0000
0000
0000
0000
0000
0000
0000
0000
0000
0000
0000
0000
0000
7FFE
7FFE
7FFE
7FFE
7FFE
7FFE
7FFE
7FFE
7FFE
7FFE
7FFE
7FFE
7FFE
7FFC
03FC
07F8
07F8
07F8
0FF0
0FF0
0FE0
1FE0
1FC0
1FC0
3F80
3F80
3F00
7F00
FE00
ENDCHAR
STARTCHAR less
ENCODING 60
SWIDTH 400 0
DWIDTH 51 0
BBX 39 43 5 23
BITMAP
0000000006
000000001E
00000000FE
00000003FE
0000000FFE
0000007FFE
000001FFFE
000007FFFE
00001FFFFE
0000FFFFFE
0003FFFFFC
000FFFFFE0
007FFFFF80
01FFFFFE00
07FFFFF000
3FFFFFC000
FFFFFE0000
FFFFF80000
FFFFE00000
FFFF000000
FFFC000000
FFF8000000
FFFE000000
FFFFC00000
FFFFF00000
FFFFFC0000
7FFFFF8000
0FFFFFE000
03FFFFFC00
00FFFFFF00
001FFFFFC0
0007FFFFF8
0001FFFFFE
00003FFFFE
00000FFFFE
000003FFFE
0000007FFE
0000001FFE
00000007FE
00000000FE
000000003E
000000000E
0000000002
ENDCHAR
STARTCHAR equal
ENCODING 61
SWIDTH 400 0
DWIDTH 51 0
BBX 41 31 5 29
BITMAP
FFFFFFFFFF80
FFFFFFFFFF80
FFFFFFFFFF80
FFFFFFFFFF80
FFFFFFFFFF80
FFFFFFFFFF80
FFFFFFFFFF80
FFFFFFFFFF80
FFFFFFFFFF80
FFFFFFFFFF80
000000000000
000000000000
000000000000
000000000000
000000000000
000000000000
000000000000
000000000000
000000000000
000000000000
000000000000
FFFFFFFFFF80
FFFFFFFFFF80
FFFFFFFFFF80
FFFFFFFFFF80
FFFFFFFFFF80
FFFFFFFFFF80
FFFFFFFFFF80
FFFFFFFFFF80
FFFFFFFFFF80
FFFFFFFFFF80
ENDCHAR
STARTCHAR greater
ENCODING 62
SWIDTH 400 0
DWIDTH 51 0
BBX 39 43 7 23
BITMAP
C000000000
F000000000
FE00000000
FF80000000
FFE0000000
FFFC000000
FFFF000000
FFFFC00000
FFFFF80000
FFFFFE0000
3FFFFF8000
0FFFFFF000
03FFFFFC00
007FFFFF00
001FFFFFE0
0007FFFFF8
0000FFFFFE
00003FFFFE
00000FFFFE
000001FFFE
0000007FFE
0000003FFE
000000FFFE
000007FFFE
00001FFFFE
00007FFFFE
0003FFFFFC
000FFFFFE0
003FFFFF80
01FFFFFE00
07FFFFF800
3FFFFFC000
FFFFFF0000
FFFFFC0000
FFFFE00000
FFFF800000
FFFE000000
FFF0000000
FFC0000000
FF00000000
F800000000
E000000000
8000000000
ENDCHAR
STARTCHAR question
ENCODING 63
SWIDTH 363 0
DWIDTH 46 0
BBX 42 91 2 0
BITMAP
0000FFE00000
000FFFFC0000
003FFFFF0000
00FFFFFFC000
01FFFFFFE000
03FFFFFFF000
07FFFFFFF800
0FFFFFFFFC00
0FFFFFFFFE00
1FFFFFFFFE00
1FFFFFFFFF00
3FFFFFFFFF00
3FFFFFFFFF00
3FFF80FFFF80
7FFF003FFF80
7FFE003FFF80
7FFE001FFF80
7FFC001FFFC0
7FFC000FFFC0
7FFC000FFFC0
FFFC000FFFC0
FFFC000FFFC0
FFFC000FFFC0
FFFC000FFFC0
FFFC000FFFC0
FFFC000FFFC0
FFFC001FFFC0
FFFC001FFF80
FFFC001FFF80
FFFC001FFF80
FFFC003FFF80
0000003FFF80
0000003FFF00
0000007FFF00
0000007FFE00
000000FFFE00
000000FFFE00
000001FFFC00
000001FFF800
000003FFF800
000007FFF000
000007FFF000
00000FFFE000
00001FFFC000
00001FFFC000
00003FFF8000
00007FFF0000
00007FFE0000
0000FFFE0000
0000FFFC0000
0001FFF80000
0001FFF80000
0003FFF00000
0003FFF00000
0003FFE00000
0003FFE00000
0007FFC00000
0007FFC00000
0007FFC00000
0007FF800000
0007FF800000
0007FF800000
0007FF800000
0007FF800000
0007FF800000
0007FF800000
0007FF800000
000000000000
000000000000
000000000000
000000000000
000000000000
000000000000
000000000000
000000000000
000000000000
000000000000
000FFFC00000
000FFFC00000
000FFFC00000
000FFFC00000
000FFFC00000
000FFFC00000
000FFFC00000
000FFFC00000
000FFFC00000
000FFFC00000
000FFFC00000
000FFFC00000
000FFFC00000
000FFFC00000
ENDCHAR
STARTCHAR at
ENCODING 64
SWIDTH 696 0
DWIDTH 89 0
BBX 83 103 3 -8
BITMAP
0000000000FFFE00000000
000000001FFFFFF0000000
00000000FFFFFFFF000000
00000007FFFFFFFFC00000
0000001FFFFFFFFFF00000
0000007FFFFFFFFFF80000
000001FFFFFFFFFFFE0000
000003FFFFFFFFFFFF0000
00000FFFFFFFFFFFFF8000
00001FFFFFFFFFFFFFC000
00003FFFFFFFFFFFFFE000
00007FFFFF8007FFFFF000
0000FFFFF000007FFFF000
0001FFFFC000000FFFF800
0003FFFE00000003FFFC00
0007FFFC00000001FFFC00
000FFFF000000000FFFE00
000FFFE0000000007FFE00
001FFFC0000000003FFF00
003FFF80000000001FFF00
003FFF00000000000FFF00
007FFE00000000000FFF80
00FFFC000000000007FF80
00FFF8000000000003FF80
01FFF0000000000003FFC0
01FFF0000000000003FFC0
03FFE0000FE01FFE01FFC0
03FFE0007FF81FFE01FFC0
07FFC000FFFE1FFE01FFC0
07FFC003FFFF1FFE00FFC0
07FF8007FFFF1FFE00FFE0
0FFF8007FFFF9FFE00FFE0
0FFF000FFFFF9FFE00FFE0
0FFF001FFFFFFFFE00FFE0
1FFF001FFFFFFFFE00FFE0
1FFE003FFFFFFFFC00FFE0
1FFE003FFFFFFFFC00FFE0
1FFE003FFFFFFFFC00FFE0
3FFC007FFFFFFFFC00FFE0
3FFC007FFF01FFFC00FFE0
3FFC007FFE00FFFC00FFE0
3FFC007FFC007FFC00FFE0
7FFC007FFC007FFC00FFE0
7FF800FFF8007FFC00FFE0
7FF800FFF8007FFC00FFE0
7FF800FFF8007FF800FFE0
7FF800FFF0007FF800FFE0
7FF800FFF0007FF800FFE0
7FF800FFF0007FF800FFC0
7FF800FFF0007FF801FFC0
FFF800FFF0007FF801FFC0
FFF000FFF0007FF801FFC0
FFF001FFF0007FF801FFC0
FFF001FFF000FFF801FF80
FFF001FFF000FFF803FF80
FFF001FFF000FFF003FF80
FFF001FFE000FFF003FF80
FFF001FFE000FFF003FF00
FFF001FFE000FFF007FF00
FFF001FFE000FFF007FF00
FFF001FFE001FFF007FE00
FFF001FFE001FFF00FFE00
FFF001FFF001FFF00FFC00
FFF001FFF003FFF01FFC00
FFF801FFF807FFF03FF800
7FF801FFFC0FFFF0FFF800
7FF801FFFFFFFFFFFFF000
7FF801FFFFFFFFFFFFF000
7FF801FFFFFFFFFFFFE000
7FF801FFFFFFFFFFFFC000
7FF800FFFFFDFFFFFF8000
7FFC00FFFFFDFFFFFF0000
3FFC007FFFF8FFFFFE0000
3FFC007FFFF0FFFFFC0000
3FFE003FFFF07FFFF80000
3FFE001FFFC03FFFE00000
1FFF0007FF801FFF800000
1FFF0001FE0007FC000000
1FFF800000000000000000
0FFF800000000000000000
0FFFC00000000000000000
0FFFC00000000000000000
07FFE00000000000000000
07FFF00000000000080000
03FFF80000000000100000
03FFFC0000000000700000
01FFFE0000000000F00000
00FFFF8000000003F00000
00FFFFC00000000FF00000
007FFFF00000003FF00000
003FFFFE000003FFF00000
001FFFFFF0003FFFF00000
000FFFFFFFFFFFFFF00000
0007FFFFFFFFFFFFF00000
0003FFFFFFFFFFFFF00000
0001FFFFFFFFFFFFF00000
0000FFFFFFFFFFFFC00000
00003FFFFFFFFFFF800000
00000FFFFFFFFFFE000000
000003FFFFFFFFF8000000
000000FFFFFFFFC0000000
0000000FFFFFFE00000000
000000007FFFC000000000
ENDCHAR
STARTCHAR A
ENCODING 65
SWIDTH 401 0
DWIDTH 51 0
BBX 48 90 2 0
BITMAP
0003FFFF8000
0003FFFF8000
0003FFFFC000
0003FFFFC000
0007FFFFC000
0007FFFFC000
0007FFFFC000
0007FFFFC000
0007FFFFE000
0007FFFFE000
000FFFFFE000
000FFFFFE000
000FFFFFE000
000FFFFFE000
000FFFFFF000
000FFFFFF000
001FFFFFF000
001FFFFFF000
001FFEFFF000
001FFCFFF000
001FFCFFF800
001FFCFFF800
003FFCFFF800
003FFCFFF800
003FFCFFF800
003FFC7FF800
003FF87FF800
003FF87FFC00
007FF87FFC00
007FF87FFC00
007FF87FFC00
007FF87FFC00
007FF83FFC00
007FF83FFE00
007FF03FFE00
00FFF03FFE00
00FFF03FFE00
00FFF03FFE00
00FFF03FFE00
00FFF01FFF00
00FFF01FFF00
01FFE01FFF00
01FFE01FFF00
01FFE01FFF00
01FFE01FFF00
01FFE01FFF80
01FFE00FFF80
03FFE00FFF80
03FFC00FFF80
03FFC00FFF80
03FFC00FFF80
03FFC00FFFC0
03FFC00FFFC0
07FFC007FFC0
07FFC007FFC0
07FF8007FFC0
07FF8007FFC0
07FF8007FFE0
07FF8007FFE0
0FFF8007FFE0
0FFFFFFFFFE0
0FFFFFFFFFE0
0FFFFFFFFFE0
0FFFFFFFFFE0
0FFFFFFFFFF0
1FFFFFFFFFF0
1FFFFFFFFFF0
1FFFFFFFFFF0
1FFFFFFFFFF0
1FFFFFFFFFF0
1FFFFFFFFFF8
1FFFFFFFFFF8
3FFE0001FFF8
3FFE0001FFF8
3FFE0000FFF8
3FFE0000FFF8
3FFE0000FFFC
3FFC0000FFFC
7FFC0000FFFC
7FFC0000FFFC
7FFC0000FFFC
7FFC00007FFC
7FFC00007FFE
7FFC00007FFE
FFF800007FFE
FFF800007FFE
FFF800007FFE
FFF800007FFE
FFF800007FFF
FFF800003FFF
ENDCHAR
STARTCHAR B
ENCODING 66
SWIDTH 404 0
DWIDTH 52 0
BBX 44 90 5 0
BITMAP
FFFFFFF00000
FFFFFFFF0000
FFFFFFFFC000
FFFFFFFFE000
FFFFFFFFF800
FFFFFFFFFC00
FFFFFFFFFE00
FFFFFFFFFE00
FFFFFFFFFF00
FFFFFFFFFF00
FFFFFFFFFF80
FFFFFFFFFF80
FFFFFFFFFF80
FFFC007FFFC0
FFFC003FFFC0
FFFC001FFFC0
FFFC001FFFC0
FFFC000FFFC0
FFFC000FFFC0
FFFC000FFFC0
FFFC000FFFC0
FFFC000FFFC0
FFFC000FFFC0
FFFC000FFFC0
FFFC000FFFC0
FFFC000FFFC0
FFFC000FFFC0
FFFC000FFFC0
FFFC000FFFC0
FFFC000FFFC0
FFFC000FFFC0
FFFC000FFFC0
FFFC001FFF80
FFFC001FFF80
FFFC003FFF80
FFFC007FFF00
FFFC01FFFF00
FFFFFFFFFE00
FFFFFFFFFC00
FFFFFFFFFC00
FFFFFFFFF000
FFFFFFFFE000
FFFFFFFF8000
FFFFFFFFE000
FFFFFFFFF800
FFFFFFFFFC00
FFFFFFFFFE00
FFFFFFFFFF00
FFFFFFFFFF80
FFFFFFFFFF80
FFFC007FFFC0
FFFC001FFFC0
FFFC000FFFE0
FFFC000FFFE0
FFFC0007FFE0
FFFC0007FFE0
FFFC0007FFE0
FFFC0007FFF0
FFFC0003FFF0
FFFC0003FFF0
FFFC0003FFF0
FFFC0003FFF0
FFFC0003FFF0
FFFC0003FFF0
FFFC0003FFF0
FFFC0003FFF0
FFFC0003FFF0
FFFC0003FFF0
FFFC0003FFF0
FFFC0003FFF0
FFFC0003FFF0
FFFC0007FFF0
FFFC0007FFF0
FFFC0007FFE0
FFFC000FFFE0
FFFC000FFFE0
FFFC003FFFE0
FFFFFFFFFFE0
FFFFFFFFFFC0
FFFFFFFFFFC0
FFFFFFFFFF80
FFFFFFFFFF80
FFFFFFFFFF00
FFFFFFFFFE00
FFFFFFFFFC00
FFFFFFFFF800
FFFFFFFFF000
FFFFFFFFC000
FFFFFFFF0000
FFFFFFF00000
ENDCHAR
STARTCHAR C
ENCODING 67
SWIDTH 383 0
DWIDTH 49 0
BBX 42 92 4 -1
BITMAP
0000FFE00000
000FFFFC0000
003FFFFF0000
00FFFFFFC000
01FFFFFFE000
03FFFFFFF000
07FFFFFFF800
0FFFFFFFFC00
0FFFFFFFFE00
1FFFFFFFFE00
3FFFFFFFFF00
3FFFFFFFFF00
3FFFFFFFFF00
7FFFC07FFF80
7FFF803FFF80
7FFF001FFF80
7FFE000FFF80
7FFE000FFFC0
FFFE000FFFC0
FFFE000FFFC0
FFFC000FFFC0
FFFC0007FFC0
FFFC0007FFC0
FFFC0007FFC0
FFFC0007FFC0
FFFC0007FFC0
FFFC0007FFC0
FFFC0007FFC0
FFFC0007FFC0
FFFC0007FFC0
FFFC0007FFC0
FFFC00000000
FFFC00000000
FFFC00000000
FFFC00000000
FFFC00000000
FFFC00000000
FFFC00000000
FFFC00000000
FFFC00000000
FFFC00000000
FFFC00000000
FFFC00000000
FFFC00000000
FFFC00000000
FFFC00000000
FFFC00000000
FFFC00000000
FFFC00000000
FFFC00000000
FFFC00000000
FFFC00000000
FFFC00000000
FFFC00000000
FFFC00000000
FFFC00000000
FFFC00000000
FFFC0007FFC0
FFFC0007FFC0
FFFC0007FFC0
FFFC0007FFC0
FFFC0007FFC0
FFFC0007FFC0
FFFC0007FFC0
FFFC0007FFC0
FFFC0007FFC0
FFFC0007FFC0
FFFC0007FFC0
FFFC0007FFC0
FFFC0007FFC0
FFFC0007FFC0
FFFC000FFFC0
FFFC000FFFC0
FFFE000FFFC0
7FFE000FFFC0
7FFE000FFF80
7FFF001FFF80
7FFF803FFF80
7FFFC07FFF80
3FFFFFFFFF00
3FFFFFFFFF00
3FFFFFFFFF00
1FFFFFFFFE00
0FFFFFFFFE00
0FFFFFFFFC00
07FFFFFFF800
03FFFFFFF000
01FFFFFFE000
00FFFFFFC000
003FFFFF0000
000FFFFC0000
0000FFE00000
ENDCHAR
STARTCHAR D
ENCODING 68
SWIDTH 406 0
DWIDTH 52 0
BBX 43 90 5 0
BITMAP
FFFFFFE00000
FFFFFFFE0000
FFFFFFFF8000
FFFFFFFFE000
FFFFFFFFF000
FFFFFFFFF800
FFFFFFFFFC00
FFFFFFFFFE00
FFFFFFFFFF00
FFFFFFFFFF00
FFFFFFFFFF80
FFFFFFFFFF80
FFFFFFFFFF80
FFFC007FFFC0
FFFC003FFFC0
FFFC001FFFC0
FFFC000FFFC0
FFFC000FFFC0
FFFC000FFFE0
FFFC0007FFE0
FFFC0007FFE0
FFFC0007FFE0
FFFC0007FFE0
FFFC0007FFE0
FFFC0007FFE0
FFFC0007FFE0
FFFC0007FFE0
FFFC0007FFE0
FFFC0007FFE0
FFFC0007FFE0
FFFC0007FFE0
FFFC0007FFE0
FFFC0007FFE0
FFFC0007FFE0
FFFC0007FFE0
FFFC0007FFE0
FFFC0007FFE0
FFFC0007FFE0
FFFC0007FFE0
FFFC0007FFE0
FFFC0007FFE0
FFFC0007FFE0
FFFC0007FFE0
FFFC0007FFE0
FFFC0007FFE0
FFFC0007FFE0
FFFC0007FFE0
FFFC0007FFE0
FFFC0007FFE0
FFFC0007FFE0
FFFC0007FFE0
FFFC0007FFE0
FFFC0007FFE0
FFFC0007FFE0
FFFC0007FFE0
FFFC0007FFE0
FFFC0007FFE0
FFFC0007FFE0
FFFC0007FFE0
FFFC0007FFE0
FFFC0007FFE0
FFFC0007FFE0
FFFC0007FFE0
FFFC0007FFE0
FFFC0007FFE0
FFFC0007FFE0
FFFC0007FFE0
FFFC0007FFE0
FFFC0007FFE0
FFFC0007FFE0
FFFC0007FFE0
FFFC000FFFE0
FFFC000FFFC0
FFFC000FFFC0
FFFC001FFFC0
FFFC003FFFC0
FFFC007FFFC0
FFFFFFFFFF80
FFFFFFFFFF80
FFFFFFFFFF80
FFFFFFFFFF00
FFFFFFFFFF00
FFFFFFFFFE00
FFFFFFFFFC00
FFFFFFFFF800
FFFFFFFFF000
FFFFFFFFE000
FFFFFFFF8000
FFFFFFFE0000
FFFFFFE00000
ENDCHAR
STARTCHAR E
ENCODING 69
SWIDTH 363 0
DWIDTH 46 0
BBX 39 90 5 0
BITMAP
FFFFFFFFFE
FFFFFFFFFE
FFFFFFFFFE
FFFFFFFFFE
FFFFFFFFFE
FFFFFFFFFE
FFFFFFFFFE
FFFFFFFFFE
FFFFFFFFFE
FFFFFFFFFE
FFFFFFFFFE
FFFFFFFFFE
FFFFFFFFFE
FFFC000000
FFFC000000
FFFC000000
FFFC000000
FFFC000000
FFFC000000
FFFC000000
FFFC000000
FFFC000000
FFFC000000
FFFC000000
FFFC000000
FFFC000000
FFFC000000
FFFC000000
FFFC000000
FFFC000000
FFFC000000
FFFC000000
FFFC000000
FFFC000000
FFFC000000
FFFC000000
FFFC000000
FFFFFFFFC0
FFFFFFFFC0
FFFFFFFFC0
FFFFFFFFC0
FFFFFFFFC0
FFFFFFFFC0
FFFFFFFFC0
FFFFFFFFC0
FFFFFFFFC0
FFFFFFFFC0
FFFFFFFFC0
FFFFFFFFC0
FFFFFFFFC0
FFFC000000
FFFC000000
FFFC000000
FFFC000000
FFFC000000
FFFC000000
FFFC000000
FFFC000000
FFFC000000
FFFC000000
FFFC000000
FFFC000000
FFFC000000
FFFC000000
FFFC000000
FFFC000000
FFFC000000
FFFC000000
FFFC000000
FFFC000000
FFFC000000
FFFC000000
FFFC000000
FFFC000000
FFFC000000
FFFC000000
FFFC000000
FFFFFFFFFE
FFFFFFFFFE
FFFFFFFFFE
FFFFFFFFFE
FFFFFFFFFE
FFFFFFFFFE
FFFFFFFFFE
FFFFFFFFFE
FFFFFFFFFE
FFFFFFFFFE
FFFFFFFFFE
FFFFFFFFFE
FFFFFFFFFE
ENDCHAR
STARTCHAR F
ENCODING 70
SWIDTH 344 0
DWIDTH 44 0
BBX 38 90 5 0
BITMAP
FFFFFFFFFC
FFFFFFFFFC
FFFFFFFFFC
FFFFFFFFFC
FFFFFFFFFC
FFFFFFFFFC
FFFFFFFFFC
FFFFFFFFFC
FFFFFFFFFC
FFFFFFFFFC
FFFFFFFFFC
FFFFFFFFFC
FFFFFFFFFC
FFFC000000
FFFC000000
FFFC000000
FFFC000000
FFFC000000
FFFC000000
FFFC000000
FFFC000000
FFFC000000
FFFC000000
FFFC000000
FFFC000000
FFFC000000
FFFC000000
FFFC000000
FFFC000000
FFFC000000
FFFC000000
FFFC000000
FFFC000000
FFFC000000
FFFC000000
FFFC000000
FFFC000000
FFFC000000
FFFFFFFF80
FFFFFFFF80
FFFFFFFF80
FFFFFFFF80
FFFFFFFF80
FFFFFFFF80
FFFFFFFF80
FFFFFFFF80
FFFFFFFF80
FFFFFFFF80
FFFFFFFF80
FFFFFFFF80
FFFFFFFF80
FFFC000000
FFFC000000
FFFC000000
FFFC000000
FFFC000000
FFFC000000
FFFC000000
FFFC000000
FFFC000000
FFFC000000
FFFC000000
FFFC000000
FFFC000000
FFFC000000
FFFC000000
FFFC000000
FFFC000000
FFFC000000
FFFC000000
FFFC000000
FFFC000000
FFFC000000
FFFC000000
FFFC000000
FFFC000000
FFFC000000
FFFC000000
FFFC000000
FFFC000000
FFFC000000
FFFC000000
FFFC000000
FFFC000000
FFFC000000
FFFC000000
FFFC000000
FFFC000000
FFFC000000
FFFC000000
ENDCHAR
STARTCHAR G
ENCODING 71
SWIDTH 391 0
DWIDTH 50 0
BBX 42 92 4 -1
BITMAP
0000FFE00000
000FFFFC0000
003FFFFF8000
00FFFFFFC000
01FFFFFFE000
03FFFFFFF800
07FFFFFFF800
0FFFFFFFFC00
0FFFFFFFFE00
1FFFFFFFFE00
3FFFFFFFFF00
3FFFFFFFFF00
3FFFFFFFFF80
7FFFC07FFF80
7FFF801FFF80
7FFF001FFFC0
7FFE000FFFC0
7FFE000FFFC0
FFFE0007FFC0
FFFC0007FFC0
FFFC0007FFC0
FFFC0007FFC0
FFFC0007FFC0
FFFC0007FFC0
FFFC0007FFC0
FFFC0007FFC0
FFFC0007FFC0
FFFC0007FFC0
FFFC0007FFC0
FFFC0007FFC0
FFFC00000000
FFFC00000000
FFFC00000000
FFFC00000000
FFFC00000000
FFFC00000000
FFFC00000000
FFFC00000000
FFFC00000000
FFFC00000000
FFFC03FFFFC0
FFFC03FFFFC0
FFFC03FFFFC0
FFFC03FFFFC0
FFFC03FFFFC0
FFFC03FFFFC0
FFFC03FFFFC0
FFFC03FFFFC0
FFFC03FFFFC0
FFFC03FFFFC0
FFFC03FFFFC0
FFFC03FFFFC0
FFFC03FFFFC0
FFFC0007FFC0
FFFC0007FFC0
FFFC0007FFC0
FFFC0007FFC0
FFFC0007FFC0
FFFC0007FFC0
FFFC0007FFC0
FFFC0007FFC0
FFFC0007FFC0
FFFC0007FFC0
FFFC0007FFC0
FFFC0007FFC0
FFFC0007FFC0
FFFC0007FFC0
FFFC0007FFC0
FFFC0007FFC0
FFFC0007FFC0
FFFC0007FFC0
FFFC0007FFC0
FFFC0007FFC0
FFFE0007FFC0
7FFE000FFFC0
7FFE000FFFC0
7FFF001FFFC0
7FFF801FFF80
7FFFC07FFF80
3FFFFFFFFF80
3FFFFFFFFF00
3FFFFFFFFF00
1FFFFFFFFE00
0FFFFFFFFE00
0FFFFFFFFC00
07FFFFFFF800
03FFFFFFF800
01FFFFFFE000
00FFFFFFC000
003FFFFF8000
000FFFFC0000
0001FFE00000
ENDCHAR
STARTCHAR H
ENCODING 72
SWIDTH 420 0
DWIDTH 54 0
BBX 44 90 5 0
BITMAP
FFFC0007FFF0
FFFC0007FFF0
FFFC0007FFF0
FFFC0007FFF0
FFFC0007FFF0
FFFC0007FFF0
FFFC0007FFF0
FFFC0007FFF0
FFFC0007FFF0
FFFC0007FFF0
FFFC0007FFF0
FFFC0007FFF0
FFFC0007FFF0
FFFC0007FFF0
FFFC0007FFF0
FFFC0007FFF0
FFFC0007FFF0
FFFC0007FFF0
FFFC0007FFF0
FFFC0007FFF0
FFFC0007FFF0
FFFC0007FFF0
FFFC0007FFF0
FFFC0007FFF0
FFFC0007FFF0
FFFC0007FFF0
FFFC0007FFF0
FFFC0007FFF0
FFFC0007FFF0
FFFC0007FFF0
FFFC0007FFF0
FFFC0007FFF0
FFFC0007FFF0
FFFC0007FFF0
FFFC0007FFF0
FFFC0007FFF0
FFFC0007FFF0
FFFFFFFFFFF0
FFFFFFFFFFF0
FFFFFFFFFFF0
FFFFFFFFFFF0
FFFFFFFFFFF0
FFFFFFFFFFF0
FFFFFFFFFFF0
FFFFFFFFFFF0
FFFFFFFFFFF0
FFFFFFFFFFF0
FFFFFFFFFFF0
FFFFFFFFFFF0
FFFFFFFFFFF0
FFFC0007FFF0
FFFC0007FFF0
FFFC0007FFF0
FFFC0007FFF0
FFFC0007FFF0
FFFC0007FFF0
FFFC0007FFF0
FFFC0007FFF0
FFFC0007FFF0
FFFC0007FFF0
FFFC0007FFF0
FFFC0007FFF0
FFFC0007FFF0
FFFC0007FFF0
FFFC0007FFF0
FFFC0007FFF0
FFFC0007FFF0
FFFC0007FFF0
FFFC0007FFF0
FFFC0007FFF0
FFFC0007FFF0
FFFC0007FFF0
FFFC0007FFF0
FFFC0007FFF0
FFFC0007FFF0
FFFC0007FFF0
FFFC0007FFF0
FFFC0007FFF0
FFFC0007FFF0
FFFC0007FFF0
FFFC0007FFF0
FFFC0007FFF0
FFFC0007FFF0
FFFC0007FFF0
FFFC0007FFF0
FFFC0007FFF0
FFFC0007FFF0
FFFC0007FFF0
FFFC0007FFF0
FFFC0007FFF0
ENDCHAR
STARTCHAR I
ENCODING 73
SWIDTH 192 0
DWIDTH 25 0
BBX 14 90 5 0
BITMAP
FFFC
FFFC
FFFC
FFFC
FFFC
FFFC
FFFC
FFFC
FFFC
FFFC
FFFC
FFFC
FFFC
FFFC
FFFC
FFFC
FFFC
FFFC
FFFC
FFFC
FFFC
FFFC
FFFC
FFFC
FFFC
FFFC
FFFC
FFFC
FFFC
FFFC
FFFC
FFFC
FFFC
FFFC
FFFC
FFFC
FFFC
FFFC
FFFC
FFFC
FFFC
FFFC
FFFC
FFFC
FFFC
FFFC
FFFC
FFFC
FFFC
FFFC
FFFC
FFFC
FFFC
FFFC
FFFC
FFFC
FFFC
FFFC
FFFC
FFFC
FFFC
FFFC
FFFC
FFFC
FFFC
FFFC
FFFC
FFFC
FFFC
FFFC
FFFC
FFFC
FFFC
FFFC
FFFC
FFFC
FFFC
FFFC
FFFC
FFFC
FFFC
FFFC
FFFC
FFFC
FFFC
FFFC
FFFC
FFFC
FFFC
FFFC
ENDCHAR
STARTCHAR J
ENCODING 74
SWIDTH 265 0
DWIDTH 34 0
BBX 27 90 2 0
BITMAP
0007FFE0
0007FFE0
0007FFE0
0007FFE0
0007FFE0
0007FFE0
0007FFE0
0007FFE0
0007FFE0
0007FFE0
0007FFE0
0007FFE0
0007FFE0
0007FFE0
0007FFE0
0007FFE0
0007FFE0
0007FFE0
0007FFE0
0007FFE0
0007FFE0
0007FFE0
0007FFE0
0007FFE0
0007FFE0
0007FFE0
0007FFE0
0007FFE0
0007FFE0
0007FFE0
0007FFE0
0007FFE0
0007FFE0
0007FFE0
0007FFE0
0007FFE0
0007FFE0
0007FFE0
0007FFE0
0007FFE0
0007FFE0
0007FFE0
0007FFE0
0007FFE0
0007FFE0
0007FFE0
0007FFE0
0007FFE0
0007FFE0
0007FFE0
0007FFE0
0007FFE0
0007FFE0
0007FFE0
0007FFE0
0007FFE0
0007FFE0
0007FFE0
0007FFE0
0007FFE0
0007FFE0
0007FFE0
0007FFE0
0007FFE0
0007FFE0
0007FFE0
0007FFE0
0007FFE0
0007FFE0
0007FFE0
0007FFE0
0007FFE0
000FFFE0
000FFFE0
001FFFE0
003FFFC0
007FFFC0
FFFFFFC0
FFFFFFC0
FFFFFF80
FFFFFF80
FFFFFF00
FFFFFF00
FFFFFE00
FFFFFC00
FFFFF800
FFFFF000
FFFFC000
FFFF0000
FFF80000
ENDCHAR
STARTCHAR K
ENCODING 75
SWIDTH 414 0
DWIDTH 53 0
BBX 47 90 5 0
BITMAP
FFFC0000FFFC
FFFC0000FFFC
FFFC0001FFF8
FFFC0001FFF8
FFFC0003FFF0
FFFC0003FFF0
FFFC0007FFE0
FFFC0007FFE0
FFFC000FFFC0
FFFC000FFFC0
FFFC001FFF80
FFFC001FFF80
FFFC003FFF00
FFFC003FFF00
FFFC007FFE00
FFFC007FFE00
FFFC00FFFC00
FFFC00FFFC00
FFFC00FFF800
FFFC01FFF800
FFFC01FFF000
FFFC03FFE000
FFFC03FFE000
FFFC07FFC000
FFFC07FFC000
FFFC0FFF8000
FFFC0FFF8000
FFFC1FFF0000
FFFC1FFF0000
FFFC3FFE0000
FFFC3FFE0000
FFFC7FFC0000
FFFC7FFC0000
FFFCFFFC0000
FFFCFFFC0000
FFFCFFFC0000
FFFDFFFE0000
FFFDFFFE0000
FFFFFFFE0000
FFFFFFFE0000
FFFFFFFF0000
FFFFFFFF0000
FFFFFFFF0000
FFFFFFFF8000
FFFFFFFF8000
FFFFFFFF8000
FFFFFFFFC000
FFFFFFFFC000
FFFFFFFFC000
FFFFFFFFC000
FFFFFFFFE000
FFFFEFFFE000
FFFFE7FFE000
FFFFC7FFF000
FFFFC7FFF000
FFFF83FFF000
FFFF83FFF800
FFFF03FFF800
FFFF03FFF800
FFFE01FFF800
FFFE01FFFC00
FFFC01FFFC00
FFFC00FFFC00
FFFC00FFFE00
FFFC00FFFE00
FFFC007FFE00
FFFC007FFF00
FFFC007FFF00
FFFC007FFF00
FFFC003FFF00
FFFC003FFF80
FFFC003FFF80
FFFC001FFF80
FFFC001FFFC0
FFFC001FFFC0
FFFC000FFFC0
FFFC000FFFE0
FFFC000FFFE0
FFFC000FFFE0
FFFC0007FFE0
FFFC0007FFF0
FFFC0007FFF0
FFFC0003FFF0
FFFC0003FFF8
FFFC0003FFF8
FFFC0001FFF8
FFFC0001FFFC
FFFC0001FFFC
FFFC0001FFFC
FFFC0000FFFE
ENDCHAR
STARTCHAR L
ENCODING 76
SWIDTH 344 0
DWIDTH 44 0
BBX 38 90 5 0
BITMAP
FFFC000000
FFFC000000
FFFC000000
FFFC000000
FFFC000000
FFFC000000
FFFC000000
FFFC000000
FFFC000000
FFFC000000
FFFC000000
FFFC000000
FFFC000000
FFFC000000
FFFC000000
FFFC000000
FFFC000000
FFFC000000
FFFC000000
FFFC000000
FFFC000000
FFFC000000
FFFC000000
FFFC000000
FFFC000000
FFFC000000
FFFC000000
FFFC000000
FFFC000000
FFFC000000
FFFC000000
FFFC000000
FFFC000000
FFFC000000
FFFC000000
FFFC000000
FFFC000000
FFFC000000
FFFC000000
FFFC000000
FFFC000000
FFFC000000
FFFC000000
FFFC000000
FFFC000000
FFFC000000
FFFC000000
FFFC000000
FFFC000000
FFFC000000
FFFC000000
FFFC000000
FFFC000000
FFFC000000
FFFC000000
FFFC000000
FFFC000000
FFFC000000
FFFC000000
FFFC000000
FFFC000000
FFFC000000
FFFC000000
FFFC000000
FFFC000000
FFFC000000
FFFC000000
FFFC000000
FFFC000000
FFFC000000
FFFC000000
FFFC000000
FFFC000000
FFFC000000
FFFC000000
FFFC000000
FFFC000000
FFFFFFFFFC
FFFFFFFFFC
FFFFFFFFFC
FFFFFFFFFC
FFFFFFFFFC
FFFFFFFFFC
FFFFFFFFFC
FFFFFFFFFC
FFFFFFFFFC
FFFFFFFFFC
FFFFFFFFFC
FFFFFFFFFC
FFFFFFFFFC
ENDCHAR
STARTCHAR M
ENCODING 77
SWIDTH 538 0
DWIDTH 69 0
BBX 59 90 5 0
BITMAP
FFFFF00003FFFFE0
FFFFF80003FFFFE0
FFFFF80003FFFFE0
FFFFF80003FFFFE0
FFFFF80003FFFFE0
FFFFF80003FFFFE0
FFFFF80003FFFFE0
FFFFF80007FFFFE0
FFFFFC0007FFFFE0
FFFFFC0007FFFFE0
FFFFFC0007FFFFE0
FFFFFC0007FFFFE0
FFFFFC0007FFFFE0
FFFFFC0007FFFFE0
FFFFFC000FFFFFE0
FFFFFC000FFFFFE0
FFFFFE000FFFFFE0
FFFFFE000FFFFFE0
FFFFFE000FFFFFE0
FFFFFE000FFFFFE0
FFFFFE000FFFFFE0
FFFFFE000FFFFFE0
FFFFFE001FFFFFE0
FFFFFF001FFFFFE0
FFFFFF001FFFFFE0
FFFFFF001FFFFFE0
FFFFFF001FF7FFE0
FFFBFF001FF7FFE0
FFFBFF001FF7FFE0
FFFBFF003FF7FFE0
FFFBFF803FF7FFE0
FFFBFF803FF7FFE0
FFFBFF803FE7FFE0
FFF9FF803FE7FFE0
FFF9FF803FE7FFE0
FFF9FF803FE7FFE0
FFF9FF807FE7FFE0
FFF9FFC07FE7FFE0
FFF9FFC07FE7FFE0
FFF9FFC07FC7FFE0
FFF8FFC07FC7FFE0
FFF8FFC07FC7FFE0
FFF8FFC07FC7FFE0
FFF8FFC0FFC7FFE0
FFF8FFE0FFC7FFE0
FFF8FFE0FFC7FFE0
FFF8FFE0FF87FFE0
FFF87FE0FF87FFE0
FFF87FE0FF87FFE0
FFF87FE0FF87FFE0
FFF87FE1FF87FFE0
FFF87FE1FF87FFE0
FFF87FF1FF07FFE0
FFF83FF1FF07FFE0
FFF83FF1FF07FFE0
FFF83FF1FF07FFE0
FFF83FF1FF07FFE0
FFF83FF1FF07FFE0
FFF83FF3FF07FFE0
FFF83FFBFE07FFE0
FFF81FFBFE07FFE0
FFF81FFBFE07FFE0
FFF81FFBFE07FFE0
FFF81FFBFE07FFE0
FFF81FFFFE07FFE0
FFF81FFFFE07FFE0
FFF81FFFFC07FFE0
FFF80FFFFC07FFE0
FFF80FFFFC07FFE0
FFF80FFFFC07FFE0
FFF80FFFFC07FFE0
FFF80FFFFC07FFE0
FFF80FFFF807FFE0
FFF807FFF807FFE0
FFF807FFF807FFE0
FFF807FFF807FFE0
FFF807FFF807FFE0
FFF807FFF807FFE0
FFF807FFF807FFE0
FFF807FFF007FFE0
FFF803FFF007FFE0
FFF803FFF007FFE0
FFF803FFF007FFE0
FFF803FFF007FFE0
FFF803FFF007FFE0
FFF803FFF007FFE0
FFF801FFE007FFE0
FFF801FFE007FFE0
FFF801FFE007FFE0
FFF801FFE007FFE0
ENDCHAR
STARTCHAR N
ENCODING 78
SWIDTH 427 0
DWIDTH 55 0
BBX 44 90 5 0
BITMAP
FFFFC000FFF0
FFFFC000FFF0
FFFFE000FFF0
FFFFE000FFF0
FFFFE000FFF0
FFFFE000FFF0
FFFFF000FFF0
FFFFF000FFF0
FFFFF000FFF0
FFFFF000FFF0
FFFFF800FFF0
FFFFF800FFF0
FFFFF800FFF0
FFFFF800FFF0
FFFFFC00FFF0
FFFFFC00FFF0
FFFFFC00FFF0
FFFFFC00FFF0
FFFFFE00FFF0
FFFFFE00FFF0
FFFFFE00FFF0
FFFFFE00FFF0
FFFFFF00FFF0
FFFFFF00FFF0
FFFFFF00FFF0
FFFFFF00FFF0
FFFBFF80FFF0
FFFBFF80FFF0
FFFBFF80FFF0
FFFBFF80FFF0
FFF9FFC0FFF0
FFF9FFC0FFF0
FFF9FFC0FFF0
FFF9FFC0FFF0
FFF8FFE0FFF0
FFF8FFE0FFF0
FFF8FFE0FFF0
FFF8FFE0FFF0
FFF87FF0FFF0
FFF87FF0FFF0
FFF87FF0FFF0
FFF87FF0FFF0
FFF83FF8FFF0
FFF83FF8FFF0
FFF83FF8FFF0
FFF83FF8FFF0
FFF81FFCFFF0
FFF81FFCFFF0
FFF81FFCFFF0
FFF81FFCFFF0
FFF80FFEFFF0
FFF80FFEFFF0
FFF80FFEFFF0
FFF807FEFFF0
FFF807FFFFF0
FFF807FFFFF0
FFF807FFFFF0
FFF803FFFFF0
FFF803FFFFF0
FFF803FFFFF0
FFF803FFFFF0
FFF801FFFFF0
FFF801FFFFF0
FFF801FFFFF0
FFF801FFFFF0
FFF800FFFFF0
FFF800FFFFF0
FFF800FFFFF0
FFF800FFFFF0
FFF8007FFFF0
FFF8007FFFF0
FFF8007FFFF0
FFF8007FFFF0
FFF8003FFFF0
FFF8003FFFF0
FFF8003FFFF0
FFF8003FFFF0
FFF8001FFFF0
FFF8001FFFF0
FFF8001FFFF0
FFF8001FFFF0
FFF8000FFFF0
FFF8000FFFF0
FFF8000FFFF0
FFF80007FFF0
FFF80007FFF0
FFF80007FFF0
FFF80007FFF0
FFF80003FFF0
FFF80003FFF0
ENDCHAR
STARTCHAR O
ENCODING 79
SWIDTH 400 0
DWIDTH 51 0
BBX 43 92 4 -1
BITMAP
0000FFE00000
000FFFFE0000
003FFFFF8000
00FFFFFFE000
01FFFFFFF000
03FFFFFFF800
07FFFFFFFC00
0FFFFFFFFE00
0FFFFFFFFE00
1FFFFFFFFF00
1FFFFFFFFF80
3FFFFFFFFF80
3FFFFFFFFF80
7FFFC07FFFC0
7FFF801FFFC0
7FFF001FFFC0
7FFE000FFFC0
7FFE000FFFE0
FFFE0007FFE0
FFFC0007FFE0
FFFC0007FFE0
FFFC0007FFE0
FFFC0007FFE0
FFFC0007FFE0
FFFC0007FFE0
FFFC0007FFE0
FFFC0007FFE0
FFFC0007FFE0
FFFC0007FFE0
FFFC0007FFE0
FFFC0007FFE0
FFFC0007FFE0
FFFC0007FFE0
FFFC0007FFE0
FFFC0007FFE0
FFFC0007FFE0
FFFC0007FFE0
FFFC0007FFE0
FFFC0007FFE0
FFFC0007FFE0
FFFC0007FFE0
FFFC0007FFE0
FFFC0007FFE0
FFFC0007FFE0
FFFC0007FFE0
FFFC0007FFE0
FFFC0007FFE0
FFFC0007FFE0
FFFC0007FFE0
FFFC0007FFE0
FFFC0007FFE0
FFFC0007FFE0
FFFC0007FFE0
FFFC0007FFE0
FFFC0007FFE0
FFFC0007FFE0
FFFC0007FFE0
FFFC0007FFE0
FFFC0007FFE0
FFFC0007FFE0
FFFC0007FFE0
FFFC0007FFE0
FFFC0007FFE0
FFFC0007FFE0
FFFC0007FFE0
FFFC0007FFE0
FFFC0007FFE0
FFFC0007FFE0
FFFC0007FFE0
FFFC0007FFE0
FFFC0007FFE0
FFFC0007FFE0
FFFC0007FFE0
FFFE0007FFE0
7FFE000FFFE0
7FFE000FFFC0
7FFF001FFFC0
7FFF801FFFC0
7FFFC07FFFC0
3FFFFFFFFF80
3FFFFFFFFF80
1FFFFFFFFF80
1FFFFFFFFF00
0FFFFFFFFE00
0FFFFFFFFE00
07FFFFFFFC00
03FFFFFFF800
01FFFFFFF000
00FFFFFFE000
003FFFFF8000
000FFFFE0000
0000FFE00000
ENDCHAR
STARTCHAR P
ENCODING 80
SWIDTH 386 0
DWIDTH 49 0
BBX 42 90 5 0
BITMAP
FFFFFFE00000
FFFFFFFC0000
FFFFFFFF8000
FFFFFFFFC000
FFFFFFFFE000
FFFFFFFFF800
FFFFFFFFF800
FFFFFFFFFC00
FFFFFFFFFE00
FFFFFFFFFE00
FFFFFFFFFF00
FFFFFFFFFF00
FFFFFFFFFF80
FFFC00FFFF80
FFFC003FFF80
FFFC001FFF80
FFFC001FFFC0
FFFC001FFFC0
FFFC000FFFC0
FFFC000FFFC0
FFFC000FFFC0
FFFC000FFFC0
FFFC000FFFC0
FFFC000FFFC0
FFFC000FFFC0
FFFC000FFFC0
FFFC000FFFC0
FFFC000FFFC0
FFFC000FFFC0
FFFC000FFFC0
FFFC000FFFC0
FFFC000FFFC0
FFFC000FFFC0
FFFC000FFFC0
FFFC000FFFC0
FFFC000FFFC0
FFFC001FFFC0
FFFC001FFF80
FFFC001FFF80
FFFC003FFF80
FFFC00FFFF80
FFFFFFFFFF80
FFFFFFFFFF00
FFFFFFFFFF00
FFFFFFFFFE00
FFFFFFFFFE00
FFFFFFFFFC00
FFFFFFFFF800
FFFFFFFFF000
FFFFFFFFE000
FFFFFFFFC000
FFFFFFFF0000
FFFFFFFC0000
FFFFFF800000
FFFC00000000
FFFC00000000
FFFC00000000
FFFC00000000
FFFC00000000
FFFC00000000
FFFC00000000
FFFC00000000
FFFC00000000
FFFC00000000
FFFC00000000
FFFC00000000
FFFC00000000
FFFC00000000
FFFC00000000
FFFC00000000
FFFC00000000
FFFC00000000
FFFC00000000
FFFC00000000
FFFC00000000
FFFC00000000
FFFC00000000
FFFC00000000
FFFC00000000
FFFC00000000
FFFC00000000
FFFC00000000
FFFC00000000
FFFC00000000
FFFC00000000
FFFC00000000
FFFC00000000
FFFC00000000
FFFC00000000
FFFC00000000
ENDCHAR
STARTCHAR Q
ENCODING 81
SWIDTH 400 0
DWIDTH 51 0
BBX 46 99 4 -8
BITMAP
0000FFE00000
000FFFFE0000
003FFFFF8000
00FFFFFFE000
01FFFFFFF000
03FFFFFFF800
07FFFFFFFC00
0FFFFFFFFE00
0FFFFFFFFE00
1FFFFFFFFF00
1FFFFFFFFF80
3FFFFFFFFF80
3FFFFFFFFF80
7FFFC07FFFC0
7FFF801FFFC0
7FFF001FFFC0
7FFE000FFFC0
7FFE000FFFE0
FFFE0007FFE0
FFFC0007FFE0
FFFC0007FFE0
FFFC0007FFE0
FFFC0007FFE0
FFFC0007FFE0
FFFC0007FFE0
FFFC0007FFE0
FFFC0007FFE0
FFFC0007FFE0
FFFC0007FFE0
FFFC0007FFE0
FFFC0007FFE0
FFFC0007FFE0
FFFC0007FFE0
FFFC0007FFE0
FFFC0007FFE0
FFFC0007FFE0
FFFC0007FFE0
FFFC0007FFE0
FFFC0007FFE0
FFFC0007FFE0
FFFC0007FFE0
FFFC0007FFE0
FFFC0007FFE0
FFFC0007FFE0
FFFC0007FFE0
FFFC0007FFE0
FFFC0007FFE0
FFFC0007FFE0
FFFC0007FFE0
FFFC0007FFE0
FFFC0007FFE0
FFFC0007FFE0
FFFC0007FFE0
FFFC0007FFE0
FFFC0007FFE0
FFFC0007FFE0
FFFC0007FFE0
FFFC0007FFE0
FFFC0007FFE0
FFFC0007FFE0
FFFC0007FFE0
FFFC0007FFE0
FFFC0007FFE0
FFFC0007FFE0
FFFC0007FFE0
FFFC0007FFE0
FFFC0007FFE0
FFFC0007FFE0
FFFC0007FFE0
FFFC0007FFE0
FFFC0007FFE0
FFFC0007FFE0
FFFC0007FFE0
FFFE0007FFE0
7FFE000FFFE0
7FFE000FFFC0
7FFF001FFFC0
7FFF801FFFC0
7FFFC07FFFC0
3FFFFFFFFF80
3FFFFFFFFF80
1FFFFFFFFF80
1FFFFFFFFF00
0FFFFFFFFE00
0FFFFFFFFE00
07FFFFFFFF00
03FFFFFFFFFC
01FFFFFFFFFC
00FFFFFFFFFC
003FFFFFFFFC
000FFFFFFFFC
0000FFE1FFFC
00000000FFFC
00000000FFFC
000000007FFC
000000007FFC
000000003FFC
000000000FFC
0000000001FC
ENDCHAR
STARTCHAR R
ENCODING 82
SWIDTH 403 0
DWIDTH 52 0
BBX 44 90 5 0
BITMAP
FFFFFFE00000
FFFFFFFE0000
FFFFFFFF8000
FFFFFFFFE000
FFFFFFFFF000
FFFFFFFFF800
FFFFFFFFFC00
FFFFFFFFFE00
FFFFFFFFFE00
FFFFFFFFFF00
FFFFFFFFFF00
FFFFFFFFFF80
FFFFFFFFFF80
FFFC00FFFF80
FFFC003FFF80
FFFC003FFFC0
FFFC001FFFC0
FFFC001FFFC0
FFFC000FFFC0
FFFC000FFFC0
FFFC000FFFC0
FFFC000FFFC0
FFFC000FFFC0
FFFC000FFFC0
FFFC000FFFC0
FFFC000FFFC0
FFFC000FFFC0
FFFC000FFFC0
FFFC000FFFC0
FFFC000FFFC0
FFFC000FFFC0
FFFC000FFFC0
FFFC000FFF80
FFFC001FFF80
FFFC001FFF80
FFFC001FFF80
FFFC003FFF00
FFFC007FFF00
FFFC01FFFE00
FFFFFFFFFE00
FFFFFFFFFC00
FFFFFFFFF800
FFFFFFFFF000
FFFFFFFFC000
FFFFFFFF8000
FFFFFFFFE000
FFFFFFFFF800
FFFFFFFFFC00
FFFFFFFFFE00
FFFFFFFFFE00
FFFFFFFFFF00
FFFFFFFFFF00
FFFC00FFFF80
FFFC007FFF80
FFFC003FFF80
FFFC001FFF80
FFFC001FFFC0
FFFC000FFFC0
FFFC000FFFC0
FFFC000FFFC0
FFFC000FFFC0
FFFC000FFFC0
FFFC000FFFC0
FFFC000FFFC0
FFFC000FFFC0
FFFC000FFFC0
FFFC000FFFC0
FFFC000FFFC0
FFFC000FFFC0
FFFC000FFFC0
FFFC000FFFC0
FFFC000FFFC0
FFFC000FFFC0
FFFC000FFFC0
FFFC000FFFC0
FFFC000FFFC0
FFFC000FFFC0
FFFC000FFFC0
FFFC000FFFC0
FFFC000FFFC0
FFFC000FFFC0
FFFC000FFFC0
FFFC000FFFC0
FFFC000FFFC0
FFFC000FFFC0
FFFC000FFFC0
FFFC000FFFE0
FFFC0007FFE0
FFFC0007FFE0
FFFC0007FFF0
ENDCHAR
STARTCHAR S
ENCODING 83
SWIDTH 372 0
DWIDTH 48 0
BBX 42 92 3 -1
BITMAP
0000FFC00000
000FFFFC0000
003FFFFF0000
00FFFFFFC000
01FFFFFFE000
03FFFFFFF000
07FFFFFFF800
0FFFFFFFFC00
1FFFFFFFFC00
1FFFFFFFFE00
3FFFFFFFFE00
3FFFFFFFFF00
3FFFFFFFFF00
7FFFC07FFF00
7FFF003FFF80
7FFF001FFF80
FFFE001FFF80
FFFE000FFF80
FFFC000FFF80
FFFC000FFF80
FFFC000FFF80
FFFC000FFFC0
FFFC000FFFC0
FFFC000FFFC0
FFFC000FFFC0
FFFE000FFFC0
FFFE00000000
FFFE00000000
7FFF00000000
7FFF00000000
7FFF80000000
7FFF80000000
3FFFC0000000
3FFFE0000000
1FFFF0000000
1FFFF8000000
0FFFFC000000
0FFFFE000000
07FFFF000000
03FFFF800000
03FFFFC00000
01FFFFE00000
00FFFFF00000
007FFFF80000
003FFFFC0000
001FFFFE0000
000FFFFF0000
0007FFFF8000
0003FFFFC000
0001FFFFE000
0000FFFFF000
00007FFFF800
00003FFFF800
00001FFFFC00
00000FFFFC00
000007FFFE00
000003FFFE00
000001FFFF00
000000FFFF00
0000007FFF00
0000007FFF80
0000003FFF80
0000003FFF80
0000001FFF80
FFF8001FFF80
FFF8001FFFC0
FFF8001FFFC0
FFF8000FFFC0
FFF8000FFFC0
FFF8000FFFC0
FFF8000FFFC0
FFF8000FFFC0
FFF8000FFFC0
FFF8001FFFC0
FFFC001FFF80
FFFC001FFF80
FFFE003FFF80
7FFE007FFF80
7FFF80FFFF80
7FFFFFFFFF00
3FFFFFFFFF00
3FFFFFFFFE00
3FFFFFFFFE00
1FFFFFFFFC00
0FFFFFFFFC00
0FFFFFFFF800
07FFFFFFF000
03FFFFFFE000
00FFFFFFC000
007FFFFF0000
001FFFFC0000
0001FFC00000
ENDCHAR
STARTCHAR T
ENCODING 84
SWIDTH 364 0
DWIDTH 47 0
BBX 43 90 2 0
BITMAP
FFFFFFFFFFE0
FFFFFFFFFFE0
FFFFFFFFFFE0
FFFFFFFFFFE0
FFFFFFFFFFE0
FFFFFFFFFFE0
FFFFFFFFFFE0
FFFFFFFFFFE0
FFFFFFFFFFE0
FFFFFFFFFFE0
FFFFFFFFFFE0
FFFFFFFFFFE0
FFFFFFFFFFE0
0003FFF00000
0003FFF00000
0003FFF00000
0003FFF00000
0003FFF00000
0003FFF00000
0003FFF00000
0003FFF00000
0003FFF00000
0003FFF00000
0003FFF00000
0003FFF00000
0003FFF00000
0003FFF00000
0003FFF00000
0003FFF00000
0003FFF00000
0003FFF00000
0003FFF00000
0003FFF00000
0003FFF00000
0003FFF00000
0003FFF00000
0003FFF00000
0003FFF00000
0003FFF00000
0003FFF00000
0003FFF00000
0003FFF00000
0003FFF00000
0003FFF00000
0003FFF00000
0003FFF00000
0003FFF00000
0003FFF00000
0003FFF00000
0003FFF00000
0003FFF00000
0003FFF00000
0003FFF00000
0003FFF00000
0003FFF00000
0003FFF00000
0003FFF00000
0003FFF00000
0003FFF00000
0003FFF00000
0003FFF00000
0003FFF00000
0003FFF00000
0003FFF00000
0003FFF00000
0003FFF00000
0003FFF00000
0003FFF00000
0003FFF00000
0003FFF00000
0003FFF00000
0003FFF00000
0003FFF00000
0003FFF00000
0003FFF00000
0003FFF00000
0003FFF00000
0003FFF00000
0003FFF00000
0003FFF00000
0003FFF00000
0003FFF00000
0003FFF00000
0003FFF00000
0003FFF00000
0003FFF00000
0003FFF00000
0003FFF00000
0003FFF00000
0003FFF00000
ENDCHAR
STARTCHAR U
ENCODING 85
SWIDTH 402 0
DWIDTH 51 0
BBX 42 91 5 -1
BITMAP
FFFC000FFFC0
FFFC000FFFC0
FFFC000FFFC0
FFFC000FFFC0
FFFC000FFFC0
FFFC000FFFC0
FFFC000FFFC0
FFFC000FFFC0
FFFC000FFFC0
FFFC000FFFC0
FFFC000FFFC0
FFFC000FFFC0
FFFC000FFFC0
FFFC000FFFC0
FFFC000FFFC0
FFFC000FFFC0
FFFC000FFFC0
FFFC000FFFC0
FFFC000FFFC0
FFFC000FFFC0
FFFC000FFFC0
FFFC000FFFC0
FFFC000FFFC0
FFFC000FFFC0
FFFC000FFFC0
FFFC000FFFC0
FFFC000FFFC0
FFFC000FFFC0
FFFC000FFFC0
FFFC000FFFC0
FFFC000FFFC0
FFFC000FFFC0
FFFC000FFFC0
FFFC000FFFC0
FFFC000FFFC0
FFFC000FFFC0
FFFC000FFFC0
FFFC000FFFC0
FFFC000FFFC0
FFFC000FFFC0
FFFC000FFFC0
FFFC000FFFC0
FFFC000FFFC0
FFFC000FFFC0
FFFC000FFFC0
FFFC000FFFC0
FFFC000FFFC0
FFFC000FFFC0
FFFC000FFFC0
FFFC000FFFC0
FFFC000FFFC0
FFFC000FFFC0
FFFC000FFFC0
FFFC000FFFC0
FFFC000FFFC0
FFFC000FFFC0
FFFC000FFFC0
FFFC000FFFC0
FFFC000FFFC0
FFFC000FFFC0
FFFC000FFFC0
FFFC000FFFC0
FFFC000FFFC0
FFFC000FFFC0
FFFC000FFFC0
FFFC000FFFC0
FFFC000FFFC0
FFFC000FFFC0
FFFC000FFFC0
FFFC000FFFC0
FFFC000FFFC0
FFFC000FFFC0
FFFC000FFFC0
FFFC000FFF80
FFFE001FFF80
FFFE001FFF80
7FFF003FFF80
7FFFC0FFFF80
7FFFFFFFFF00
3FFFFFFFFF00
3FFFFFFFFE00
3FFFFFFFFE00
1FFFFFFFFC00
0FFFFFFFFC00
07FFFFFFF800
07FFFFFFF000
03FFFFFFE000
00FFFFFFC000
007FFFFF0000
000FFFFC0000
0001FFC00000
ENDCHAR
STARTCHAR V
ENCODING 86
SWIDTH 382 0
DWIDTH 49 0
BBX 45 90 2 0
BITMAP
FFFC0000FFF8
FFFC0000FFF8
FFFC0000FFF8
FFFC0000FFF8
FFFC0000FFF8
FFFC0000FFF8
7FFE0000FFF0
7FFE0001FFF0
7FFE0001FFF0
7FFE0001FFF0
7FFE0001FFF0
7FFE0001FFF0
7FFE0001FFE0
3FFF0001FFE0
3FFF0001FFE0
3FFF0003FFE0
3FFF0003FFE0
3FFF0003FFE0
3FFF0003FFE0
3FFF0003FFC0
1FFF0003FFC0
1FFF8003FFC0
1FFF8007FFC0
1FFF8007FFC0
1FFF8007FFC0
1FFF8007FFC0
0FFF8007FF80
0FFF8007FF80
0FFF8007FF80
0FFFC007FF80
0FFFC00FFF80
0FFFC00FFF80
0FFFC00FFF00
07FFC00FFF00
07FFC00FFF00
07FFC00FFF00
07FFE00FFF00
07FFE01FFF00
07FFE01FFF00
07FFE01FFE00
03FFE01FFE00
03FFE01FFE00
03FFE01FFE00
03FFE01FFE00
03FFF01FFE00
03FFF03FFE00
01FFF03FFC00
01FFF03FFC00
01FFF03FFC00
01FFF03FFC00
01FFF03FFC00
01FFF83FFC00
01FFF87FF800
00FFF87FF800
00FFF87FF800
00FFF87FF800
00FFF87FF800
00FFF87FF800
00FFF87FF800
007FFC7FF000
007FFCFFF000
007FFCFFF000
007FFCFFF000
007FFCFFF000
007FFCFFF000
007FFCFFF000
003FFEFFE000
003FFEFFE000
003FFFFFE000
003FFFFFE000
003FFFFFE000
003FFFFFE000
003FFFFFC000
001FFFFFC000
001FFFFFC000
001FFFFFC000
001FFFFFC000
001FFFFFC000
001FFFFFC000
000FFFFF8000
000FFFFF8000
000FFFFF8000
000FFFFF8000
000FFFFF8000
000FFFFF8000
000FFFFF0000
0007FFFF0000
0007FFFF0000
0007FFFF0000
0007FFFF0000
ENDCHAR
STARTCHAR W
ENCODING 87
SWIDTH 557 0
DWIDTH 71 0
BBX 67 90 2 0
BITMAP
FFFC001FFFC001FFE0
FFFC001FFFC001FFE0
FFFC003FFFC001FFE0
FFFC003FFFC001FFE0
FFFC003FFFC001FFE0
FFFC003FFFE001FFE0
7FFC003FFFE001FFE0
7FFC003FFFE001FFE0
7FFC003FFFE003FFE0
7FFC003FFFE003FFC0
7FFC003FFFE003FFC0
7FFE003FFFE003FFC0
7FFE007FFFE003FFC0
7FFE007FFFE003FFC0
7FFE007FFFE003FFC0
7FFE007FFFF003FFC0
3FFE007FFFF003FFC0
3FFE007FFFF003FFC0
3FFE007FFFF003FFC0
3FFE007FFFF007FF80
3FFE007FFFF007FF80
3FFE007FFFF007FF80
3FFF00FFFFF007FF80
3FFF00FFFFF007FF80
3FFF00FFFFF007FF80
1FFF00FFFFF007FF80
1FFF00FFFFF807FF80
1FFF00FFFFF807FF80
1FFF00FFFFF807FF80
1FFF00FFFFF807FF00
1FFF00FFFFF80FFF00
1FFF00FFDFF80FFF00
1FFF00FFDFF80FFF00
1FFF81FFDFF80FFF00
1FFF81FFDFF80FFF00
0FFF81FF9FF80FFF00
0FFF81FF9FFC0FFF00
0FFF81FF9FFC0FFF00
0FFF81FF9FFC0FFF00
0FFF81FF9FFC0FFE00
0FFF81FF8FFC0FFE00
0FFF81FF8FFC1FFE00
0FFF81FF8FFC1FFE00
0FFF83FF8FFC1FFE00
0FFFC3FF8FFC1FFE00
07FFC3FF0FFC1FFE00
07FFC3FF0FFC1FFE00
07FFC3FF0FFE1FFE00
07FFC3FF0FFE1FFC00
07FFC3FF0FFE1FFC00
07FFC3FF07FE1FFC00
07FFC3FF07FE1FFC00
07FFC3FF07FE3FFC00
07FFC3FF07FE3FFC00
07FFC7FE07FE3FFC00
03FFE7FE07FE3FFC00
03FFE7FE07FE3FFC00
03FFE7FE07FF3FFC00
03FFE7FE07FF3FF800
03FFE7FE03FF3FF800
03FFE7FE03FF3FF800
03FFE7FE03FF3FF800
03FFE7FE03FF3FF800
03FFE7FE03FF7FF800
03FFEFFC03FF7FF800
01FFEFFC03FF7FF800
01FFFFFC03FF7FF800
01FFFFFC03FFFFF800
01FFFFFC03FFFFF000
01FFFFFC01FFFFF000
01FFFFFC01FFFFF000
01FFFFFC01FFFFF000
01FFFFFC01FFFFF000
01FFFFF801FFFFF000
01FFFFF801FFFFF000
00FFFFF801FFFFF000
00FFFFF801FFFFF000
00FFFFF801FFFFF000
00FFFFF800FFFFE000
00FFFFF800FFFFE000
00FFFFF800FFFFE000
00FFFFF800FFFFE000
00FFFFF800FFFFE000
00FFFFF000FFFFE000
00FFFFF000FFFFE000
007FFFF000FFFFE000
007FFFF000FFFFE000
007FFFF000FFFFE000
007FFFF0007FFFC000
007FFFF0007FFFC000
ENDCHAR
STARTCHAR X
ENCODING 88
SWIDTH 406 0
DWIDTH 52 0
BBX 50 90 1 0
BITMAP
7FFF00001FFF80
3FFF80001FFF00
3FFF80001FFF00
3FFF80003FFF00
1FFF80003FFE00
1FFFC0003FFE00
1FFFC0007FFE00
0FFFC0007FFC00
0FFFE0007FFC00
07FFE000FFF800
07FFE000FFF800
07FFF000FFF800
03FFF001FFF000
03FFF001FFF000
03FFF801FFF000
01FFF803FFE000
01FFF803FFE000
01FFFC03FFE000
00FFFC07FFC000
00FFFC07FFC000
00FFFE07FFC000
007FFE0FFF8000
007FFE0FFF8000
007FFF0FFF8000
003FFF1FFF0000
003FFF1FFF0000
003FFF9FFF0000
001FFFBFFE0000
001FFFBFFE0000
000FFFFFFC0000
000FFFFFFC0000
000FFFFFFC0000
0007FFFFF80000
0007FFFFF80000
0007FFFFF80000
0003FFFFF00000
0003FFFFF00000
0003FFFFF00000
0001FFFFE00000
0001FFFFE00000
0001FFFFE00000
0000FFFFC00000
0000FFFFC00000
0000FFFFC00000
0000FFFF800000
0000FFFFC00000
0000FFFFC00000
0001FFFFE00000
0001FFFFE00000
0001FFFFE00000
0003FFFFF00000
0003FFFFF00000
0003FFFFF00000
0007FFFFF80000
0007FFFFF80000
0007FFFFF80000
000FFFFFFC0000
000FFFFFFC0000
000FFFFFFC0000
001FFF7FFE0000
001FFF7FFE0000
003FFE7FFE0000
003FFE3FFF0000
003FFE3FFF0000
007FFC3FFF8000
007FFC1FFF8000
007FFC1FFF8000
00FFF81FFFC000
00FFF80FFFC000
00FFF80FFFC000
01FFF00FFFE000
01FFF007FFE000
01FFF007FFE000
03FFE007FFF000
03FFE003FFF000
03FFE003FFF000
07FFC003FFF800
07FFC001FFF800
0FFFC001FFF800
0FFF8001FFFC00
0FFF8000FFFC00
1FFF8000FFFE00
1FFF0000FFFE00
1FFF00007FFE00
3FFF00007FFF00
3FFE00007FFF00
3FFE00003FFF00
7FFE00003FFF80
7FFC00003FFF80
FFFC00001FFFC0
ENDCHAR
STARTCHAR Y
ENCODING 89
SWIDTH 394 0
DWIDTH 50 0
BBX 48 90 1 0
BITMAP
FFFE00003FFF
7FFF00003FFF
7FFF00003FFE
7FFF00003FFE
3FFF00007FFE
3FFF80007FFC
3FFF80007FFC
1FFF8000FFFC
1FFFC000FFF8
1FFFC000FFF8
0FFFC000FFF8
0FFFC001FFF8
0FFFE001FFF0
07FFE001FFF0
07FFE003FFF0
07FFF003FFE0
03FFF003FFE0
03FFF003FFE0
03FFF007FFC0
01FFF807FFC0
01FFF807FFC0
01FFF80FFF80
00FFFC0FFF80
00FFFC0FFF80
00FFFC1FFF00
007FFE1FFF00
007FFE1FFF00
007FFE1FFE00
003FFE3FFE00
003FFF3FFE00
003FFF3FFC00
003FFF7FFC00
001FFFFFFC00
001FFFFFF800
001FFFFFF800
000FFFFFF800
000FFFFFF000
000FFFFFF000
0007FFFFF000
0007FFFFE000
0007FFFFE000
0003FFFFE000
0003FFFFC000
0003FFFFC000
0001FFFFC000
0001FFFF8000
0001FFFF8000
0000FFFF8000
0000FFFF0000
0000FFFF0000
00007FFF0000
00007FFE0000
00007FFE0000
00007FFE0000
00007FFE0000
00007FFE0000
00007FFE0000
00007FFE0000
00007FFE0000
00007FFE0000
00007FFE0000
00007FFE0000
00007FFE0000
00007FFE0000
00007FFE0000
00007FFE0000
00007FFE0000
00007FFE0000
00007FFE0000
00007FFE0000
00007FFE0000
00007FFE0000
00007FFE0000
00007FFE0000
00007FFE0000
00007FFE0000
00007FFE0000
00007FFE0000
00007FFE0000
00007FFE0000
00007FFE0000
00007FFE0000
00007FFE0000
00007FFE0000
00007FFE0000
00007FFE0000
00007FFE0000
00007FFE0000
00007FFE0000
00007FFE0000
ENDCHAR
STARTCHAR Z
ENCODING 90
SWIDTH 362 0
DWIDTH 46 0
BBX 42 90 2 0
BITMAP
3FFFFFFFFFC0
3FFFFFFFFFC0
3FFFFFFFFFC0
3FFFFFFFFFC0
3FFFFFFFFFC0
3FFFFFFFFFC0
3FFFFFFFFFC0
3FFFFFFFFFC0
3FFFFFFFFFC0
3FFFFFFFFFC0
3FFFFFFFFFC0
3FFFFFFFFFC0
3FFFFFFFFFC0
0000003FFF80
0000003FFF80
0000007FFF00
0000007FFF00
0000007FFF00
000000FFFE00
000000FFFE00
000001FFFC00
000001FFFC00
000001FFFC00
000003FFF800
000003FFF800
000007FFF000
000007FFF000
000007FFF000
00000FFFE000
00000FFFE000
00001FFFC000
00001FFFC000
00001FFFC000
00003FFF8000
00003FFF8000
00007FFF0000
00007FFF0000
00007FFF0000
0000FFFE0000
0000FFFE0000
0001FFFC0000
0001FFFC0000
0001FFFC0000
0003FFF80000
0003FFF80000
0007FFF00000
0007FFF00000
0007FFF00000
000FFFE00000
000FFFE00000
001FFFC00000
001FFFC00000
003FFFC00000
003FFF800000
003FFF800000
007FFF000000
007FFF000000
00FFFE000000
00FFFE000000
00FFFE000000
01FFFC000000
01FFFC000000
03FFF8000000
03FFF8000000
03FFF8000000
07FFF0000000
07FFF0000000
0FFFE0000000
0FFFE0000000
0FFFE0000000
1FFFC0000000
1FFFC0000000
3FFF80000000
3FFF80000000
3FFF80000000
7FFF00000000
7FFF00000000
FFFFFFFFFFC0
FFFFFFFFFFC0
FFFFFFFFFFC0
FFFFFFFFFFC0
FFFFFFFFFFC0
FFFFFFFFFFC0
FFFFFFFFFFC0
FFFFFFFFFFC0
FFFFFFFFFFC0
FFFFFFFFFFC0
FFFFFFFFFFC0
FFFFFFFFFFC0
FFFFFFFFFFC0
ENDCHAR
STARTCHAR bracketleft
ENCODING 91
SWIDTH 276 0
DWIDTH 35 0
BBX 23 103 8 -6
BITMAP
FFFFFE
FFFFFE
FFFFFE
FFFFFE
FFFFFE
FFFFFE
FFFFFE
FFFFFE
FFFFFE
FFFFFE
FFFFFE
FFFFFE
FFFC00
FFFC00
FFFC00
FFFC00
FFFC00
FFFC00
FFFC00
FFFC00
FFFC00
FFFC00
FFFC00
FFFC00
FFFC00
FFFC00
FFFC00
FFFC00
FFFC00
FFFC00
FFFC00
FFFC00
FFFC00
FFFC00
FFFC00
FFFC00
FFFC00
FFFC00
FFFC00
FFFC00
FFFC00
FFFC00
FFFC00
FFFC00
FFFC00
FFFC00
FFFC00
FFFC00
FFFC00
FFFC00
FFFC00
FFFC00
FFFC00
FFFC00
FFFC00
FFFC00
FFFC00
FFFC00
FFFC00
FFFC00
FFFC00
FFFC00
FFFC00
FFFC00
FFFC00
FFFC00
FFFC00
FFFC00
FFFC00
FFFC00
FFFC00
FFFC00
FFFC00
FFFC00
FFFC00
FFFC00
FFFC00
FFFC00
FFFC00
FFFC00
FFFC00
FFFC00
FFFC00
FFFC00
FFFC00
FFFC00
FFFC00
FFFC00
FFFC00
FFFC00
FFFC00
FFFFFE
FFFFFE
FFFFFE
FFFFFE
FFFFFE
FFFFFE
FFFFFE
FFFFFE
FFFFFE
FFFFFE
FFFFFE
FFFFFE
ENDCHAR
STARTCHAR backslash
ENCODING 92
SWIDTH 389 0
DWIDTH 50 0
BBX 48 90 1 0
BITMAP
FFF800000000
7FF800000000
7FF800000000
3FFC00000000
3FFC00000000
3FFC00000000
1FFE00000000
1FFE00000000
1FFF00000000
0FFF00000000
0FFF00000000
07FF80000000
07FF80000000
07FFC0000000
03FFC0000000
03FFC0000000
01FFE0000000
01FFE0000000
01FFF0000000
00FFF0000000
00FFF0000000
007FF8000000
007FF8000000
007FFC000000
003FFC000000
003FFC000000
001FFE000000
001FFE000000
001FFF000000
000FFF000000
000FFF000000
0007FF800000
0007FF800000
0007FF800000
0003FFC00000
0003FFC00000
0003FFE00000
0001FFE00000
0001FFE00000
0000FFF00000
0000FFF00000
0000FFF80000
00007FF80000
00007FF80000
00003FFC0000
00003FFC0000
00003FFE0000
00001FFE0000
00001FFE0000
00000FFF0000
00000FFF0000
00000FFF8000
000007FF8000
000007FF8000
000003FFC000
000003FFC000
000003FFC000
000001FFE000
000001FFE000
000000FFF000
000000FFF000
000000FFF000
0000007FF800
0000007FF800
0000007FFC00
0000003FFC00
0000003FFC00
0000001FFE00
0000001FFE00
0000001FFF00
0000000FFF00
0000000FFF00
00000007FF80
00000007FF80
00000007FFC0
00000003FFC0
00000003FFC0
00000001FFE0
00000001FFE0
00000001FFF0
00000000FFF0
00000000FFF0
000000007FF8
000000007FF8
000000007FF8
000000003FFC
000000003FFC
000000003FFE
000000001FFE
000000001FFF
ENDCHAR
STARTCHAR bracketright
ENCODING 93
SWIDTH 276 0
DWIDTH 35 0
BBX 24 103 4 -6
BITMAP
FFFFFF
FFFFFF
FFFFFF
FFFFFF
FFFFFF
FFFFFF
FFFFFF
FFFFFF
FFFFFF
FFFFFF
FFFFFF
FFFFFF
003FFF
003FFF
003FFF
003FFF
003FFF
003FFF
003FFF
003FFF
003FFF
003FFF
003FFF
003FFF
003FFF
003FFF
003FFF
003FFF
003FFF
003FFF
003FFF
003FFF
003FFF
003FFF
003FFF
003FFF
003FFF
003FFF
003FFF
003FFF
003FFF
003FFF
003FFF
003FFF
003FFF
003FFF
003FFF
003FFF
003FFF
003FFF
003FFF
003FFF
003FFF
003FFF
003FFF
003FFF
003FFF
003FFF
003FFF
003FFF
003FFF
003FFF
003FFF
003FFF
003FFF
003FFF
003FFF
003FFF
003FFF
003FFF
003FFF
003FFF
003FFF
003FFF
003FFF
003FFF
003FFF
003FFF
003FFF
003FFF
003FFF
003FFF
003FFF
003FFF
003FFF
003FFF
003FFF
003FFF
003FFF
003FFF
003FFF
FFFFFF
FFFFFF
FFFFFF
FFFFFF
FFFFFF
FFFFFF
FFFFFF
FFFFFF
FFFFFF
FFFFFF
FFFFFF
FFFFFF
ENDCHAR
STARTCHAR asciicircum
ENCODING 94
SWIDTH 400 0
DWIDTH 51 0
BBX 47 35 2 55
BITMAP
00001FF00000
00003FF80000
00003FF80000
00007FFC0000
00007FFC0000
0000FFFE0000
0000FFFE0000
0001FFFF0000
0003FFFF0000
0003FFFF8000
0007FFFFC000
0007FFFFC000
000FFFFFE000
000FFFFFE000
001FFEFFF000
001FFC7FF000
003FFC7FF800
003FF83FF800
007FF83FFC00
007FF01FFC00
00FFF01FFE00
00FFE00FFE00
01FFE00FFF00
01FFC007FF00
03FFC007FF80
07FF8003FF80
07FF8003FFC0
0FFF0001FFE0
0FFE0001FFE0
1FFE0000FFF0
1FFC00007FF0
3FFC00007FF8
3FF800003FF8
7FF800003FFC
FFF000001FFE
ENDCHAR
STARTCHAR underscore
ENCODING 95
SWIDTH 300 0
DWIDTH 38 0
BBX 38 10 0 -11
BITMAP
FFFFFFFFFC
FFFFFFFFFC
FFFFFFFFFC
FFFFFFFFFC
FFFFFFFFFC
FFFFFFFFFC
FFFFFFFFFC
FFFFFFFFFC
FFFFFFFFFC
FFFFFFFFFC
ENDCHAR
STARTCHAR grave
ENCODING 96
SWIDTH 500 0
DWIDTH 64 0
BBX 25 15 15 96
BITMAP
FFFF0000
3FFF8000
1FFF8000
0FFFC000
0FFFC000
07FFE000
03FFF000
01FFF000
00FFF800
007FF800
003FFC00
001FFE00
000FFE00
0007FF00
0003FF80
ENDCHAR
STARTCHAR a
ENCODING 97
SWIDTH 401 0
DWIDTH 51 0
BBX 48 90 2 0
BITMAP
0003FFFF8000
0003FFFF8000
0003FFFFC000
0003FFFFC000
0007FFFFC000
0007FFFFC000
0007FFFFC000
0007FFFFC000
0007FFFFE000
0007FFFFE000
000FFFFFE000
000FFFFFE000
000FFFFFE000
000FFFFFE000
000FFFFFF000
000FFFFFF000
001FFFFFF000
001FFFFFF000
001FFEFFF000
001FFCFFF000
001FFCFFF800
001FFCFFF800
003FFCFFF800
003FFCFFF800
003FFCFFF800
003FFC7FF800
003FF87FF800
003FF87FFC00
007FF87FFC00
007FF87FFC00
007FF87FFC00
007FF87FFC00
007FF83FFC00
007FF83FFE00
007FF03FFE00
00FFF03FFE00
00FFF03FFE00
00FFF03FFE00
00FFF03FFE00
00FFF01FFF00
00FFF01FFF00
01FFE01FFF00
01FFE01FFF00
01FFE01FFF00
01FFE01FFF00
01FFE01FFF80
01FFE00FFF80
03FFE00FFF80
03FFC00FFF80
03FFC00FFF80
03FFC00FFF80
03FFC00FFFC0
03FFC00FFFC0
07FFC007FFC0
07FFC007FFC0
07FF8007FFC0
07FF8007FFC0
07FF8007FFE0
07FF8007FFE0
0FFF8007FFE0
0FFFFFFFFFE0
0FFFFFFFFFE0
0FFFFFFFFFE0
0FFFFFFFFFE0
0FFFFFFFFFF0
1FFFFFFFFFF0
1FFFFFFFFFF0
1FFFFFFFFFF0
1FFFFFFFFFF0
1FFFFFFFFFF0
1FFFFFFFFFF8
1FFFFFFFFFF8
3FFE0001FFF8
3FFE0001FFF8
3FFE0000FFF8
3FFE0000FFF8
3FFE0000FFFC
3FFC0000FFFC
7FFC0000FFFC
7FFC0000FFFC
7FFC0000FFFC
7FFC00007FFC
7FFC00007FFE
7FFC00007FFE
FFF800007FFE
FFF800007FFE
FFF800007FFE
FFF800007FFE
FFF800007FFF
FFF800003FFF
ENDCHAR
STARTCHAR b
ENCODING 98
SWIDTH 404 0
DWIDTH 52 0
BBX 44 90 5 0
BITMAP
FFFFFFF00000
FFFFFFFF0000
FFFFFFFFC000
FFFFFFFFE000
FFFFFFFFF800
FFFFFFFFFC00
FFFFFFFFFE00
FFFFFFFFFE00
FFFFFFFFFF00
FFFFFFFFFF00
FFFFFFFFFF80
FFFFFFFFFF80
FFFFFFFFFF80
FFFC007FFFC0
FFFC003FFFC0
FFFC001FFFC0
FFFC001FFFC0
FFFC000FFFC0
FFFC000FFFC0
FFFC000FFFC0
FFFC000FFFC0
FFFC000FFFC0
FFFC000FFFC0
FFFC000FFFC0
FFFC000FFFC0
FFFC000FFFC0
FFFC000FFFC0
FFFC000FFFC0
FFFC000FFFC0
FFFC000FFFC0
FFFC000FFFC0
FFFC000FFFC0
FFFC001FFF80
FFFC001FFF80
FFFC003FFF80
FFFC007FFF00
FFFC01FFFF00
FFFFFFFFFE00
FFFFFFFFFC00
FFFFFFFFFC00
FFFFFFFFF000
FFFFFFFFE000
FFFFFFFF8000
FFFFFFFFE000
FFFFFFFFF800
FFFFFFFFFC00
FFFFFFFFFE00
FFFFFFFFFF00
FFFFFFFFFF80
FFFFFFFFFF80
FFFC007FFFC0
FFFC001FFFC0
FFFC000FFFE0
FFFC000FFFE0
FFFC0007FFE0
FFFC0007FFE0
FFFC0007FFE0
FFFC0007FFF0
FFFC0003FFF0
FFFC0003FFF0
FFFC0003FFF0
FFFC0003FFF0
FFFC0003FFF0
FFFC0003FFF0
FFFC0003FFF0
FFFC0003FFF0
FFFC0003FFF0
FFFC0003FFF0
FFFC0003FFF0
FFFC0003FFF0
FFFC0003FFF0
FFFC0007FFF0
FFFC0007FFF0
FFFC0007FFE0
FFFC000FFFE0
FFFC000FFFE0
FFFC003FFFE0
FFFFFFFFFFE0
FFFFFFFFFFC0
FFFFFFFFFFC0
FFFFFFFFFF80
FFFFFFFFFF80
FFFFFFFFFF00
FFFFFFFFFE00
FFFFFFFFFC00
FFFFFFFFF800
FFFFFFFFF000
FFFFFFFFC000
FFFFFFFF0000
FFFFFFF00000
ENDCHAR
STARTCHAR c
ENCODING 99
SWIDTH 383 0
DWIDTH 49 0
BBX 42 92 4 -1
BITMAP
0000FFE00000
000FFFFC0000
003FFFFF0000
00FFFFFFC000
01FFFFFFE000
03FFFFFFF000
07FFFFFFF800
0FFFFFFFFC00
0FFFFFFFFE00
1FFFFFFFFE00
3FFFFFFFFF00
3FFFFFFFFF00
3FFFFFFFFF00
7FFFC07FFF80
7FFF803FFF80
7FFF001FFF80
7FFE000FFF80
7FFE000FFFC0
FFFE000FFFC0
FFFE000FFFC0
FFFC000FFFC0
FFFC0007FFC0
FFFC0007FFC0
FFFC0007FFC0
FFFC0007FFC0
FFFC0007FFC0
FFFC0007FFC0
FFFC0007FFC0
FFFC0007FFC0
FFFC0007FFC0
FFFC0007FFC0
FFFC00000000
FFFC00000000
FFFC00000000
FFFC00000000
FFFC00000000
FFFC00000000
FFFC00000000
FFFC00000000
FFFC00000000
FFFC00000000
FFFC00000000
FFFC00000000
FFFC00000000
FFFC00000000
FFFC00000000
FFFC00000000
FFFC00000000
FFFC00000000
FFFC00000000
FFFC00000000
FFFC00000000
FFFC00000000
FFFC00000000
FFFC00000000
FFFC00000000
FFFC00000000
FFFC0007FFC0
FFFC0007FFC0
FFFC0007FFC0
FFFC0007FFC0
FFFC0007FFC0
FFFC0007FFC0
FFFC0007FFC0
FFFC0007FFC0
FFFC0007FFC0
FFFC0007FFC0
FFFC0007FFC0
FFFC0007FFC0
FFFC0007FFC0
FFFC0007FFC0
FFFC000FFFC0
FFFC000FFFC0
FFFE000FFFC0
7FFE000FFFC0
7FFE000FFF80
7FFF001FFF80
7FFF803FFF80
7FFFC07FFF80
3FFFFFFFFF00
3FFFFFFFFF00
3FFFFFFFFF00
1FFFFFFFFE00
0FFFFFFFFE00
0FFFFFFFFC00
07FFFFFFF800
03FFFFFFF000
01FFFFFFE000
00FFFFFFC000
003FFFFF0000
000FFFFC0000
0000FFE00000
ENDCHAR
STARTCHAR d
ENCODING 100
SWIDTH 406 0
DWIDTH 52 0
BBX 43 90 5 0
BITMAP
FFFFFFE00000
FFFFFFFE0000
FFFFFFFF8000
FFFFFFFFE000
FFFFFFFFF000
FFFFFFFFF800
FFFFFFFFFC00
FFFFFFFFFE00
FFFFFFFFFF00
FFFFFFFFFF00
FFFFFFFFFF80
FFFFFFFFFF80
FFFFFFFFFF80
FFFC007FFFC0
FFFC003FFFC0
FFFC001FFFC0
FFFC000FFFC0
FFFC000FFFC0
FFFC000FFFE0
FFFC0007FFE0
FFFC0007FFE0
FFFC0007FFE0
FFFC0007FFE0
FFFC0007FFE0
FFFC0007FFE0
FFFC0007FFE0
FFFC0007FFE0
FFFC0007FFE0
FFFC0007FFE0
FFFC0007FFE0
FFFC0007FFE0
FFFC0007FFE0
FFFC0007FFE0
FFFC0007FFE0
FFFC0007FFE0
FFFC0007FFE0
FFFC0007FFE0
FFFC0007FFE0
FFFC0007FFE0
FFFC0007FFE0
FFFC0007FFE0
FFFC0007FFE0
FFFC0007FFE0
FFFC0007FFE0
FFFC0007FFE0
FFFC0007FFE0
FFFC0007FFE0
FFFC0007FFE0
FFFC0007FFE0
FFFC0007FFE0
FFFC0007FFE0
FFFC0007FFE0
FFFC0007FFE0
FFFC0007FFE0
FFFC0007FFE0
FFFC0007FFE0
FFFC0007FFE0
FFFC0007FFE0
FFFC0007FFE0
FFFC0007FFE0
FFFC0007FFE0
FFFC0007FFE0
FFFC0007FFE0
FFFC0007FFE0
FFFC0007FFE0
FFFC0007FFE0
FFFC0007FFE0
FFFC0007FFE0
FFFC0007FFE0
FFFC0007FFE0
FFFC0007FFE0
FFFC000FFFE0
FFFC000FFFC0
FFFC000FFFC0
FFFC001FFFC0
FFFC003FFFC0
FFFC007FFFC0
FFFFFFFFFF80
FFFFFFFFFF80
FFFFFFFFFF80
FFFFFFFFFF00
FFFFFFFFFF00
FFFFFFFFFE00
FFFFFFFFFC00
FFFFFFFFF800
FFFFFFFFF000
FFFFFFFFE000
FFFFFFFF8000
FFFFFFFE0000
FFFFFFE00000
ENDCHAR
STARTCHAR e
ENCODING 101
SWIDTH 363 0
DWIDTH 46 0
BBX 39 90 5 0
BITMAP
FFFFFFFFFE
FFFFFFFFFE
FFFFFFFFFE
FFFFFFFFFE
FFFFFFFFFE
FFFFFFFFFE
FFFFFFFFFE
FFFFFFFFFE
FFFFFFFFFE
FFFFFFFFFE
FFFFFFFFFE
FFFFFFFFFE
FFFFFFFFFE
FFFC000000
FFFC000000
FFFC000000
FFFC000000
FFFC000000
FFFC000000
FFFC000000
FFFC000000
FFFC000000
FFFC000000
FFFC000000
FFFC000000
FFFC000000
FFFC000000
FFFC000000
FFFC000000
FFFC000000
FFFC000000
FFFC000000
FFFC000000
FFFC000000
FFFC000000
FFFC000000
FFFC000000
FFFFFFFFC0
FFFFFFFFC0
FFFFFFFFC0
FFFFFFFFC0
FFFFFFFFC0
FFFFFFFFC0
FFFFFFFFC0
FFFFFFFFC0
FFFFFFFFC0
FFFFFFFFC0
FFFFFFFFC0
FFFFFFFFC0
FFFFFFFFC0
FFFC000000
FFFC000000
FFFC000000
FFFC000000
FFFC000000
FFFC000000
FFFC000000
FFFC000000
FFFC000000
FFFC000000
FFFC000000
FFFC000000
FFFC000000
FFFC000000
FFFC000000
FFFC000000
FFFC000000
FFFC000000
FFFC000000
FFFC000000
FFFC000000
FFFC000000
FFFC000000
FFFC000000
FFFC000000
FFFC000000
FFFC000000
FFFFFFFFFE
FFFFFFFFFE
FFFFFFFFFE
FFFFFFFFFE
FFFFFFFFFE
FFFFFFFFFE
FFFFFFFFFE
FFFFFFFFFE
FFFFFFFFFE
FFFFFFFFFE
FFFFFFFFFE
FFFFFFFFFE
FFFFFFFFFE
ENDCHAR
STARTCHAR f
ENCODING 102
SWIDTH 344 0
DWIDTH 44 0
BBX 38 90 5 0
BITMAP
FFFFFFFFFC
FFFFFFFFFC
FFFFFFFFFC
FFFFFFFFFC
FFFFFFFFFC
FFFFFFFFFC
FFFFFFFFFC
FFFFFFFFFC
FFFFFFFFFC
FFFFFFFFFC
FFFFFFFFFC
FFFFFFFFFC
FFFFFFFFFC
FFFC000000
FFFC000000
FFFC000000
FFFC000000
FFFC000000
FFFC000000
FFFC000000
FFFC000000
FFFC000000
FFFC000000
FFFC000000
FFFC000000
FFFC000000
FFFC000000
FFFC000000
FFFC000000
FFFC000000
FFFC000000
FFFC000000
FFFC000000
FFFC000000
FFFC000000
FFFC000000
FFFC000000
FFFC000000
FFFFFFFF80
FFFFFFFF80
FFFFFFFF80
FFFFFFFF80
FFFFFFFF80
FFFFFFFF80
FFFFFFFF80
FFFFFFFF80
FFFFFFFF80
FFFFFFFF80
FFFFFFFF80
FFFFFFFF80
FFFFFFFF80
FFFC000000
FFFC000000
FFFC000000
FFFC000000
FFFC000000
FFFC000000
FFFC000000
FFFC000000
FFFC000000
FFFC000000
FFFC000000
FFFC000000
FFFC000000
FFFC000000
FFFC000000
FFFC000000
FFFC000000
FFFC000000
FFFC000000
FFFC000000
FFFC000000
FFFC000000
FFFC000000
FFFC000000
FFFC000000
FFFC000000
FFFC000000
FFFC000000
FFFC000000
FFFC000000
FFFC000000
FFFC000000
FFFC000000
FFFC000000
FFFC000000
FFFC000000
FFFC000000
FFFC000000
FFFC000000
ENDCHAR
STARTCHAR g
ENCODING 103
SWIDTH 391 0
DWIDTH 50 0
BBX 42 92 4 -1
BITMAP
0000FFE00000
000FFFFC0000
003FFFFF8000
00FFFFFFC000
01FFFFFFE000
03FFFFFFF800
07FFFFFFF800
0FFFFFFFFC00
0FFFFFFFFE00
1FFFFFFFFE00
3FFFFFFFFF00
3FFFFFFFFF00
3FFFFFFFFF80
7FFFC07FFF80
7FFF801FFF80
7FFF001FFFC0
7FFE000FFFC0
7FFE000FFFC0
FFFE0007FFC0
FFFC0007FFC0
FFFC0007FFC0
FFFC0007FFC0
FFFC0007FFC0
FFFC0007FFC0
FFFC0007FFC0
FFFC0007FFC0
FFFC0007FFC0
FFFC0007FFC0
FFFC0007FFC0
FFFC0007FFC0
FFFC00000000
FFFC00000000
FFFC00000000
FFFC00000000
FFFC00000000
FFFC00000000
FFFC00000000
FFFC00000000
FFFC00000000
FFFC00000000
FFFC03FFFFC0
FFFC03FFFFC0
FFFC03FFFFC0
FFFC03FFFFC0
FFFC03FFFFC0
FFFC03FFFFC0
FFFC03FFFFC0
FFFC03FFFFC0
FFFC03FFFFC0
FFFC03FFFFC0
FFFC03FFFFC0
FFFC03FFFFC0
FFFC03FFFFC0
FFFC0007FFC0
FFFC0007FFC0
FFFC0007FFC0
FFFC0007FFC0
FFFC0007FFC0
FFFC0007FFC0
FFFC0007FFC0
FFFC0007FFC0
FFFC0007FFC0
FFFC0007FFC0
FFFC0007FFC0
FFFC0007FFC0
FFFC0007FFC0
FFFC0007FFC0
FFFC0007FFC0
FFFC0007FFC0
FFFC0007FFC0
FFFC0007FFC0
FFFC0007FFC0
FFFC0007FFC0
FFFE0007FFC0
7FFE000FFFC0
7FFE000FFFC0
7FFF001FFFC0
7FFF801FFF80
7FFFC07FFF80
3FFFFFFFFF80
3FFFFFFFFF00
3FFFFFFFFF00
1FFFFFFFFE00
0FFFFFFFFE00
0FFFFFFFFC00
07FFFFFFF800
03FFFFFFF800
01FFFFFFE000
00FFFFFFC000
003FFFFF8000
000FFFFC0000
0001FFE00000
ENDCHAR
STARTCHAR h
ENCODING 104
SWIDTH 420 0
DWIDTH 54 0
BBX 44 90 5 0
BITMAP
FFFC0007FFF0
FFFC0007FFF0
FFFC0007FFF0
FFFC0007FFF0
FFFC0007FFF0
FFFC0007FFF0
FFFC0007FFF0
FFFC0007FFF0
FFFC0007FFF0
FFFC0007FFF0
FFFC0007FFF0
FFFC0007FFF0
FFFC0007FFF0
FFFC0007FFF0
FFFC0007FFF0
FFFC0007FFF0
FFFC0007FFF0
FFFC0007FFF0
FFFC0007FFF0
FFFC0007FFF0
FFFC0007FFF0
FFFC0007FFF0
FFFC0007FFF0
FFFC0007FFF0
FFFC0007FFF0
FFFC0007FFF0
FFFC0007FFF0
FFFC0007FFF0
FFFC0007FFF0
FFFC0007FFF0
FFFC0007FFF0
FFFC0007FFF0
FFFC0007FFF0
FFFC0007FFF0
FFFC0007FFF0
FFFC0007FFF0
FFFC0007FFF0
FFFFFFFFFFF0
FFFFFFFFFFF0
FFFFFFFFFFF0
FFFFFFFFFFF0
FFFFFFFFFFF0
FFFFFFFFFFF0
FFFFFFFFFFF0
FFFFFFFFFFF0
FFFFFFFFFFF0
FFFFFFFFFFF0
FFFFFFFFFFF0
FFFFFFFFFFF0
FFFFFFFFFFF0
FFFC0007FFF0
FFFC0007FFF0
FFFC0007FFF0
FFFC0007FFF0
FFFC0007FFF0
FFFC0007FFF0
FFFC0007FFF0
FFFC0007FFF0
FFFC0007FFF0
FFFC0007FFF0
FFFC0007FFF0
FFFC0007FFF0
FFFC0007FFF0
FFFC0007FFF0
FFFC0007FFF0
FFFC0007FFF0
FFFC0007FFF0
FFFC0007FFF0
FFFC0007FFF0
FFFC0007FFF0
FFFC0007FFF0
FFFC0007FFF0
FFFC0007FFF0
FFFC0007FFF0
FFFC0007FFF0
FFFC0007FFF0
FFFC0007FFF0
FFFC0007FFF0
FFFC0007FFF0
FFFC0007FFF0
FFFC0007FFF0
FFFC0007FFF0
FFFC0007FFF0
FFFC0007FFF0
FFFC0007FFF0
FFFC0007FFF0
FFFC0007FFF0
FFFC0007FFF0
FFFC0007FFF0
FFFC0007FFF0
ENDCHAR
STARTCHAR i
ENCODING 105
SWIDTH 192 0
DWIDTH 25 0
BBX 14 90 5 0
BITMAP
FFFC
FFFC
FFFC
FFFC
FFFC
FFFC
FFFC
FFFC
FFFC
FFFC
FFFC
FFFC
FFFC
FFFC
FFFC
FFFC
FFFC
FFFC
FFFC
FFFC
FFFC
FFFC
FFFC
FFFC
FFFC
FFFC
FFFC
FFFC
FFFC
FFFC
FFFC
FFFC
FFFC
FFFC
FFFC
FFFC
FFFC
FFFC
FFFC
FFFC
FFFC
FFFC
FFFC
FFFC
FFFC
FFFC
FFFC
FFFC
FFFC
FFFC
FFFC
FFFC
FFFC
FFFC
FFFC
FFFC
FFFC
FFFC
FFFC
FFFC
FFFC
FFFC
FFFC
FFFC
FFFC
FFFC
FFFC
FFFC
FFFC
FFFC
FFFC
FFFC
FFFC
FFFC
FFFC
FFFC
FFFC
FFFC
FFFC
FFFC
FFFC
FFFC
FFFC
FFFC
FFFC
FFFC
FFFC
FFFC
FFFC
FFFC
ENDCHAR
STARTCHAR j
ENCODING 106
SWIDTH 265 0
DWIDTH 34 0
BBX 27 90 2 0
BITMAP
0007FFE0
0007FFE0
0007FFE0
0007FFE0
0007FFE0
0007FFE0
0007FFE0
0007FFE0
0007FFE0
0007FFE0
0007FFE0
0007FFE0
0007FFE0
0007FFE0
0007FFE0
0007FFE0
0007FFE0
0007FFE0
0007FFE0
0007FFE0
0007FFE0
0007FFE0
0007FFE0
0007FFE0
0007FFE0
0007FFE0
0007FFE0
0007FFE0
0007FFE0
0007FFE0
0007FFE0
0007FFE0
0007FFE0
0007FFE0
0007FFE0
0007FFE0
0007FFE0
0007FFE0
0007FFE0
0007FFE0
0007FFE0
0007FFE0
0007FFE0
0007FFE0
0007FFE0
0007FFE0
0007FFE0
0007FFE0
0007FFE0
0007FFE0
0007FFE0
0007FFE0
0007FFE0
0007FFE0
0007FFE0
0007FFE0
0007FFE0
0007FFE0
0007FFE0
0007FFE0
0007FFE0
0007FFE0
0007FFE0
0007FFE0
0007FFE0
0007FFE0
0007FFE0
0007FFE0
0007FFE0
0007FFE0
0007FFE0
0007FFE0
000FFFE0
000FFFE0
001FFFE0
003FFFC0
007FFFC0
FFFFFFC0
FFFFFFC0
FFFFFF80
FFFFFF80
FFFFFF00
FFFFFF00
FFFFFE00
FFFFFC00
FFFFF800
FFFFF000
FFFFC000
FFFF0000
FFF80000
ENDCHAR
STARTCHAR k
ENCODING 107
SWIDTH 414 0
DWIDTH 53 0
BBX 47 90 5 0
BITMAP
FFFC0000FFFC
FFFC0000FFFC
FFFC0001FFF8
FFFC0001FFF8
FFFC0003FFF0
FFFC0003FFF0
FFFC0007FFE0
FFFC0007FFE0
FFFC000FFFC0
FFFC000FFFC0
FFFC001FFF80
FFFC001FFF80
FFFC003FFF00
FFFC003FFF00
FFFC007FFE00
FFFC007FFE00
FFFC00FFFC00
FFFC00FFFC00
FFFC00FFF800
FFFC01FFF800
FFFC01FFF000
FFFC03FFE000
FFFC03FFE000
FFFC07FFC000
FFFC07FFC000
FFFC0FFF8000
FFFC0FFF8000
FFFC1FFF0000
FFFC1FFF0000
FFFC3FFE0000
FFFC3FFE0000
FFFC7FFC0000
FFFC7FFC0000
FFFCFFFC0000
FFFCFFFC0000
FFFCFFFC0000
FFFDFFFE0000
FFFDFFFE0000
FFFFFFFE0000
FFFFFFFE0000
FFFFFFFF0000
FFFFFFFF0000
FFFFFFFF0000
FFFFFFFF8000
FFFFFFFF8000
FFFFFFFF8000
FFFFFFFFC000
FFFFFFFFC000
FFFFFFFFC000
FFFFFFFFC000
FFFFFFFFE000
FFFFEFFFE000
FFFFE7FFE000
FFFFC7FFF000
FFFFC7FFF000
FFFF83FFF000
FFFF83FFF800
FFFF03FFF800
FFFF03FFF800
FFFE01FFF800
FFFE01FFFC00
FFFC01FFFC00
FFFC00FFFC00
FFFC00FFFE00
FFFC00FFFE00
FFFC007FFE00
FFFC007FFF00
FFFC007FFF00
FFFC007FFF00
FFFC003FFF00
FFFC003FFF80
FFFC003FFF80
FFFC001FFF80
FFFC001FFFC0
FFFC001FFFC0
FFFC000FFFC0
FFFC000FFFE0
FFFC000FFFE0
FFFC000FFFE0
FFFC0007FFE0
FFFC0007FFF0
FFFC0007FFF0
FFFC0003FFF0
FFFC0003FFF8
FFFC0003FFF8
FFFC0001FFF8
FFFC0001FFFC
FFFC0001FFFC
FFFC0001FFFC
FFFC0000FFFE
ENDCHAR
STARTCHAR l
ENCODING 108
SWIDTH 344 0
DWIDTH 44 0
BBX 38 90 5 0
BITMAP
FFFC000000
FFFC000000
FFFC000000
FFFC000000
FFFC000000
FFFC000000
FFFC000000
FFFC000000
FFFC000000
FFFC000000
FFFC000000
FFFC000000
FFFC000000
FFFC000000
FFFC000000
FFFC000000
FFFC000000
FFFC000000
FFFC000000
FFFC000000
FFFC000000
FFFC000000
FFFC000000
FFFC000000
FFFC000000
FFFC000000
FFFC000000
FFFC000000
FFFC000000
FFFC000000
FFFC000000
FFFC000000
FFFC000000
FFFC000000
FFFC000000
FFFC000000
FFFC000000
FFFC000000
FFFC000000
FFFC000000
FFFC000000
FFFC000000
FFFC000000
FFFC000000
FFFC000000
FFFC000000
FFFC000000
FFFC000000
FFFC000000
FFFC000000
FFFC000000
FFFC000000
FFFC000000
FFFC000000
FFFC000000
FFFC000000
FFFC000000
FFFC000000
FFFC000000
FFFC000000
FFFC000000
FFFC000000
FFFC000000
FFFC000000
FFFC000000
FFFC000000
FFFC000000
FFFC000000
FFFC000000
FFFC000000
FFFC000000
FFFC000000
FFFC000000
FFFC000000
FFFC000000
FFFC000000
FFFC000000
FFFFFFFFFC
FFFFFFFFFC
FFFFFFFFFC
FFFFFFFFFC
FFFFFFFFFC
FFFFFFFFFC
FFFFFFFFFC
FFFFFFFFFC
FFFFFFFFFC
FFFFFFFFFC
FFFFFFFFFC
FFFFFFFFFC
FFFFFFFFFC
ENDCHAR
STARTCHAR m
ENCODING 109
SWIDTH 538 0
DWIDTH 69 0
BBX 59 90 5 0
BITMAP
FFFFF00003FFFFE0
FFFFF80003FFFFE0
FFFFF80003FFFFE0
FFFFF80003FFFFE0
FFFFF80003FFFFE0
FFFFF80003FFFFE0
FFFFF80003FFFFE0
FFFFF80007FFFFE0
FFFFFC0007FFFFE0
FFFFFC0007FFFFE0
FFFFFC0007FFFFE0
FFFFFC0007FFFFE0
FFFFFC0007FFFFE0
FFFFFC0007FFFFE0
FFFFFC000FFFFFE0
FFFFFC000FFFFFE0
FFFFFE000FFFFFE0
FFFFFE000FFFFFE0
FFFFFE000FFFFFE0
FFFFFE000FFFFFE0
FFFFFE000FFFFFE0
FFFFFE000FFFFFE0
FFFFFE001FFFFFE0
FFFFFF001FFFFFE0
FFFFFF001FFFFFE0
FFFFFF001FFFFFE0
FFFFFF001FF7FFE0
FFFBFF001FF7FFE0
FFFBFF001FF7FFE0
FFFBFF003FF7FFE0
FFFBFF803FF7FFE0
FFFBFF803FF7FFE0
FFFBFF803FE7FFE0
FFF9FF803FE7FFE0
FFF9FF803FE7FFE0
FFF9FF803FE7FFE0
FFF9FF807FE7FFE0
FFF9FFC07FE7FFE0
FFF9FFC07FE7FFE0
FFF9FFC07FC7FFE0
FFF8FFC07FC7FFE0
FFF8FFC07FC7FFE0
FFF8FFC07FC7FFE0
FFF8FFC0FFC7FFE0
FFF8FFE0FFC7FFE0
FFF8FFE0FFC7FFE0
FFF8FFE0FF87FFE0
FFF87FE0FF87FFE0
FFF87FE0FF87FFE0
FFF87FE0FF87FFE0
FFF87FE1FF87FFE0
FFF87FE1FF87FFE0
FFF87FF1FF07FFE0
FFF83FF1FF07FFE0
FFF83FF1FF07FFE0
FFF83FF1FF07FFE0
FFF83FF1FF07FFE0
FFF83FF1FF07FFE0
FFF83FF3FF07FFE0
FFF83FFBFE07FFE0
FFF81FFBFE07FFE0
FFF81FFBFE07FFE0
FFF81FFBFE07FFE0
FFF81FFBFE07FFE0
FFF81FFFFE07FFE0
FFF81FFFFE07FFE0
FFF81FFFFC07FFE0
FFF80FFFFC07FFE0
FFF80FFFFC07FFE0
FFF80FFFFC07FFE0
FFF80FFFFC07FFE0
FFF80FFFFC07FFE0
FFF80FFFF807FFE0
FFF807FFF807FFE0
FFF807FFF807FFE0
FFF807FFF807FFE0
FFF807FFF807FFE0
FFF807FFF807FFE0
FFF807FFF807FFE0
FFF807FFF007FFE0
FFF803FFF007FFE0
FFF803FFF007FFE0
FFF803FFF007FFE0
FFF803FFF007FFE0
FFF803FFF007FFE0
FFF803FFF007FFE0
FFF801FFE007FFE0
FFF801FFE007FFE0
FFF801FFE007FFE0
FFF801FFE007FFE0
ENDCHAR
STARTCHAR n
ENCODING 110
SWIDTH 427 0
DWIDTH 55 0
BBX 44 90 5 0
BITMAP
FFFFC000FFF0
FFFFC000FFF0
FFFFE000FFF0
FFFFE000FFF0
FFFFE000FFF0
FFFFE000FFF0
FFFFF000FFF0
FFFFF000FFF0
FFFFF000FFF0
FFFFF000FFF0
FFFFF800FFF0
FFFFF800FFF0
FFFFF800FFF0
FFFFF800FFF0
FFFFFC00FFF0
FFFFFC00FFF0
FFFFFC00FFF0
FFFFFC00FFF0
FFFFFE00FFF0
FFFFFE00FFF0
FFFFFE00FFF0
FFFFFE00FFF0
FFFFFF00FFF0
FFFFFF00FFF0
FFFFFF00FFF0
FFFFFF00FFF0
FFFBFF80FFF0
FFFBFF80FFF0
FFFBFF80FFF0
FFFBFF80FFF0
FFF9FFC0FFF0
FFF9FFC0FFF0
FFF9FFC0FFF0
FFF9FFC0FFF0
FFF8FFE0FFF0
FFF8FFE0FFF0
FFF8FFE0FFF0
FFF8FFE0FFF0
FFF87FF0FFF0
FFF87FF0FFF0
FFF87FF0FFF0
FFF87FF0FFF0
FFF83FF8FFF0
FFF83FF8FFF0
FFF83FF8FFF0
FFF83FF8FFF0
FFF81FFCFFF0
FFF81FFCFFF0
FFF81FFCFFF0
FFF81FFCFFF0
FFF80FFEFFF0
FFF80FFEFFF0
FFF80FFEFFF0
FFF807FEFFF0
FFF807FFFFF0
FFF807FFFFF0
FFF807FFFFF0
FFF803FFFFF0
FFF803FFFFF0
FFF803FFFFF0
FFF803FFFFF0
FFF801FFFFF0
FFF801FFFFF0
FFF801FFFFF0
FFF801FFFFF0
FFF800FFFFF0
FFF800FFFFF0
FFF800FFFFF0
FFF800FFFFF0
FFF8007FFFF0
FFF8007FFFF0
FFF8007FFFF0
FFF8007FFFF0
FFF8003FFFF0
FFF8003FFFF0
FFF8003FFFF0
FFF8003FFFF0
FFF8001FFFF0
FFF8001FFFF0
FFF8001FFFF0
FFF8001FFFF0
FFF8000FFFF0
FFF8000FFFF0
FFF8000FFFF0
FFF80007FFF0
FFF80007FFF0
FFF80007FFF0
FFF80007FFF0
FFF80003FFF0
FFF80003FFF0
ENDCHAR
STARTCHAR o
ENCODING 111
SWIDTH 400 0
DWIDTH 51 0
BBX 43 92 4 -1
BITMAP
0000FFE00000
000FFFFE0000
003FFFFF8000
00FFFFFFE000
01FFFFFFF000
03FFFFFFF800
07FFFFFFFC00
0FFFFFFFFE00
0FFFFFFFFE00
1FFFFFFFFF00
1FFFFFFFFF80
3FFFFFFFFF80
3FFFFFFFFF80
7FFFC07FFFC0
7FFF801FFFC0
7FFF001FFFC0
7FFE000FFFC0
7FFE000FFFE0
FFFE0007FFE0
FFFC0007FFE0
FFFC0007FFE0
FFFC0007FFE0
FFFC0007FFE0
FFFC0007FFE0
FFFC0007FFE0
FFFC0007FFE0
FFFC0007FFE0
FFFC0007FFE0
FFFC0007FFE0
FFFC0007FFE0
FFFC0007FFE0
FFFC0007FFE0
FFFC0007FFE0
FFFC0007FFE0
FFFC0007FFE0
FFFC0007FFE0
FFFC0007FFE0
FFFC0007FFE0
FFFC0007FFE0
FFFC0007FFE0
FFFC0007FFE0
FFFC0007FFE0
FFFC0007FFE0
FFFC0007FFE0
FFFC0007FFE0
FFFC0007FFE0
FFFC0007FFE0
FFFC0007FFE0
FFFC0007FFE0
FFFC0007FFE0
FFFC0007FFE0
FFFC0007FFE0
FFFC0007FFE0
FFFC0007FFE0
FFFC0007FFE0
FFFC0007FFE0
FFFC0007FFE0
FFFC0007FFE0
FFFC0007FFE0
FFFC0007FFE0
FFFC0007FFE0
FFFC0007FFE0
FFFC0007FFE0
FFFC0007FFE0
FFFC0007FFE0
FFFC0007FFE0
FFFC0007FFE0
FFFC0007FFE0
FFFC0007FFE0
FFFC0007FFE0
FFFC0007FFE0
FFFC0007FFE0
FFFC0007FFE0
FFFE0007FFE0
7FFE000FFFE0
7FFE000FFFC0
7FFF001FFFC0
7FFF801FFFC0
7FFFC07FFFC0
3FFFFFFFFF80
3FFFFFFFFF80
1FFFFFFFFF80
1FFFFFFFFF00
0FFFFFFFFE00
0FFFFFFFFE00
07FFFFFFFC00
03FFFFFFF800
01FFFFFFF000
00FFFFFFE000
003FFFFF8000
000FFFFE0000
0000FFE00000
ENDCHAR
STARTCHAR p
ENCODING 112
SWIDTH 386 0
DWIDTH 49 0
BBX 42 90 5 0
BITMAP
FFFFFFE00000
FFFFFFFC0000
FFFFFFFF8000
FFFFFFFFC000
FFFFFFFFE000
FFFFFFFFF800
FFFFFFFFF800
FFFFFFFFFC00
FFFFFFFFFE00
FFFFFFFFFE00
FFFFFFFFFF00
FFFFFFFFFF00
FFFFFFFFFF80
FFFC00FFFF80
FFFC003FFF80
FFFC001FFF80
FFFC001FFFC0
FFFC001FFFC0
FFFC000FFFC0
FFFC000FFFC0
FFFC000FFFC0
FFFC000FFFC0
FFFC000FFFC0
FFFC000FFFC0
FFFC000FFFC0
FFFC000FFFC0
FFFC000FFFC0
FFFC000FFFC0
FFFC000FFFC0
FFFC000FFFC0
FFFC000FFFC0
FFFC000FFFC0
FFFC000FFFC0
FFFC000FFFC0
FFFC000FFFC0
FFFC000FFFC0
FFFC001FFFC0
FFFC001FFF80
FFFC001FFF80
FFFC003FFF80
FFFC00FFFF80
FFFFFFFFFF80
FFFFFFFFFF00
FFFFFFFFFF00
FFFFFFFFFE00
FFFFFFFFFE00
FFFFFFFFFC00
FFFFFFFFF800
FFFFFFFFF000
FFFFFFFFE000
FFFFFFFFC000
FFFFFFFF0000
FFFFFFFC0000
FFFFFF800000
FFFC00000000
FFFC00000000
FFFC00000000
FFFC00000000
FFFC00000000
FFFC00000000
FFFC00000000
FFFC00000000
FFFC00000000
FFFC00000000
FFFC00000000
FFFC00000000
FFFC00000000
FFFC00000000
FFFC00000000
FFFC00000000
FFFC00000000
FFFC00000000
FFFC00000000
FFFC00000000
FFFC00000000
FFFC00000000
FFFC00000000
FFFC00000000
FFFC00000000
FFFC00000000
FFFC00000000
FFFC00000000
FFFC00000000
FFFC00000000
FFFC00000000
FFFC00000000
FFFC00000000
FFFC00000000
FFFC00000000
FFFC00000000
ENDCHAR
STARTCHAR q
ENCODING 113
SWIDTH 400 0
DWIDTH 51 0
BBX 46 99 4 -8
BITMAP
0000FFE00000
000FFFFE0000
003FFFFF8000
00FFFFFFE000
01FFFFFFF000
03FFFFFFF800
07FFFFFFFC00
0FFFFFFFFE00
0FFFFFFFFE00
1FFFFFFFFF00
1FFFFFFFFF80
3FFFFFFFFF80
3FFFFFFFFF80
7FFFC07FFFC0
7FFF801FFFC0
7FFF001FFFC0
7FFE000FFFC0
7FFE000FFFE0
FFFE0007FFE0
FFFC0007FFE0
FFFC0007FFE0
FFFC0007FFE0
FFFC0007FFE0
FFFC0007FFE0
FFFC0007FFE0
FFFC0007FFE0
FFFC0007FFE0
FFFC0007FFE0
FFFC0007FFE0
FFFC0007FFE0
FFFC0007FFE0
FFFC0007FFE0
FFFC0007FFE0
FFFC0007FFE0
FFFC0007FFE0
FFFC0007FFE0
FFFC0007FFE0
FFFC0007FFE0
FFFC0007FFE0
FFFC0007FFE0
FFFC0007FFE0
FFFC0007FFE0
FFFC0007FFE0
FFFC0007FFE0
FFFC0007FFE0
FFFC0007FFE0
FFFC0007FFE0
FFFC0007FFE0
FFFC0007FFE0
FFFC0007FFE0
FFFC0007FFE0
FFFC0007FFE0
FFFC0007FFE0
FFFC0007FFE0
FFFC0007FFE0
FFFC0007FFE0
FFFC0007FFE0
FFFC0007FFE0
FFFC0007FFE0
FFFC0007FFE0
FFFC0007FFE0
FFFC0007FFE0
FFFC0007FFE0
FFFC0007FFE0
FFFC0007FFE0
FFFC0007FFE0
FFFC0007FFE0
FFFC0007FFE0
FFFC0007FFE0
FFFC0007FFE0
FFFC0007FFE0
FFFC0007FFE0
FFFC0007FFE0
FFFE0007FFE0
7FFE000FFFE0
7FFE000FFFC0
7FFF001FFFC0
7FFF801FFFC0
7FFFC07FFFC0
3FFFFFFFFF80
3FFFFFFFFF80
1FFFFFFFFF80
1FFFFFFFFF00
0FFFFFFFFE00
0FFFFFFFFE00
07FFFFFFFF00
03FFFFFFFFFC
01FFFFFFFFFC
00FFFFFFFFFC
003FFFFFFFFC
000FFFFFFFFC
0000FFE1FFFC
00000000FFFC
00000000FFFC
000000007FFC
000000007FFC
000000003FFC
000000000FFC
0000000001FC
ENDCHAR
STARTCHAR r
ENCODING 114
SWIDTH 403 0
DWIDTH 52 0
BBX 44 90 5 0
BITMAP
FFFFFFE00000
FFFFFFFE0000
FFFFFFFF8000
FFFFFFFFE000
FFFFFFFFF000
FFFFFFFFF800
FFFFFFFFFC00
FFFFFFFFFE00
FFFFFFFFFE00
FFFFFFFFFF00
FFFFFFFFFF00
FFFFFFFFFF80
FFFFFFFFFF80
FFFC00FFFF80
FFFC003FFF80
FFFC003FFFC0
FFFC001FFFC0
FFFC001FFFC0
FFFC000FFFC0
FFFC000FFFC0
FFFC000FFFC0
FFFC000FFFC0
FFFC000FFFC0
FFFC000FFFC0
FFFC000FFFC0
FFFC000FFFC0
FFFC000FFFC0
FFFC000FFFC0
FFFC000FFFC0
FFFC000FFFC0
FFFC000FFFC0
FFFC000FFFC0
FFFC000FFF80
FFFC001FFF80
FFFC001FFF80
FFFC001FFF80
FFFC003FFF00
FFFC007FFF00
FFFC01FFFE00
FFFFFFFFFE00
FFFFFFFFFC00
FFFFFFFFF800
FFFFFFFFF000
FFFFFFFFC000
FFFFFFFF8000
FFFFFFFFE000
FFFFFFFFF800
FFFFFFFFFC00
FFFFFFFFFE00
FFFFFFFFFE00
FFFFFFFFFF00
FFFFFFFFFF00
FFFC00FFFF80
FFFC007FFF80
FFFC003FFF80
FFFC001FFF80
FFFC001FFFC0
FFFC000FFFC0
FFFC000FFFC0
FFFC000FFFC0
FFFC000FFFC0
FFFC000FFFC0
FFFC000FFFC0
FFFC000FFFC0
FFFC000FFFC0
FFFC000FFFC0
FFFC000FFFC0
FFFC000FFFC0
FFFC000FFFC0
FFFC000FFFC0
FFFC000FFFC0
FFFC000FFFC0
FFFC000FFFC0
FFFC000FFFC0
FFFC000FFFC0
FFFC000FFFC0
FFFC000FFFC0
FFFC000FFFC0
FFFC000FFFC0
FFFC000FFFC0
FFFC000FFFC0
FFFC000FFFC0
FFFC000FFFC0
FFFC000FFFC0
FFFC000FFFC0
FFFC000FFFC0
FFFC000FFFE0
FFFC0007FFE0
FFFC0007FFE0
FFFC0007FFF0
ENDCHAR
STARTCHAR s
ENCODING 115
SWIDTH 372 0
DWIDTH 48 0
BBX 42 92 3 -1
BITMAP
0000FFC00000
000FFFFC0000
003FFFFF0000
00FFFFFFC000
01FFFFFFE000
03FFFFFFF000
07FFFFFFF800
0FFFFFFFFC00
1FFFFFFFFC00
1FFFFFFFFE00
3FFFFFFFFE00
3FFFFFFFFF00
3FFFFFFFFF00
7FFFC07FFF00
7FFF003FFF80
7FFF001FFF80
FFFE001FFF80
FFFE000FFF80
FFFC000FFF80
FFFC000FFF80
FFFC000FFF80
FFFC000FFFC0
FFFC000FFFC0
FFFC000FFFC0
FFFC000FFFC0
FFFE000FFFC0
FFFE00000000
FFFE00000000
7FFF00000000
7FFF00000000
7FFF80000000
7FFF80000000
3FFFC0000000
3FFFE0000000
1FFFF0000000
1FFFF8000000
0FFFFC000000
0FFFFE000000
07FFFF000000
03FFFF800000
03FFFFC00000
01FFFFE00000
00FFFFF00000
007FFFF80000
003FFFFC0000
001FFFFE0000
000FFFFF0000
0007FFFF8000
0003FFFFC000
0001FFFFE000
0000FFFFF000
00007FFFF800
00003FFFF800
00001FFFFC00
00000FFFFC00
000007FFFE00
000003FFFE00
000001FFFF00
000000FFFF00
0000007FFF00
0000007FFF80
0000003FFF80
0000003FFF80
0000001FFF80
FFF8001FFF80
FFF8001FFFC0
FFF8001FFFC0
FFF8000FFFC0
FFF8000FFFC0
FFF8000FFFC0
FFF8000FFFC0
FFF8000FFFC0
FFF8000FFFC0
FFF8001FFFC0
FFFC001FFF80
FFFC001FFF80
FFFE003FFF80
7FFE007FFF80
7FFF80FFFF80
7FFFFFFFFF00
3FFFFFFFFF00
3FFFFFFFFE00
3FFFFFFFFE00
1FFFFFFFFC00
0FFFFFFFFC00
0FFFFFFFF800
07FFFFFFF000
03FFFFFFE000
00FFFFFFC000
007FFFFF0000
001FFFFC0000
0001FFC00000
ENDCHAR
STARTCHAR t
ENCODING 116
SWIDTH 364 0
DWIDTH 47 0
BBX 43 90 2 0
BITMAP
FFFFFFFFFFE0
FFFFFFFFFFE0
FFFFFFFFFFE0
FFFFFFFFFFE0
FFFFFFFFFFE0
FFFFFFFFFFE0
FFFFFFFFFFE0
FFFFFFFFFFE0
FFFFFFFFFFE0
FFFFFFFFFFE0
FFFFFFFFFFE0
FFFFFFFFFFE0
FFFFFFFFFFE0
0003FFF00000
0003FFF00000
0003FFF00000
0003FFF00000
0003FFF00000
0003FFF00000
0003FFF00000
0003FFF00000
0003FFF00000
0003FFF00000
0003FFF00000
0003FFF00000
0003FFF00000
0003FFF00000
0003FFF00000
0003FFF00000
0003FFF00000
0003FFF00000
0003FFF00000
0003FFF00000
0003FFF00000
0003FFF00000
0003FFF00000
0003FFF00000
0003FFF00000
0003FFF00000
0003FFF00000
0003FFF00000
0003FFF00000
0003FFF00000
0003FFF00000
0003FFF00000
0003FFF00000
0003FFF00000
0003FFF00000
0003FFF00000
0003FFF00000
0003FFF00000
0003FFF00000
0003FFF00000
0003FFF00000
0003FFF00000
0003FFF00000
0003FFF00000
0003FFF00000
0003FFF00000
0003FFF00000
0003FFF00000
0003FFF00000
0003FFF00000
0003FFF00000
0003FFF00000
0003FFF00000
0003FFF00000
0003FFF00000
0003FFF00000
0003FFF00000
0003FFF00000
0003FFF00000
0003FFF00000
0003FFF00000
0003FFF00000
0003FFF00000
0003FFF00000
0003FFF00000
0003FFF00000
0003FFF00000
0003FFF00000
0003FFF00000
0003FFF00000
0003FFF00000
0003FFF00000
0003FFF00000
0003FFF00000
0003FFF00000
0003FFF00000
0003FFF00000
ENDCHAR
STARTCHAR u
ENCODING 117
SWIDTH 402 0
DWIDTH 51 0
BBX 42 91 5 -1
BITMAP
FFFC000FFFC0
FFFC000FFFC0
FFFC000FFFC0
FFFC000FFFC0
FFFC000FFFC0
FFFC000FFFC0
FFFC000FFFC0
FFFC000FFFC0
FFFC000FFFC0
FFFC000FFFC0
FFFC000FFFC0
FFFC000FFFC0
FFFC000FFFC0
FFFC000FFFC0
FFFC000FFFC0
FFFC000FFFC0
FFFC000FFFC0
FFFC000FFFC0
FFFC000FFFC0
FFFC000FFFC0
FFFC000FFFC0
FFFC000FFFC0
FFFC000FFFC0
FFFC000FFFC0
FFFC000FFFC0
FFFC000FFFC0
FFFC000FFFC0
FFFC000FFFC0
FFFC000FFFC0
FFFC000FFFC0
FFFC000FFFC0
FFFC000FFFC0
FFFC000FFFC0
FFFC000FFFC0
FFFC000FFFC0
FFFC000FFFC0
FFFC000FFFC0
FFFC000FFFC0
FFFC000FFFC0
FFFC000FFFC0
FFFC000FFFC0
FFFC000FFFC0
FFFC000FFFC0
FFFC000FFFC0
FFFC000FFFC0
FFFC000FFFC0
FFFC000FFFC0
FFFC000FFFC0
FFFC000FFFC0
FFFC000FFFC0
FFFC000FFFC0
FFFC000FFFC0
FFFC000FFFC0
FFFC000FFFC0
FFFC000FFFC0
FFFC000FFFC0
FFFC000FFFC0
FFFC000FFFC0
FFFC000FFFC0
FFFC000FFFC0
FFFC000FFFC0
FFFC000FFFC0
FFFC000FFFC0
FFFC000FFFC0
FFFC000FFFC0
FFFC000FFFC0
FFFC000FFFC0
FFFC000FFFC0
FFFC000FFFC0
FFFC000FFFC0
FFFC000FFFC0
FFFC000FFFC0
FFFC000FFFC0
FFFC000FFF80
FFFE001FFF80
FFFE001FFF80
7FFF003FFF80
7FFFC0FFFF80
7FFFFFFFFF00
3FFFFFFFFF00
3FFFFFFFFE00
3FFFFFFFFE00
1FFFFFFFFC00
0FFFFFFFFC00
07FFFFFFF800
07FFFFFFF000
03FFFFFFE000
00FFFFFFC000
007FFFFF0000
000FFFFC0000
0001FFC00000
ENDCHAR
STARTCHAR v
ENCODING 118
SWIDTH 382 0
DWIDTH 49 0
BBX 45 90 2 0
BITMAP
FFFC0000FFF8
FFFC0000FFF8
FFFC0000FFF8
FFFC0000FFF8
FFFC0000FFF8
FFFC0000FFF8
7FFE0000FFF0
7FFE0001FFF0
7FFE0001FFF0
7FFE0001FFF0
7FFE0001FFF0
7FFE0001FFF0
7FFE0001FFE0
3FFF0001FFE0
3FFF0001FFE0
3FFF0003FFE0
3FFF0003FFE0
3FFF0003FFE0
3FFF0003FFE0
3FFF0003FFC0
1FFF0003FFC0
1FFF8003FFC0
1FFF8007FFC0
1FFF8007FFC0
1FFF8007FFC0
1FFF8007FFC0
0FFF8007FF80
0FFF8007FF80
0FFF8007FF80
0FFFC007FF80
0FFFC00FFF80
0FFFC00FFF80
0FFFC00FFF00
07FFC00FFF00
07FFC00FFF00
07FFC00FFF00
07FFE00FFF00
07FFE01FFF00
07FFE01FFF00
07FFE01FFE00
03FFE01FFE00
03FFE01FFE00
03FFE01FFE00
03FFE01FFE00
03FFF01FFE00
03FFF03FFE00
01FFF03FFC00
01FFF03FFC00
01FFF03FFC00
01FFF03FFC00
01FFF03FFC00
01FFF83FFC00
01FFF87FF800
00FFF87FF800
00FFF87FF800
00FFF87FF800
00FFF87FF800
00FFF87FF800
00FFF87FF800
007FFC7FF000
007FFCFFF000
007FFCFFF000
007FFCFFF000
007FFCFFF000
007FFCFFF000
007FFCFFF000
003FFEFFE000
003FFEFFE000
003FFFFFE000
003FFFFFE000
003FFFFFE000
003FFFFFE000
003FFFFFC000
001FFFFFC000
001FFFFFC000
001FFFFFC000
001FFFFFC000
001FFFFFC000
001FFFFFC000
000FFFFF8000
000FFFFF8000
000FFFFF8000
000FFFFF8000
000FFFFF8000
000FFFFF8000
000FFFFF0000
0007FFFF0000
0007FFFF0000
0007FFFF0000
0007FFFF0000
ENDCHAR
STARTCHAR w
ENCODING 119
SWIDTH 557 0
DWIDTH 71 0
BBX 67 90 2 0
BITMAP
FFFC001FFFC001FFE0
FFFC001FFFC001FFE0
FFFC003FFFC001FFE0
FFFC003FFFC001FFE0
FFFC003FFFC001FFE0
FFFC003FFFE001FFE0
7FFC003FFFE001FFE0
7FFC003FFFE001FFE0
7FFC003FFFE003FFE0
7FFC003FFFE003FFC0
7FFC003FFFE003FFC0
7FFE003FFFE003FFC0
7FFE007FFFE003FFC0
7FFE007FFFE003FFC0
7FFE007FFFE003FFC0
7FFE007FFFF003FFC0
3FFE007FFFF003FFC0
3FFE007FFFF003FFC0
3FFE007FFFF003FFC0
3FFE007FFFF007FF80
3FFE007FFFF007FF80
3FFE007FFFF007FF80
3FFF00FFFFF007FF80
3FFF00FFFFF007FF80
3FFF00FFFFF007FF80
1FFF00FFFFF007FF80
1FFF00FFFFF807FF80
1FFF00FFFFF807FF80
1FFF00FFFFF807FF80
1FFF00FFFFF807FF00
1FFF00FFFFF80FFF00
1FFF00FFDFF80FFF00
1FFF00FFDFF80FFF00
1FFF81FFDFF80FFF00
1FFF81FFDFF80FFF00
0FFF81FF9FF80FFF00
0FFF81FF9FFC0FFF00
0FFF81FF9FFC0FFF00
0FFF81FF9FFC0FFF00
0FFF81FF9FFC0FFE00
0FFF81FF8FFC0FFE00
0FFF81FF8FFC1FFE00
0FFF81FF8FFC1FFE00
0FFF83FF8FFC1FFE00
0FFFC3FF8FFC1FFE00
07FFC3FF0FFC1FFE00
07FFC3FF0FFC1FFE00
07FFC3FF0FFE1FFE00
07FFC3FF0FFE1FFC00
07FFC3FF0FFE1FFC00
07FFC3FF07FE1FFC00
07FFC3FF07FE1FFC00
07FFC3FF07FE3FFC00
07FFC3FF07FE3FFC00
07FFC7FE07FE3FFC00
03FFE7FE07FE3FFC00
03FFE7FE07FE3FFC00
03FFE7FE07FF3FFC00
03FFE7FE07FF3FF800
03FFE7FE03FF3FF800
03FFE7FE03FF3FF800
03FFE7FE03FF3FF800
03FFE7FE03FF3FF800
03FFE7FE03FF7FF800
03FFEFFC03FF7FF800
01FFEFFC03FF7FF800
01FFFFFC03FF7FF800
01FFFFFC03FFFFF800
01FFFFFC03FFFFF000
01FFFFFC01FFFFF000
01FFFFFC01FFFFF000
01FFFFFC01FFFFF000
01FFFFFC01FFFFF000
01FFFFF801FFFFF000
01FFFFF801FFFFF000
00FFFFF801FFFFF000
00FFFFF801FFFFF000
00FFFFF801FFFFF000
00FFFFF800FFFFE000
00FFFFF800FFFFE000
00FFFFF800FFFFE000
00FFFFF800FFFFE000
00FFFFF800FFFFE000
00FFFFF000FFFFE000
00FFFFF000FFFFE000
007FFFF000FFFFE000
007FFFF000FFFFE000
007FFFF000FFFFE000
007FFFF0007FFFC000
007FFFF0007FFFC000
ENDCHAR
STARTCHAR x
ENCODING 120
SWIDTH 406 0
DWIDTH 52 0
BBX 50 90 1 0
BITMAP
7FFF00001FFF80
3FFF80001FFF00
3FFF80001FFF00
3FFF80003FFF00
1FFF80003FFE00
1FFFC0003FFE00
1FFFC0007FFE00
0FFFC0007FFC00
0FFFE0007FFC00
07FFE000FFF800
07FFE000FFF800
07FFF000FFF800
03FFF001FFF000
03FFF001FFF000
03FFF801FFF000
01FFF803FFE000
01FFF803FFE000
01FFFC03FFE000
00FFFC07FFC000
00FFFC07FFC000
00FFFE07FFC000
007FFE0FFF8000
007FFE0FFF8000
007FFF0FFF8000
003FFF1FFF0000
003FFF1FFF0000
003FFF9FFF0000
001FFFBFFE0000
001FFFBFFE0000
000FFFFFFC0000
000FFFFFFC0000
000FFFFFFC0000
0007FFFFF80000
0007FFFFF80000
0007FFFFF80000
0003FFFFF00000
0003FFFFF00000
0003FFFFF00000
0001FFFFE00000
0001FFFFE00000
0001FFFFE00000
0000FFFFC00000
0000FFFFC00000
0000FFFFC00000
0000FFFF800000
0000FFFFC00000
0000FFFFC00000
0001FFFFE00000
0001FFFFE00000
0001FFFFE00000
0003FFFFF00000
0003FFFFF00000
0003FFFFF00000
0007FFFFF80000
0007FFFFF80000
0007FFFFF80000
000FFFFFFC0000
000FFFFFFC0000
000FFFFFFC0000
001FFF7FFE0000
001FFF7FFE0000
003FFE7FFE0000
003FFE3FFF0000
003FFE3FFF0000
007FFC3FFF8000
007FFC1FFF8000
007FFC1FFF8000
00FFF81FFFC000
00FFF80FFFC000
00FFF80FFFC000
01FFF00FFFE000
01FFF007FFE000
01FFF007FFE000
03FFE007FFF000
03FFE003FFF000
03FFE003FFF000
07FFC003FFF800
07FFC001FFF800
0FFFC001FFF800
0FFF8001FFFC00
0FFF8000FFFC00
1FFF8000FFFE00
1FFF0000FFFE00
1FFF00007FFE00
3FFF00007FFF00
3FFE00007FFF00
3FFE00003FFF00
7FFE00003FFF80
7FFC00003FFF80
FFFC00001FFFC0
ENDCHAR
STARTCHAR y
ENCODING 121
SWIDTH 394 0
DWIDTH 50 0
BBX 48 90 1 0
BITMAP
FFFE00003FFF
7FFF00003FFF
7FFF00003FFE
7FFF00003FFE
3FFF00007FFE
3FFF80007FFC
3FFF80007FFC
1FFF8000FFFC
1FFFC000FFF8
1FFFC000FFF8
0FFFC000FFF8
0FFFC001FFF8
0FFFE001FFF0
07FFE001FFF0
07FFE003FFF0
07FFF003FFE0
03FFF003FFE0
03FFF003FFE0
03FFF007FFC0
01FFF807FFC0
01FFF807FFC0
01FFF80FFF80
00FFFC0FFF80
00FFFC0FFF80
00FFFC1FFF00
007FFE1FFF00
007FFE1FFF00
007FFE1FFE00
003FFE3FFE00
003FFF3FFE00
003FFF3FFC00
003FFF7FFC00
001FFFFFFC00
001FFFFFF800
001FFFFFF800
000FFFFFF800
000FFFFFF000
000FFFFFF000
0007FFFFF000
0007FFFFE000
0007FFFFE000
0003FFFFE000
0003FFFFC000
0003FFFFC000
0001FFFFC000
0001FFFF8000
0001FFFF8000
0000FFFF8000
0000FFFF0000
0000FFFF0000
00007FFF0000
00007FFE0000
00007FFE0000
00007FFE0000
00007FFE0000
00007FFE0000
00007FFE0000
00007FFE0000
00007FFE0000
00007FFE0000
00007FFE0000
00007FFE0000
00007FFE0000
00007FFE0000
00007FFE0000
00007FFE0000
00007FFE0000
00007FFE0000
00007FFE0000
00007FFE0000
00007FFE0000
00007FFE0000
00007FFE0000
00007FFE0000
00007FFE0000
00007FFE0000
00007FFE0000
00007FFE0000
00007FFE0000
00007FFE0000
00007FFE0000
00007FFE0000
00007FFE0000
00007FFE0000
00007FFE0000
00007FFE0000
00007FFE0000
00007FFE0000
00007FFE0000
00007FFE0000
ENDCHAR
STARTCHAR z
ENCODING 122
SWIDTH 362 0
DWIDTH 46 0
BBX 42 90 2 0
BITMAP
3FFFFFFFFFC0
3FFFFFFFFFC0
3FFFFFFFFFC0
3FFFFFFFFFC0
3FFFFFFFFFC0
3FFFFFFFFFC0
3FFFFFFFFFC0
3FFFFFFFFFC0
3FFFFFFFFFC0
3FFFFFFFFFC0
3FFFFFFFFFC0
3FFFFFFFFFC0
3FFFFFFFFFC0
0000003FFF80
0000003FFF80
0000007FFF00
0000007FFF00
0000007FFF00
000000FFFE00
000000FFFE00
000001FFFC00
000001FFFC00
000001FFFC00
000003FFF800
000003FFF800
000007FFF000
000007FFF000
000007FFF000
00000FFFE000
00000FFFE000
00001FFFC000
00001FFFC000
00001FFFC000
00003FFF8000
00003FFF8000
00007FFF0000
00007FFF0000
00007FFF0000
0000FFFE0000
0000FFFE0000
0001FFFC0000
0001FFFC0000
0001FFFC0000
0003FFF80000
0003FFF80000
0007FFF00000
0007FFF00000
0007FFF00000
000FFFE00000
000FFFE00000
001FFFC00000
001FFFC00000
003FFFC00000
003FFF800000
003FFF800000
007FFF000000
007FFF000000
00FFFE000000
00FFFE000000
00FFFE000000
01FFFC000000
01FFFC000000
03FFF8000000
03FFF8000000
03FFF8000000
07FFF0000000
07FFF0000000
0FFFE0000000
0FFFE0000000
0FFFE0000000
1FFFC0000000
1FFFC0000000
3FFF80000000
3FFF80000000
3FFF80000000
7FFF00000000
7FFF00000000
FFFFFFFFFFC0
FFFFFFFFFFC0
FFFFFFFFFFC0
FFFFFFFFFFC0
FFFFFFFFFFC0
FFFFFFFFFFC0
FFFFFFFFFFC0
FFFFFFFFFFC0
FFFFFFFFFFC0
FFFFFFFFFFC0
FFFFFFFFFFC0
FFFFFFFFFFC0
FFFFFFFFFFC0
ENDCHAR
STARTCHAR braceleft
ENCODING 123
SWIDTH 276 0
DWIDTH 35 0
BBX 29 103 3 -6
BITMAP
00003FF8
0001FFF8
0007FFF8
000FFFF8
001FFFF8
003FFFF8
007FFFF8
007FFFF8
007FFFF8
00FFFFF8
00FFFFF8
00FFFFF8
00FFFF00
00FFFC00
00FFFC00
00FFF800
00FFF800
00FFF800
00FFF000
00FFF000
00FFF000
00FFF000
00FFF000
00FFF000
00FFF000
00FFF000
00FFF000
00FFF000
00FFF000
00FFF000
00FFF000
00FFF000
00FFF000
00FFF000
00FFF000
00FFF000
00FFF000
00FFF000
00FFF000
00FFF000
01FFF000
01FFF000
01FFF000
01FFF000
03FFF000
0FFFF000
FFFFE000
FFFFE000
FFFFC000
FFFF8000
FFFF0000
FFFC0000
FFF80000
FFFF0000
FFFF8000
FFFFC000
FFFFE000
FFFFE000
0FFFF000
03FFF000
01FFF000
01FFF000
01FFF000
00FFF000
00FFF000
00FFF000
00FFF000
00FFF000
00FFF000
00FFF000
00FFF000
00FFF000
00FFF000
00FFF000
00FFF000
00FFF000
00FFF000
00FFF000
00FFF000
00FFF000
00FFF000
00FFF000
00FFF000
00FFF000
00FFF000
00FFF800
00FFF800
00FFF800
00FFFC00
00FFFC00
00FFFF00
00FFFFF8
00FFFFF8
00FFFFF8
007FFFF8
007FFFF8
007FFFF8
003FFFF8
001FFFF8
000FFFF8
0007FFF8
0001FFF8
00007FF8
ENDCHAR
STARTCHAR bar
ENCODING 124
SWIDTH 500 0
DWIDTH 64 0
BBX 12 128 26 -26
BITMAP
FFF0
FFF0
FFF0
FFF0
FFF0
FFF0
FFF0
FFF0
FFF0
FFF0
FFF0
FFF0
FFF0
FFF0
FFF0
FFF0
FFF0
FFF0
FFF0
FFF0
FFF0
FFF0
FFF0
FFF0
FFF0
FFF0
FFF0
FFF0
FFF0
FFF0
FFF0
FFF0
FFF0
FFF0
FFF0
FFF0
FFF0
FFF0
FFF0
FFF0
FFF0
FFF0
FFF0
FFF0
FFF0
FFF0
FFF0
FFF0
FFF0
FFF0
FFF0
FFF0
FFF0
FFF0
FFF0
FFF0
FFF0
FFF0
FFF0
FFF0
FFF0
FFF0
FFF0
FFF0
FFF0
FFF0
FFF0
FFF0
FFF0
FFF0
FFF0
FFF0
FFF0
FFF0
FFF0
FFF0
FFF0
FFF0
FFF0
FFF0
FFF0
FFF0
FFF0
FFF0
FFF0
FFF0
FFF0
FFF0
FFF0
FFF0
FFF0
FFF0
FFF0
FFF0
FFF0
FFF0
FFF0
FFF0
FFF0
FFF0
FFF0
FFF0
FFF0
FFF0
FFF0
FFF0
FFF0
FFF0
FFF0
FFF0
FFF0
FFF0
FFF0
FFF0
FFF0
FFF0
FFF0
FFF0
FFF0
FFF0
FFF0
FFF0
FFF0
FFF0
FFF0
FFF0
FFF0
FFF0
ENDCHAR
STARTCHAR braceright
ENCODING 125
SWIDTH 276 0
DWIDTH 35 0
BBX 30 103 3 -6
BITMAP
FFF00000
FFFC0000
FFFF0000
FFFF8000
FFFFC000
FFFFE000
FFFFF000
FFFFF000
FFFFF800
FFFFF800
FFFFF800
FFFFF800
07FFFC00
01FFFC00
00FFFC00
00FFFC00
007FFC00
007FFC00
007FFC00
007FFC00
007FFC00
007FFC00
007FFC00
007FFC00
007FFC00
007FFC00
007FFC00
007FFC00
007FFC00
007FFC00
007FFC00
007FFC00
007FFC00
007FFC00
007FFC00
007FFC00
007FFC00
007FFC00
007FFC00
007FFC00
007FFC00
007FFC00
007FFC00
007FFE00
007FFE00
003FFF80
003FFFFC
001FFFFC
001FFFFC
000FFFFC
0003FFFC
0000FFFC
0000FFFC
0003FFFC
000FFFFC
001FFFFC
001FFFFC
003FFFFC
003FFF80
007FFE00
007FFE00
007FFC00
007FFC00
007FFC00
007FFC00
007FFC00
007FFC00
007FFC00
007FFC00
007FFC00
007FFC00
007FFC00
007FFC00
007FFC00
007FFC00
007FFC00
007FFC00
007FFC00
007FFC00
007FFC00
007FFC00
007FFC00
007FFC00
007FFC00
007FFC00
007FFC00
007FFC00
00FFFC00
00FFFC00
01FFFC00
07FFFC00
FFFFF800
FFFFF800
FFFFF800
FFFFF800
FFFFF000
FFFFF000
FFFFE000
FFFFE000
FFFFC000
FFFF0000
FFFE0000
FFF00000
ENDCHAR
STARTCHAR asciitilde
ENCODING 126
SWIDTH 400 0
DWIDTH 51 0
BBX 48 18 2 36
BITMAP
001FC00000C0
007FF80001E0
00FFFE0003F0
03FFFF0007FC
07FFFFC007FE
07FFFFF00FFF
0FFFFFFC3FFE
1FFFFFFFFFFC
3FFFFFFFFFFC
3FFFFFFFFFF8
7FFFFFFFFFF0
FFF87FFFFFE0
FFE01FFFFFE0
FFE007FFFFC0
3FC001FFFF80
1F8000FFFF00
0F00003FFC00
02000007F000
ENDCHAR
STARTCHAR uni00A0
ENCODING 160
SWIDTH 160 0
DWIDTH 20 0
BBX 1 1 0 0
BITMAP
00
ENDCHAR
STARTCHAR exclamdown
ENCODING 161
SWIDTH 210 0
DWIDTH 27 0
BBX 14 90 6 0
BITMAP
7FFC
7FFC
7FFC
7FFC
7FFC
7FFC
7FFC
7FFC
7FFC
7FFC
7FFC
7FFC
7FFC
7FFC
0000
0000
0000
0000
0000
0000
0000
0000
0000
0000
3FF8
3FF8
3FF8
3FF8
3FF8
3FF8
3FF8
3FF8
3FF8
3FF8
3FF8
7FF8
7FF8
7FFC
7FFC
7FFC
7FFC
7FFC
7FFC
7FFC
7FFC
7FFC
7FFC
7FFC
7FFC
7FFC
7FFC
FFFC
FFFC
FFFC
FFFC
FFFC
FFFC
FFFC
FFFC
FFFC
FFFC
FFFC
FFFC
FFFC
FFFC
FFFC
FFFC
FFFC
FFFC
FFFC
FFFC
FFFC
FFFC
FFFC
FFFC
FFFC
FFFC
FFFC
FFFC
FFFC
FFFC
FFFC
FFFC
FFFC
FFFC
FFFC
FFFC
FFFC
FFFC
FFFC
ENDCHAR
STARTCHAR cent
ENCODING 162
SWIDTH 400 0
DWIDTH 51 0
BBX 42 94 5 -3
BITMAP
0001FFE00000
0001FFE00000
0001FFE00000
0001FFE00000
0001FFE00000
0001FFE00000
0001FFE00000
0001FFE00000
0001FFE00000
0007FFFC0000
003FFFFF0000
007FFFFFC000
01FFFFFFE000
03FFFFFFF000
07FFFFFFF800
0FFFFFFFFC00
0FFFFFFFFC00
1FFFFFFFFE00
1FFFFFFFFF00
3FFFFFFFFF00
3FFFFFFFFF00
3FFFE0FFFF80
7FFF803FFF80
7FFF001FFF80
7FFE000FFF80
7FFE000FFFC0
7FFE000FFFC0
FFFE000FFFC0
FFFC000FFFC0
FFFC0007FFC0
FFFC0007FFC0
FFFC0007FFC0
FFFC0007FFC0
FFFC0007FFC0
FFFC00000000
FFFC00000000
FFFC00000000
FFFC00000000
FFFC00000000
FFFC00000000
FFFC00000000
FFFC00000000
FFFC00000000
FFFC00000000
FFFC00000000
FFFC00000000
FFFC00000000
FFFC00000000
FFFC00000000
FFFC00000000
FFFC00000000
FFFC00000000
FFFC00000000
FFFC00000000
FFFC00000000
FFFC0007FFC0
FFFC0007FFC0
FFFC0007FFC0
FFFC0007FFC0
FFFC0007FFC0
FFFC0007FFC0
FFFC0007FFC0
FFFC0007FFC0
FFFC0007FFC0
FFFC000FFFC0
FFFE000FFFC0
7FFE000FFFC0
7FFE000FFFC0
7FFE000FFF80
7FFF001FFF80
7FFF803FFF80
7FFFC07FFF80
3FFFFFFFFF00
3FFFFFFFFF00
1FFFFFFFFF00
1FFFFFFFFE00
0FFFFFFFFE00
0FFFFFFFFC00
07FFFFFFF800
03FFFFFFF000
01FFFFFFE000
00FFFFFFC000
003FFFFF0000
000FFFFC0000
0001FFE00000
0001FFE00000
0001FFE00000
0001FFE00000
0001FFE00000
0001FFE00000
0001FFE00000
0001FFE00000
0001FFE00000
0001FFE00000
ENDCHAR
STARTCHAR sterling
ENCODING 163
SWIDTH 400 0
DWIDTH 51 0
BBX 43 91 4 0
BITMAP
00007FF00000
0007FFFF0000
001FFFFFC000
003FFFFFE000
00FFFFFFF800
01FFFFFFFC00
03FFFFFFFE00
03FFFFFFFE00
07FFFFFFFF00
0FFFFFFFFF80
0FFFFFFFFF80
1FFFFFFFFF80
1FFFFFFFFFC0
1FFFF03FFFC0
3FFFC00FFFC0
3FFF8007FFE0
3FFF8007FFE0
3FFF0007FFE0
3FFF0003FFE0
3FFF0003FFE0
3FFF0003FFE0
3FFF0003FFE0
3FFF0003FFE0
3FFF0003FFE0
3FFF0003FFE0
3FFF0003FFE0
3FFF0003FFE0
3FFF0003FFE0
1FFF80000000
1FFF80000000
1FFF80000000
1FFF80000000
0FFFC0000000
0FFFC0000000
07FFE0000000
07FFE0000000
07FFE0000000
03FFF0000000
03FFF0000000
01FFF8000000
01FFF8000000
00FFFC000000
007FFC000000
007FFC000000
003FFE000000
FFFFFFFFFE00
FFFFFFFFFE00
FFFFFFFFFE00
FFFFFFFFFE00
FFFFFFFFFE00
FFFFFFFFFE00
FFFFFFFFFE00
FFFFFFFFFE00
FFFFFFFFFE00
FFFFFFFFFE00
FFFFFFFFFE00
000FFF800000
000FFF800000
0007FF800000
0007FF800000
0007FF800000
0007FF800000
000FFF800000
000FFF800000
000FFF800000
000FFF000000
000FFF000000
001FFF000000
001FFF000000
003FFE000000
003FFE000000
007FFC000000
00FFFC000000
00FFF8000000
01FFF0000000
03FFE0000000
07FFC0000000
1FFF80000000
7FFFFFFFFFC0
FFFFFFFFFFC0
FFFFFFFFFFC0
FFFFFFFFFFC0
FFFFFFFFFFC0
FFFFFFFFFFC0
FFFFFFFFFFC0
FFFFFFFFFFC0
FFFFFFFFFFC0
FFFFFFFFFFC0
FFFFFFFFFFC0
FFFFFFFFFFC0
FFFFFFFFFFC0
ENDCHAR
STARTCHAR currency
ENCODING 164
SWIDTH 400 0
DWIDTH 51 0
BBX 43 43 4 23
BITMAP
020000000C00
070000000E00
0F8000001F00
1F8000003F80
3FC000007FC0
7FE03FC0FFC0
FFF1FFF1FFE0
7FFFFFFFFFC0
3FFFFFFFFF80
1FFFFFFFFF00
07FFFFFFFE00
03FFFFFFFC00
01FFFFFFF800
01FFFFFFF000
01FFFFFFF800
03FFE0FFF800
03FF803FF800
03FF001FFC00
07FE000FFC00
07FE000FFC00
07FE000FFC00
07FE000FFC00
07FE000FFC00
07FE000FFC00
07FE000FFC00
03FF001FFC00
03FF803FF800
03FFE0FFF800
01FFFFFFF800
01FFFFFFF000
01FFFFFFF000
03FFFFFFFC00
07FFFFFFFE00
1FFFFFFFFF00
3FFFFFFFFF80
7FFFFFFFFFC0
FFF1FFF9FFE0
7FE03FC0FFE0
3FC000007FC0
1F8000003F80
0F8000001F00
070000001E00
020000000C00
ENDCHAR
STARTCHAR yen
ENCODING 165
SWIDTH 400 0
DWIDTH 51 0
BBX 49 90 1 0
BITMAP
FFFF00001FFF80
7FFF00001FFF00
7FFF00003FFF00
3FFF00003FFF00
3FFF80003FFE00
3FFF80003FFE00
1FFF80007FFE00
1FFFC0007FFC00
1FFFC0007FFC00
0FFFC000FFFC00
0FFFC000FFF800
0FFFE000FFF800
07FFE000FFF800
07FFE001FFF000
07FFF001FFF000
03FFF001FFF000
03FFF003FFE000
03FFF003FFE000
01FFF803FFE000
01FFF803FFC000
01FFF807FFC000
00FFFC07FFC000
00FFFC07FF8000
00FFFC0FFF8000
007FFC0FFF8000
007FFE0FFF0000
007FFE0FFF0000
003FFE1FFF0000
003FFF1FFE0000
003FFF1FFE0000
001FFF3FFE0000
001FFF3FFC0000
001FFFBFFC0000
000FFFBFFC0000
000FFFFFF80000
000FFFFFF80000
0007FFFFF80000
0007FFFFF00000
0007FFFFF00000
0007FFFFF00000
0003FFFFE00000
0003FFFFE00000
0003FFFFE00000
0001FFFFC00000
0001FFFFC00000
0001FFFFC00000
0000FFFF800000
0000FFFF800000
0000FFFF800000
03FFFFFFFFF000
03FFFFFFFFF000
03FFFFFFFFF000
03FFFFFFFFF000
03FFFFFFFFF000
03FFFFFFFFF000
03FFFFFFFFF000
03FFFFFFFFF000
03FFFFFFFFF000
00003FFF000000
00003FFF000000
00003FFF000000
00003FFF000000
00003FFF000000
00003FFF000000
00003FFF000000
00003FFF000000
00003FFF000000
03FFFFFFFFF000
03FFFFFFFFF000
03FFFFFFFFF000
03FFFFFFFFF000
03FFFFFFFFF000
03FFFFFFFFF000
03FFFFFFFFF000
03FFFFFFFFF000
03FFFFFFFFF000
00003FFF000000
00003FFF000000
00003FFF000000
00003FFF000000
00003FFF000000
00003FFF000000
00003FFF000000
00003FFF000000
00003FFF000000
00003FFF000000
00003FFF000000
00003FFF000000
00003FFF000000
00003FFF000000
ENDCHAR
STARTCHAR brokenbar
ENCODING 166
SWIDTH 500 0
DWIDTH 64 0
BBX 12 128 26 -26
BITMAP
FFF0
FFF0
FFF0
FFF0
FFF0
FFF0
FFF0
FFF0
FFF0
FFF0
FFF0
FFF0
FFF0
FFF0
FFF0
FFF0
FFF0
FFF0
FFF0
FFF0
FFF0
FFF0
FFF0
FFF0
FFF0
FFF0
FFF0
FFF0
FFF0
FFF0
FFF0
FFF0
FFF0
FFF0
FFF0
FFF0
FFF0
FFF0
FFF0
FFF0
FFF0
FFF0
FFF0
FFF0
FFF0
FFF0
FFF0
FFF0
FFF0
FFF0
FFF0
0000
0000
0000
0000
0000
0000
0000
0000
0000
0000
0000
0000
0000
0000
0000
0000
0000
0000
0000
0000
0000
0000
0000
0000
0000
0000
FFF0
FFF0
FFF0
FFF0
FFF0
FFF0
FFF0
FFF0
FFF0
FFF0
FFF0
FFF0
FFF0
FFF0
FFF0
FFF0
FFF0
FFF0
FFF0
FFF0
FFF0
FFF0
FFF0
FFF0
FFF0
FFF0
FFF0
FFF0
FFF0
FFF0
FFF0
FFF0
FFF0
FFF0
FFF0
FFF0
FFF0
FFF0
FFF0
FFF0
FFF0
FFF0
FFF0
FFF0
FFF0
FFF0
FFF0
FFF0
FFF0
FFF0
FFF0
ENDCHAR
STARTCHAR section
ENCODING 167
SWIDTH 400 0
DWIDTH 51 0
BBX 45 105 3 -14
BITMAP
00007FF80000
0007FFFF0000
001FFFFFE000
007FFFFFF000
00FFFFFFFC00
01FFFFFFFE00
03FFFFFFFF00
07FFFFFFFF80
0FFFFFFFFF80
0FFFFFFFFFC0
1FFFFFFFFFC0
1FFFFFFFFFE0
3FFFF03FFFE0
3FFFC00FFFE0
3FFF8007FFE0
7FFF0007FFF0
7FFF0003FFF0
7FFE0003FFF0
7FFE0003FFF0
7FFE0003FFF0
7FFE0001FFF0
7FFE0001FFF0
7FFE00000000
7FFF00000000
7FFF00000000
3FFF80000000
3FFFC0000000
3FFFF0000000
1FFFFC000000
1FFFFF000000
0FFFFFE00000
0FFFFFFC0000
07FFFFFF0000
03FFFFFFC000
01FFFFFFF000
00FFFFFFF800
007FFFFFFE00
007FFFFFFF00
01FFFFFFFF80
03FFFFFFFFC0
07FFFFFFFFC0
0FFFFFFFFFE0
1FFFFFFFFFE0
1FFFE0FFFFF0
3FFF803FFFF0
3FFF000FFFF8
7FFE0007FFF8
7FFC0003FFF8
7FFC0001FFF8
FFFC0001FFF8
FFFC0001FFF8
FFFC0000FFF8
FFF80000FFF8
FFF80000FFF8
FFFC0000FFF8
FFFC0000FFF8
FFFC0001FFF8
FFFE0001FFF0
FFFF0001FFF0
7FFF8003FFF0
7FFFC007FFE0
7FFFF00FFFE0
3FFFFC3FFFC0
3FFFFFFFFFC0
1FFFFFFFFF80
1FFFFFFFFF00
0FFFFFFFFE00
07FFFFFFF800
03FFFFFFF000
01FFFFFFF800
007FFFFFFC00
001FFFFFFE00
0007FFFFFF00
0001FFFFFF80
00007FFFFF80
00000FFFFFC0
000001FFFFC0
0000007FFFE0
0000003FFFE0
0000000FFFE0
00000007FFF0
7FFE0007FFF0
7FFE0003FFF0
7FFE0003FFF0
7FFE0003FFF0
7FFE0003FFF0
7FFE0003FFF0
7FFE0003FFF0
7FFE0007FFF0
3FFF0007FFF0
3FFF800FFFF0
3FFFC01FFFE0
3FFFE07FFFE0
1FFFFFFFFFE0
1FFFFFFFFFC0
1FFFFFFFFFC0
0FFFFFFFFF80
07FFFFFFFF00
07FFFFFFFF00
03FFFFFFFE00
01FFFFFFFC00
007FFFFFF000
003FFFFFC000
0007FFFF0000
0000FFF80000
ENDCHAR
STARTCHAR dieresis
ENCODING 168
SWIDTH 500 0
DWIDTH 64 0
BBX 32 13 16 96
BITMAP
FFF00FFF
FFF00FFF
FFF00FFF
FFF00FFF
FFF00FFF
FFF00FFF
FFF00FFF
FFF00FFF
FFF00FFF
FFF00FFF
FFF00FFF
FFF00FFF
FFF00FFF
ENDCHAR
STARTCHAR copyright
ENCODING 169
SWIDTH 738 0
DWIDTH 94 0
BBX 89 92 3 -1
BITMAP
0000000007FFE00000000000
00000000FFFFFF0000000000
00000007FFFFFFF000000000
0000003FFFFFFFFC00000000
000000FFFFFFFFFF00000000
000003FFFFFFFFFFC0000000
000007FFFFFFFFFFF0000000
00001FFFFFFFFFFFF8000000
00003FFFFFFFFFFFFE000000
0000FFFFFC003FFFFF000000
0001FFFF800001FFFF800000
0003FFFE0000003FFFC00000
0007FFF00000000FFFF00000
000FFFC000000003FFF00000
001FFF8000000000FFF80000
003FFE00000000007FFC0000
007FFC00000000003FFE0000
007FF800000000000FFF0000
00FFF00001FF000007FF8000
01FFE0000FFFE00003FF8000
01FFC0001FFFF80001FFC000
03FF80007FFFFC0001FFC000
07FF00007FFFFE0000FFE000
07FF0000FFFFFF00007FF000
0FFE0001FFFFFF00003FF000
0FFC0001FFFFFF80003FF800
1FFC0003FFFFFF80001FF800
1FF80003FFC3FF80001FF800
1FF80003FF00FFC0000FFC00
3FF00003FF00FFC0000FFC00
3FF00007FE007FC00007FC00
3FE00007FE007FC00007FE00
7FE00007FE007FC00007FE00
7FE00007FE007FC00003FE00
7FC00007FE007FC00003FF00
7FC00007FE007FC00003FF00
FFC00007FE007FC00001FF00
FFC00007FE007FC00001FF00
FFC00007FE0000000001FF00
FF800007FE0000000001FF00
FF800007FE0000000001FF00
FF800007FE0000000001FF80
FF800007FE0000000001FF80
FF800007FE0000000001FF80
FF800007FE0000000000FF80
FF800007FE0000000000FF80
FF800007FE0000000000FF80
FF800007FE0000000000FF80
FF800007FE0000000001FF80
FF800007FE0000000001FF80
FF800007FE0000000001FF80
FF800007FE007FC00001FF80
FF800007FE007FC00001FF00
FFC00007FE007FC00001FF00
FFC00007FE007FC00001FF00
FFC00007FE007FC00001FF00
7FC00007FE007FC00003FF00
7FC00007FE007FC00003FF00
7FE00007FE007FC00003FE00
7FE00007FE007FC00007FE00
3FE00007FE007FC00007FE00
3FF00007FE007FC00007FC00
3FF00003FF00FFC0000FFC00
1FF80003FF00FFC0000FFC00
1FF80003FFC3FF80001FF800
1FFC0003FFFFFF80001FF800
0FFC0001FFFFFF80003FF800
0FFE0001FFFFFF00003FF000
07FF0000FFFFFF00007FF000
07FF0000FFFFFE0000FFE000
03FF80007FFFFC0001FFC000
01FFC0001FFFF80001FFC000
01FFE0000FFFE00003FF8000
00FFF00001FF000007FF8000
007FF800000000000FFF0000
007FFC00000000003FFE0000
003FFE00000000007FFC0000
001FFF8000000000FFF80000
000FFFC000000003FFF00000
0007FFF00000000FFFE00000
0003FFFE0000003FFFC00000
0001FFFFC00001FFFF800000
0000FFFFFC001FFFFF000000
00003FFFFFFFFFFFFE000000
00001FFFFFFFFFFFF8000000
000007FFFFFFFFFFF0000000
000003FFFFFFFFFFC0000000
000000FFFFFFFFFF00000000
0000003FFFFFFFFC00000000
00000007FFFFFFF000000000
00000000FFFFFF0000000000
0000000007FFE00000000000
ENDCHAR
STARTCHAR ordfeminine
ENCODING 170
SWIDTH 280 0
DWIDTH 36 0
BBX 27 63 4 29
BITMAP
003FE000
01FFF800
03FFFE00
0FFFFF00
0FFFFF00
1FFFFF80
1FFFFFC0
3FFFFFC0
3FF0FFC0
3FE07FE0
3FC03FE0
7FC03FE0
7FC03FE0
7FC03FE0
7FC03FE0
00003FE0
00003FE0
00003FE0
00003FE0
000FFFE0
00FFFFE0
03FFFFE0
07FFFFE0
0FFFFFE0
1FFFFFE0
3FFFFFE0
7FFC3FE0
7FF03FE0
7FC03FE0
FFC03FE0
FF803FE0
FF803FE0
FF803FE0
FF803FE0
FF803FE0
FF803FE0
FF803FE0
FF807FE0
FFC07FE0
FFE1FFE0
FFFFFFE0
7FFFFFE0
7FFFDFE0
3FFFDFE0
3FFF9FE0
1FFF1FE0
0FFE1FE0
03F80000
00000000
00000000
00000000
00000000
00000000
00000000
FFFFFFE0
FFFFFFE0
FFFFFFE0
FFFFFFE0
FFFFFFE0
FFFFFFE0
FFFFFFE0
FFFFFFE0
FFFFFFE0
ENDCHAR
STARTCHAR guillemotleft
ENCODING 171
SWIDTH 336 0
DWIDTH 43 0
BBX 39 29 2 29
BITMAP
007FF00FFE
007FE00FFC
00FFE01FFC
01FFC03FF8
03FFC07FF8
03FF807FF0
07FF80FFF0
0FFF01FFE0
0FFF01FFE0
1FFE03FFC0
3FFC07FFC0
3FFC07FF80
7FF80FFF80
FFF81FFF00
FFF81FFF00
7FF80FFF00
7FFC0FFF80
3FFC07FF80
1FFE03FFC0
1FFE03FFC0
0FFF01FFE0
07FF00FFE0
07FF80FFF0
03FF807FF0
01FFC03FF8
01FFC03FF8
00FFE01FFC
007FE00FFC
007FF00FFE
ENDCHAR
STARTCHAR logicalnot
ENCODING 172
SWIDTH 400 0
DWIDTH 51 0
BBX 44 27 3 23
BITMAP
FFFFFFFFFFF0
FFFFFFFFFFF0
FFFFFFFFFFF0
FFFFFFFFFFF0
FFFFFFFFFFF0
FFFFFFFFFFF0
FFFFFFFFFFF0
FFFFFFFFFFF0
FFFFFFFFFFF0
FFFFFFFFFFF0
000000003FF0
000000003FF0
000000003FF0
000000003FF0
000000003FF0
000000003FF0
000000003FF0
000000003FF0
000000003FF0
000000003FF0
000000003FF0
000000003FF0
000000003FF0
000000003FF0
000000003FF0
000000003FF0
000000003FF0
ENDCHAR
STARTCHAR uni00AD
ENCODING 173
SWIDTH 270 0
DWIDTH 35 0
BBX 28 13 3 38
BITMAP
FFFFFFF0
FFFFFFF0
FFFFFFF0
FFFFFFF0
FFFFFFF0
FFFFFFF0
FFFFFFF0
FFFFFFF0
FFFFFFF0
FFFFFFF0
FFFFFFF0
FFFFFFF0
FFFFFFF0
ENDCHAR
STARTCHAR registered
ENCODING 174
SWIDTH 738 0
DWIDTH 94 0
BBX 89 92 3 -1
BITMAP
0000000007FFE00000000000
00000000FFFFFF0000000000
00000007FFFFFFF000000000
0000003FFFFFFFFC00000000
000000FFFFFFFFFF00000000
000003FFFFFFFFFFC0000000
000007FFFFFFFFFFF0000000
00001FFFFFFFFFFFF8000000
00003FFFFFFFFFFFFE000000
0000FFFFFC003FFFFF000000
0001FFFF800001FFFF800000
0003FFFE0000003FFFC00000
0007FFF00000000FFFF00000
000FFFC000000003FFF00000
001FFF8000000000FFF80000
003FFE00000000007FFC0000
007FFC00000000003FFE0000
007FF800000000000FFF0000
00FFF003FFFFC00007FF8000
01FFE003FFFFF80003FF8000
01FFC003FFFFFE0001FFC000
03FF8003FFFFFF0001FFC000
07FF0003FFFFFF8000FFE000
07FF0003FFFFFF80007FF000
0FFE0003FFFFFFC0003FF000
0FFC0003FFFFFFC0003FF800
1FFC0003FFFFFFE0001FF800
1FF80003FF01FFE0001FF800
1FF80003FF00FFE0000FFC00
3FF00003FF007FE0000FFC00
3FF00003FF007FE00007FC00
3FE00003FF003FE00007FE00
7FE00003FF003FE00007FE00
7FE00003FF003FE00003FE00
7FC00003FF003FE00003FF00
7FC00003FF003FE00003FF00
FFC00003FF003FE00001FF00
FFC00003FF003FE00001FF00
FFC00003FF007FE00001FF00
FF800003FF007FE00001FF00
FF800003FF00FFC00001FF00
FF800003FF01FFC00001FF80
FF800003FFFFFF800001FF80
FF800003FFFFFF000001FF80
FF800003FFFFFE000000FF80
FF800003FFFFF8000000FF80
FF800003FFFFFC000000FF80
FF800003FFFFFE000000FF80
FF800003FFFFFF000001FF80
FF800003FFFFFF800001FF80
FF800003FFFFFFC00001FF80
FF800003FF03FFC00001FF80
FF800003FF00FFE00001FF00
FFC00003FF007FE00001FF00
FFC00003FF007FE00001FF00
FFC00003FF007FE00001FF00
7FC00003FF003FE00003FF00
7FC00003FF003FE00003FF00
7FE00003FF003FE00003FE00
7FE00003FF003FE00007FE00
3FE00003FF003FE00007FE00
3FF00003FF003FE00007FC00
3FF00003FF003FE0000FFC00
1FF80003FF003FE0000FFC00
1FF80003FF003FE0001FF800
1FFC0003FF003FE0001FF800
0FFC0003FF003FE0003FF800
0FFE0003FF003FF0003FF000
07FF0003FF003FF0007FF000
07FF0003FF003FF000FFE000
03FF8003FF003FF001FFC000
01FFC003FF003FF001FFC000
01FFE003FF003FF003FF8000
00FFF0000000000807FF8000
007FF800000000000FFF0000
007FFC00000000003FFE0000
003FFE00000000007FFC0000
001FFF8000000000FFF80000
000FFFC000000003FFF00000
0007FFF00000000FFFE00000
0003FFFE0000003FFFC00000
0001FFFFC00001FFFF800000
0000FFFFFC001FFFFF000000
00003FFFFFFFFFFFFE000000
00001FFFFFFFFFFFF8000000
000007FFFFFFFFFFF0000000
000003FFFFFFFFFFC0000000
000000FFFFFFFFFF00000000
0000003FFFFFFFFC00000000
00000007FFFFFFF000000000
00000000FFFFFF0000000000
0000000007FFE00000000000
ENDCHAR
STARTCHAR macron
ENCODING 175
SWIDTH 500 0
DWIDTH 64 0
BBX 30 10 17 97
BITMAP
FFFFFFFC
FFFFFFFC
FFFFFFFC
FFFFFFFC
FFFFFFFC
FFFFFFFC
FFFFFFFC
FFFFFFFC
FFFFFFFC
FFFFFFFC
ENDCHAR
STARTCHAR degree
ENCODING 176
SWIDTH 400 0
DWIDTH 51 0
BBX 33 32 9 58
BITMAP
000FF80000
003FFF0000
00FFFF8000
03FFFFE000
07FFFFF000
0FFFFFF800
1FFFFFFC00
1FFFFFFC00
3FFFFFFE00
3FFC1FFF00
7FF007FF00
7FE003FF00
7FE001FF00
FFC001FF80
FFC001FF80
FFC001FF80
FFC001FF80
FFC001FF80
7FE001FF80
7FE003FF80
7FF007FF00
7FFC1FFF00
3FFFFFFF00
3FFFFFFE00
1FFFFFFC00
1FFFFFFC00
0FFFFFF800
07FFFFF000
03FFFFE000
00FFFF8000
007FFF0000
000FF80000
ENDCHAR
STARTCHAR plusminus
ENCODING 177
SWIDTH 400 0
DWIDTH 51 0
BBX 41 49 5 21
BITMAP
0001FF800000
0001FF800000
0001FF800000
0001FF800000
0001FF800000
0001FF800000
0001FF800000
0001FF800000
0001FF800000
0001FF800000
0001FF800000
0001FF800000
0001FF800000
0001FF800000
0001FF800000
FFFFFFFFFF80
FFFFFFFFFF80
FFFFFFFFFF80
FFFFFFFFFF80
FFFFFFFFFF80
FFFFFFFFFF80
FFFFFFFFFF80
FFFFFFFFFF80
FFFFFFFFFF80
FFFFFFFFFF80
0001FF800000
0001FF800000
0001FF800000
0001FF800000
0001FF800000
0001FF800000
0001FF800000
0001FF800000
0001FF800000
0001FF800000
0001FF800000
0001FF800000
0001FF800000
0001FF800000
FFFFFFFFFF80
FFFFFFFFFF80
FFFFFFFFFF80
FFFFFFFFFF80
FFFFFFFFFF80
FFFFFFFFFF80
FFFFFFFFFF80
FFFFFFFFFF80
FFFFFFFFFF80
FFFFFFFFFF80
ENDCHAR
STARTCHAR uni00B2
ENCODING 178
SWIDTH 282 0
DWIDTH 36 0
BBX 26 58 5 45
BITMAP
007FC000
03FFF000
0FFFFC00
1FFFFE00
1FFFFF00
3FFFFF80
7FFFFF80
7FFFFF80
7FE1FFC0
FF80FFC0
FF807FC0
FF807FC0
FF007FC0
FF003FC0
FF003FC0
FF007FC0
FF007FC0
FF007FC0
FF007FC0
00007FC0
0000FFC0
0000FF80
0000FF80
0001FF00
0003FF00
0003FE00
0007FE00
000FFC00
001FF800
003FF800
007FF000
007FE000
00FFC000
01FF8000
03FF8000
07FF0000
0FFE0000
0FFC0000
1FF80000
1FF00000
3FE00000
3FE00000
7FC00000
7FC00000
7F800000
FF800000
FF800000
FF800000
FF800000
FF800000
FFFFFFC0
FFFFFFC0
FFFFFFC0
FFFFFFC0
FFFFFFC0
FFFFFFC0
FFFFFFC0
FFFFFFC0
ENDCHAR
STARTCHAR uni00B3
ENCODING 179
SWIDTH 282 0
DWIDTH 36 0
BBX 27 59 4 44
BITMAP
007FC000
01FFF800
07FFFC00
0FFFFE00
1FFFFF00
3FFFFF80
3FFFFF80
7FFFFFC0
7FE0FFC0
7FC07FC0
7F807FE0
FF803FE0
FF803FE0
FF803FE0
FF803FE0
FF803FE0
FF803FE0
00003FE0
00003FE0
00003FE0
00003FE0
00007FC0
00007FC0
0001FFC0
007FFF80
007FFF00
007FFE00
007FF800
007FFC00
007FFE00
007FFF00
007FFF80
0001FF80
0000FFC0
00007FC0
00003FE0
00003FE0
00003FE0
00003FE0
00003FE0
FF803FE0
FF803FE0
FF803FE0
FF803FE0
FF803FE0
FF803FE0
FF803FE0
FF803FE0
7F807FE0
7FC07FC0
7FE0FFC0
7FFFFFC0
3FFFFF80
3FFFFF80
1FFFFF00
0FFFFE00
07FFFC00
01FFF800
007FC000
ENDCHAR
STARTCHAR acute
ENCODING 180
SWIDTH 500 0
DWIDTH 64 0
BBX 25 15 24 96
BITMAP
007FFF80
00FFFE00
00FFFC00
01FFF800
01FFF800
03FFF000
07FFE000
07FFC000
0FFF8000
0FFF0000
1FFE0000
3FFC0000
3FF80000
7FF00000
FFE00000
ENDCHAR
STARTCHAR uni00B5
ENCODING 181
SWIDTH 405 0
DWIDTH 52 0
BBX 42 84 5 -20
BITMAP
FFFC000FFFC0
FFFC000FFFC0
FFFC000FFFC0
FFFC000FFFC0
FFFC000FFFC0
FFFC000FFFC0
FFFC000FFFC0
FFFC000FFFC0
FFFC000FFFC0
FFFC000FFFC0
FFFC000FFFC0
FFFC000FFFC0
FFFC000FFFC0
FFFC000FFFC0
FFFC000FFFC0
FFFC000FFFC0
FFFC000FFFC0
FFFC000FFFC0
FFFC000FFFC0
FFFC000FFFC0
FFFC000FFFC0
FFFC000FFFC0
FFFC000FFFC0
FFFC000FFFC0
FFFC000FFFC0
FFFC000FFFC0
FFFC000FFFC0
FFFC000FFFC0
FFFC000FFFC0
FFFC000FFFC0
FFFC000FFFC0
FFFC000FFFC0
FFFC000FFFC0
FFFC000FFFC0
FFFC000FFFC0
FFFC000FFFC0
FFFC000FFFC0
FFFC000FFFC0
FFFC000FFFC0
FFFC000FFFC0
FFFC000FFFC0
FFFC000FFFC0
FFFC000FFFC0
FFFC000FFFC0
FFFC000FFFC0
FFFC000FFFC0
FFFC000FFFC0
FFFE000FFFC0
FFFE001FFFC0
FFFE001FFFC0
FFFF003FFFC0
FFFFC0FFFFC0
FFFFFFFFFFC0
FFFFFFFFFFC0
FFFFFFFFFFC0
FFFFFFFFFFC0
FFFFFFFFFFC0
FFFFFFFFFFC0
FFFFFFFBFFC0
FFFFFFF3FFC0
FFFFFFE3FFC0
FFFFFFC3FFC0
FFFFFF03FFC0
FFFFF803FFC0
FFFC00000000
FFFC00000000
FFFC00000000
FFFC00000000
FFFC00000000
FFFC00000000
FFFC00000000
FFFC00000000
FFFC00000000
FFFC00000000
FFFC00000000
FFFC00000000
FFFC00000000
FFFC00000000
FFFC00000000
FFFC00000000
FFFC00000000
FFFC00000000
FFFC00000000
FFFC00000000
ENDCHAR
STARTCHAR paragraph
ENCODING 182
SWIDTH 449 0
DWIDTH 57 0
BBX 48 102 3 -12
BITMAP
00003FFFFFFF
0003FFFFFFFF
000FFFFFFFFF
003FFFFFFFFF
00FFFFFFFFFF
01FFFFFFFFFF
03FFFFFFFFFF
07FFFFFFFFFF
0FFFFFFFFFFF
0FFFFFFFFFFF
1FFFFFFC07FF
3FFFFFFC07FF
3FFFFFFC07FF
3FFFFFFC07FF
7FFFFFFC07FF
7FFFFFFC07FF
7FFFFFFC07FF
7FFFFFFC07FF
FFFFFFFC07FF
FFFFFFFC07FF
FFFFFFFC07FF
FFFFFFFC07FF
FFFFFFFC07FF
FFFFFFFC07FF
FFFFFFFC07FF
FFFFFFFC07FF
FFFFFFFC07FF
FFFFFFFC07FF
FFFFFFFC07FF
FFFFFFFC07FF
FFFFFFFC07FF
FFFFFFFC07FF
7FFFFFFC07FF
7FFFFFFC07FF
7FFFFFFC07FF
7FFFFFFC07FF
7FFFFFFC07FF
3FFFFFFC07FF
3FFFFFFC07FF
1FFFFFFC07FF
1FFFFFFC07FF
0FFFFFFC07FF
0FFFFFFC07FF
07FFFFFC07FF
03FFFFFC07FF
01FFFFFC07FF
00FFFFFC07FF
007FFFFC07FF
001FFFFC07FF
0007FFFC07FF
00001FFC07FF
00001FFC07FF
00001FFC07FF
00001FFC07FF
00001FFC07FF
00001FFC07FF
00001FFC07FF
00001FFC07FF
00001FFC07FF
00001FFC07FF
00001FFC07FF
00001FFC07FF
00001FFC07FF
00001FFC07FF
00001FFC07FF
00001FFC07FF
00001FFC07FF
00001FFC07FF
00001FFC07FF
00001FFC07FF
00001FFC07FF
00001FFC07FF
00001FFC07FF
00001FFC07FF
00001FFC07FF
00001FFC07FF
00001FFC07FF
00001FFC07FF
00001FFC07FF
00001FFC07FF
00001FFC07FF
00001FFC07FF
00001FFC07FF
00001FFC07FF
00001FFC07FF
00001FFC07FF
00001FFC07FF
00001FFC07FF
00001FFC07FF
00001FFC07FF
00001FFC07FF
00001FFC07FF
00001FFC07FF
00001FFC07FF
00001FFC07FF
00001FFC07FF
00001FFC07FF
00001FFC07FF
00001FFC07FF
00001FFC07FF
00001FFC07FF
00001FFC07FF
ENDCHAR
STARTCHAR periodcentered
ENCODING 183
SWIDTH 188 0
DWIDTH 24 0
BBX 14 14 5 38
BITMAP
FFFC
FFFC
FFFC
FFFC
FFFC
FFFC
FFFC
FFFC
FFFC
FFFC
FFFC
FFFC
FFFC
FFFC
ENDCHAR
STARTCHAR cedilla
ENCODING 184
SWIDTH 500 0
DWIDTH 64 0
BBX 26 21 19 -19
BITMAP
001F8000
001F8000
001F8000
001F8000
001F8000
001F8000
001F8000
001FFC00
001FFF00
0003FF80
0001FF80
0000FFC0
FFC0FFC0
FFC0FFC0
FFC0FFC0
7FE3FF80
7FFFFF80
7FFFFF80
3FFFFF00
0FFFFC00
01FFE000
ENDCHAR
STARTCHAR uni00B9
ENCODING 185
SWIDTH 282 0
DWIDTH 36 0
BBX 19 57 7 45
BITMAP
0007E0
000FE0
000FE0
001FE0
003FE0
007FE0
03FFE0
FFFFE0
FFFFE0
FFFFE0
FFFFE0
FFFFE0
FFFFE0
003FE0
003FE0
003FE0
003FE0
003FE0
003FE0
003FE0
003FE0
003FE0
003FE0
003FE0
003FE0
003FE0
003FE0
003FE0
003FE0
003FE0
003FE0
003FE0
003FE0
003FE0
003FE0
003FE0
003FE0
003FE0
003FE0
003FE0
003FE0
003FE0
003FE0
003FE0
003FE0
003FE0
003FE0
003FE0
003FE0
003FE0
003FE0
003FE0
003FE0
003FE0
003FE0
003FE0
003FE0
ENDCHAR
STARTCHAR ordmasculine
ENCODING 186
SWIDTH 282 0
DWIDTH 36 0
BBX 28 63 4 29
BITMAP
007FE000
01FFF800
07FFFE00
0FFFFF00
1FFFFF80
1FFFFFC0
3FFFFFC0
3FFFFFE0
7FF0FFE0
7FC03FE0
7FC03FE0
7FC03FE0
7F801FF0
FF801FF0
FF801FF0
FF801FF0
FF801FF0
FF801FF0
FF801FF0
FF801FF0
FF801FF0
FF801FF0
FF801FF0
FF801FF0
FF801FF0
FF801FF0
FF801FF0
FF801FF0
FF801FF0
FF801FF0
FF801FF0
FF801FF0
FF801FF0
FF801FF0
FF801FF0
7F801FF0
7FC03FE0
7FC03FE0
7FC03FE0
7FF0FFE0
3FFFFFC0
3FFFFFC0
1FFFFF80
1FFFFF80
0FFFFF00
07FFFE00
01FFF800
003FE000
00000000
00000000
00000000
00000000
00000000
00000000
FFFFFFF0
FFFFFFF0
FFFFFFF0
FFFFFFF0
FFFFFFF0
FFFFFFF0
FFFFFFF0
FFFFFFF0
FFFFFFF0
ENDCHAR
STARTCHAR guillemotright
ENCODING 187
SWIDTH 335 0
DWIDTH 43 0
BBX 39 29 2 29
BITMAP
FFE01FFC00
7FE00FFC00
7FF00FFE00
3FF807FF00
3FFC07FF00
1FFC03FF80
1FFE03FFC0
0FFF01FFE0
0FFF01FFE0
07FF80FFF0
07FFC0FFF8
03FFC07FF8
01FFE07FFC
01FFF03FFE
01FFF03FFE
01FFE03FFC
03FFE07FFC
03FFC07FF8
07FF80FFF0
07FF80FFF0
0FFF01FFE0
0FFE01FFC0
1FFE03FFC0
1FFC03FF80
3FF807FF00
3FF807FF00
7FF00FFE00
7FE00FFC00
FFE01FFC00
ENDCHAR
STARTCHAR onequarter
ENCODING 188
SWIDTH 653 0
DWIDTH 84 0
BBX 74 90 7 0
BITMAP
0007E0000001FF800000
000FE0000001FF000000
000FE0000001FF000000
001FE0000003FE000000
003FE0000003FE000000
007FE0000003FE000000
03FFE0000007FC000000
FFFFE0000007FC000000
FFFFE000000FF8000000
FFFFE000000FF8000000
FFFFE000000FF8000000
FFFFE000001FF0000000
FFFFE000001FF0000000
003FE000003FE0000000
003FE000003FE0000000
003FE000003FE0000000
003FE000007FC0000000
003FE000007FC0000000
003FE000007F80000000
003FE00000FF80000000
003FE00000FF80000000
003FE00001FF00000000
003FE00001FF00000000
003FE00001FF00000000
003FE00003FE00000000
003FE00003FE00000000
003FE00007FC00000000
003FE00007FC00000000
003FE00007FC00000000
003FE0000FF800000000
003FE0000FF800000000
003FE0001FF000000000
003FE0001FF000000000
003FE0001FF0001FF800
003FE0003FE0001FF800
003FE0003FE0001FF800
003FE0003FE0003FF800
003FE0007FC0003FF800
003FE0007FC0007FF800
003FE000FF80007FF800
003FE000FF80007FF800
003FE000FF8000FFF800
003FE001FF0000FFF800
003FE001FF0001FFF800
003FE003FE0001FFF800
003FE003FE0003FFF800
003FE003FE0003FFF800
003FE007FC0003FFF800
003FE007FC0007FFF800
003FE007FC0007FFF800
003FE00FF8000FF7F800
003FE00FF8000FF7F800
003FE01FF0000FE7F800
003FE01FF0001FE7F800
003FE01FF0001FC7F800
003FE03FE0003FC7F800
003FE03FE0003FC7F800
0000007FC0007F87F800
0000007FC0007F87F800
0000007FC0007F07F800
000000FF8000FF07F800
000000FF8000FF07F800
000000FF8001FE07F800
000001FF0001FE07F800
000001FF0001FC07F800
000003FE0003FC07F800
000003FE0003FC07F800
000003FE0007F807F800
000007FC0007F807F800
000007FC000FF007F800
00000FF8000FF007F800
00000FF8000FF007F800
00000FF8001FFFFFFFC0
00001FF0001FFFFFFFC0
00001FF0001FFFFFFFC0
00001FF0001FFFFFFFC0
00003FE0001FFFFFFFC0
00003FE0001FFFFFFFC0
00007FC0001FFFFFFFC0
00007FC0001FFFFFFFC0
00007FC00000000FF800
0000FF800000000FF800
0000FF800000000FF800
0001FF000000000FF800
0001FF000000000FF800
0001FF000000000FF800
0003FE000000000FF800
0003FE000000000FF800
0003FE000000000FF800
0007FC000000000FF800
ENDCHAR
STARTCHAR onehalf
ENCODING 189
SWIDTH 653 0
DWIDTH 84 0
BBX 72 90 7 0
BITMAP
0007E0000001FF8000
000FE0000001FF0000
000FE0000001FF0000
001FE0000003FE0000
003FE0000003FE0000
007FE0000003FE0000
03FFE0000007FC0000
FFFFE0000007FC0000
FFFFE000000FF80000
FFFFE000000FF80000
FFFFE000000FF80000
FFFFE000001FF00000
FFFFE000001FF00000
003FE000003FE00000
003FE000003FE00000
003FE000003FE00000
003FE000007FC00000
003FE000007FC00000
003FE000007F800000
003FE00000FF800000
003FE00000FF800000
003FE00001FF000000
003FE00001FF000000
003FE00001FF000000
003FE00003FE000000
003FE00003FE000000
003FE00007FC000000
003FE00007FC000000
003FE00007FC000000
003FE0000FF8000000
003FE0000FF8000000
003FE0001FF0000000
003FE0001FF003FE00
003FE0001FF00FFFC0
003FE0003FE03FFFE0
003FE0003FE07FFFF8
003FE0003FE0FFFFF8
003FE0007FC1FFFFFC
003FE0007FC1FFFFFE
003FE000FF83FFFFFE
003FE000FF83FF07FE
003FE000FF83FE03FF
003FE001FF03FC03FF
003FE001FF07FC01FF
003FE003FE07FC01FF
003FE003FE07FC01FF
003FE003FE07FC01FF
003FE007FC07FC01FF
003FE007FC07FC01FF
003FE007FC07FC01FF
003FE00FF807FC03FE
003FE00FF8000003FE
003FE01FF0000003FE
003FE01FF0000007FE
003FE01FF0000007FC
003FE03FE000000FFC
003FE03FE000000FF8
0000007FC000001FF8
0000007FC000003FF0
0000007FC000003FF0
000000FF8000007FE0
000000FF800000FFC0
000000FF800001FF80
000001FF000003FF80
000001FF000007FF00
000003FE00000FFE00
000003FE00001FFC00
000003FE00001FF800
000007FC00003FF000
000007FC00007FE000
00000FF800007FE000
00000FF80000FFC000
00000FF80001FF8000
00001FF00001FF0000
00001FF00001FF0000
00001FF00003FE0000
00003FE00003FE0000
00003FE00003FE0000
00007FC00003FC0000
00007FC00003FC0000
00007FC00007FC0000
0000FF800007FC0000
0000FF800007FFFFFE
0001FF000007FFFFFE
0001FF000007FFFFFE
0001FF000007FFFFFE
0003FE000007FFFFFE
0003FE000007FFFFFE
0003FE000007FFFFFE
0007FC000007FFFFFE
ENDCHAR
STARTCHAR threequarters
ENCODING 190
SWIDTH 653 0
DWIDTH 84 0
BBX 77 91 4 0
BITMAP
007FC000000000000000
01FFF80000003FF00000
07FFFC0000003FE00000
0FFFFE0000003FE00000
1FFFFF0000007FC00000
3FFFFF8000007FC00000
3FFFFF8000007FC00000
7FFFFFC00000FF800000
7FE0FFC00000FF800000
7FC07FC00001FF000000
7F807FE00001FF000000
FF803FE00001FF000000
FF803FE00003FE000000
FF803FE00003FE000000
FF803FE00007FC000000
FF803FE00007FC000000
FF803FE00007FC000000
00003FE0000FF8000000
00003FE0000FF8000000
00003FE0000FF0000000
00003FE0001FF0000000
00007FC0001FF0000000
00007FC0003FE0000000
0001FFC0003FE0000000
007FFF80003FE0000000
007FFF00007FC0000000
007FFE00007FC0000000
007FF80000FF80000000
007FFC0000FF80000000
007FFE0000FF80000000
007FFF0001FF00000000
007FFF8001FF00000000
0001FF8003FE00000000
00007FC003FE00000000
00007FC003FE0003FF00
00003FE007FC0003FF00
00003FE007FC0003FF00
00003FE007FC0007FF00
00003FE00FF80007FF00
00003FE00FF8000FFF00
FF803FE01FF0000FFF00
FF803FE01FF0000FFF00
FF803FE01FF0001FFF00
FF803FE03FE0001FFF00
FF803FE03FE0003FFF00
FF803FE07FC0003FFF00
FF803FE07FC0007FFF00
FF803FE07FC0007FFF00
7F807FE0FF80007FFF00
7FC07FC0FF8000FFFF00
7FE0FFC0FF8000FFFF00
7FFFFFC1FF0001FEFF00
3FFFFF81FF0001FEFF00
3FFFFF83FE0001FCFF00
1FFFFF03FE0003FCFF00
0FFFFE03FE0003F8FF00
07FFFC07FC0007F8FF00
01FFF807FC0007F8FF00
007FC00FF8000FF0FF00
0000000FF8000FF0FF00
0000000FF8000FE0FF00
0000001FF0001FE0FF00
0000001FF0001FE0FF00
0000001FF0003FC0FF00
0000003FE0003FC0FF00
0000003FE0003F80FF00
0000007FC0007F80FF00
0000007FC0007F80FF00
0000007FC000FF00FF00
000000FF8000FF00FF00
000000FF8001FE00FF00
000001FF0001FE00FF00
000001FF0001FE00FF00
000001FF0003FFFFFFF8
000003FE0003FFFFFFF8
000003FE0003FFFFFFF8
000003FE0003FFFFFFF8
000007FC0003FFFFFFF8
000007FC0003FFFFFFF8
00000FF80003FFFFFFF8
00000FF80003FFFFFFF8
00000FF800000001FF00
00001FF000000001FF00
00001FF000000001FF00
00003FE000000001FF00
00003FE000000001FF00
00003FE000000001FF00
00007FC000000001FF00
00007FC000000001FF00
00007FC000000001FF00
0000FF8000000001FF00
ENDCHAR
STARTCHAR questiondown
ENCODING 191
SWIDTH 363 0
DWIDTH 46 0
BBX 41 91 3 -1
BITMAP
0000FFF80000
0000FFF80000
0000FFF80000
0000FFF80000
0000FFF80000
0000FFF80000
0000FFF80000
0000FFF80000
0000FFF80000
0000FFF80000
0000FFF80000
0000FFF80000
0000FFF80000
0000FFF80000
000000000000
000000000000
000000000000
000000000000
000000000000
000000000000
000000000000
000000000000
000000000000
000000000000
0000FFF00000
0000FFF00000
0000FFF00000
0000FFF00000
0000FFF00000
0000FFF00000
0000FFF00000
0000FFF00000
0000FFF00000
0001FFF00000
0001FFF00000
0001FFF00000
0003FFF00000
0003FFE00000
0007FFE00000
0007FFE00000
000FFFC00000
001FFFC00000
001FFF800000
003FFF800000
007FFF000000
007FFE000000
00FFFE000000
01FFFC000000
03FFF8000000
03FFF8000000
07FFF0000000
07FFE0000000
0FFFE0000000
1FFFC0000000
1FFFC0000000
3FFF80000000
3FFF80000000
3FFF00000000
7FFF00000000
7FFE00000000
7FFE000FFF80
FFFE000FFF80
FFFC000FFF80
FFFC000FFF80
FFFC000FFF80
FFFC000FFF80
FFFC000FFF80
FFFC000FFF80
FFFC000FFF80
FFFC000FFF80
FFFC000FFF80
FFFC000FFF80
FFFC001FFF80
FFFC001FFF80
FFFC001FFF80
FFFE003FFF00
FFFF003FFF00
7FFF80FFFF00
7FFFFFFFFF00
7FFFFFFFFE00
3FFFFFFFFE00
3FFFFFFFFC00
1FFFFFFFFC00
1FFFFFFFF800
0FFFFFFFF000
07FFFFFFF000
03FFFFFFC000
01FFFFFF8000
007FFFFF0000
001FFFF80000
0001FFC00000
ENDCHAR
STARTCHAR Agrave
ENCODING 192
SWIDTH 401 0
DWIDTH 51 0
BBX 48 111 2 0
BITMAP
01FFFE000000
00FFFE000000
007FFF000000
003FFF800000
001FFF800000
000FFFC00000
0007FFC00000
0003FFE00000
0001FFF00000
0000FFF00000
00007FF80000
00003FF80000
00001FFC0000
00001FFE0000
00000FFE0000
000000000000
000000000000
000000000000
000000000000
000000000000
000000000000
0003FFFF8000
0003FFFF8000
0003FFFFC000
0003FFFFC000
0007FFFFC000
0007FFFFC000
0007FFFFC000
0007FFFFC000
0007FFFFE000
0007FFFFE000
000FFFFFE000
000FFFFFE000
000FFFFFE000
000FFFFFE000
000FFFFFF000
000FFFFFF000
001FFFFFF000
001FFFFFF000
001FFEFFF000
001FFCFFF000
001FFCFFF800
001FFCFFF800
003FFCFFF800
003FFCFFF800
003FFCFFF800
003FFC7FF800
003FF87FF800
003FF87FFC00
007FF87FFC00
007FF87FFC00
007FF87FFC00
007FF87FFC00
007FF83FFC00
007FF83FFE00
007FF03FFE00
00FFF03FFE00
00FFF03FFE00
00FFF03FFE00
00FFF03FFE00
00FFF01FFF00
00FFF01FFF00
01FFE01FFF00
01FFE01FFF00
01FFE01FFF00
01FFE01FFF00
01FFE01FFF80
01FFE00FFF80
03FFE00FFF80
03FFC00FFF80
03FFC00FFF80
03FFC00FFF80
03FFC00FFFC0
03FFC00FFFC0
07FFC007FFC0
07FFC007FFC0
07FF8007FFC0
07FF8007FFC0
07FF8007FFE0
07FF8007FFE0
0FFF8007FFE0
0FFFFFFFFFE0
0FFFFFFFFFE0
0FFFFFFFFFE0
0FFFFFFFFFE0
0FFFFFFFFFF0
1FFFFFFFFFF0
1FFFFFFFFFF0
1FFFFFFFFFF0
1FFFFFFFFFF0
1FFFFFFFFFF0
1FFFFFFFFFF8
1FFFFFFFFFF8
3FFE0001FFF8
3FFE0001FFF8
3FFE0000FFF8
3FFE0000FFF8
3FFE0000FFFC
3FFC0000FFFC
7FFC0000FFFC
7FFC0000FFFC
7FFC0000FFFC
7FFC00007FFC
7FFC00007FFE
7FFC00007FFE
FFF800007FFE
FFF800007FFE
FFF800007FFE
FFF800007FFE
FFF800007FFF
FFF800003FFF
ENDCHAR
STARTCHAR Aacute
ENCODING 193
SWIDTH 401 0
DWIDTH 51 0
BBX 48 111 2 0
BITMAP
0000007FFF00
000000FFFE00
000000FFFC00
000001FFF800
000003FFF000
000003FFE000
000007FFC000
000007FFC000
00000FFF8000
00001FFF0000
00001FFE0000
00003FFC0000
00003FF80000
00007FF00000
0000FFE00000
000000000000
000000000000
000000000000
000000000000
000000000000
000000000000
0003FFFF8000
0003FFFF8000
0003FFFFC000
0003FFFFC000
0007FFFFC000
0007FFFFC000
0007FFFFC000
0007FFFFC000
0007FFFFE000
0007FFFFE000
000FFFFFE000
000FFFFFE000
000FFFFFE000
000FFFFFE000
000FFFFFF000
000FFFFFF000
001FFFFFF000
001FFFFFF000
001FFEFFF000
001FFCFFF000
001FFCFFF800
001FFCFFF800
003FFCFFF800
003FFCFFF800
003FFCFFF800
003FFC7FF800
003FF87FF800
003FF87FFC00
007FF87FFC00
007FF87FFC00
007FF87FFC00
007FF87FFC00
007FF83FFC00
007FF83FFE00
007FF03FFE00
00FFF03FFE00
00FFF03FFE00
00FFF03FFE00
00FFF03FFE00
00FFF01FFF00
00FFF01FFF00
01FFE01FFF00
01FFE01FFF00
01FFE01FFF00
01FFE01FFF00
01FFE01FFF80
01FFE00FFF80
03FFE00FFF80
03FFC00FFF80
03FFC00FFF80
03FFC00FFF80
03FFC00FFFC0
03FFC00FFFC0
07FFC007FFC0
07FFC007FFC0
07FF8007FFC0
07FF8007FFC0
07FF8007FFE0
07FF8007FFE0
0FFF8007FFE0
0FFFFFFFFFE0
0FFFFFFFFFE0
0FFFFFFFFFE0
0FFFFFFFFFE0
0FFFFFFFFFF0
1FFFFFFFFFF0
1FFFFFFFFFF0
1FFFFFFFFFF0
1FFFFFFFFFF0
1FFFFFFFFFF0
1FFFFFFFFFF8
1FFFFFFFFFF8
3FFE0001FFF8
3FFE0001FFF8
3FFE0000FFF8
3FFE0000FFF8
3FFE0000FFFC
3FFC0000FFFC
7FFC0000FFFC
7FFC0000FFFC
7FFC0000FFFC
7FFC00007FFC
7FFC00007FFE
7FFC00007FFE
FFF800007FFE
FFF800007FFE
FFF800007FFE
FFF800007FFE
FFF800007FFF
FFF800003FFF
ENDCHAR
STARTCHAR Acircumflex
ENCODING 194
SWIDTH 401 0
DWIDTH 51 0
BBX 48 111 2 0
BITMAP
00007FFE0000
0000FFFE0000
0001FFFF0000
0001FFFF8000
0003FFFFC000
0007FFFFC000
0007FFFFE000
000FFFFFF000
001FFEFFF000
003FFC7FF800
003FF83FFC00
007FF01FFC00
00FFE00FFE00
00FFE007FF00
01FFC003FF80
000000000000
000000000000
000000000000
000000000000
000000000000
000000000000
0003FFFF8000
0003FFFF8000
0003FFFFC000
0003FFFFC000
0007FFFFC000
0007FFFFC000
0007FFFFC000
0007FFFFC000
0007FFFFE000
0007FFFFE000
000FFFFFE000
000FFFFFE000
000FFFFFE000
000FFFFFE000
000FFFFFF000
000FFFFFF000
001FFFFFF000
001FFFFFF000
001FFEFFF000
001FFCFFF000
001FFCFFF800
001FFCFFF800
003FFCFFF800
003FFCFFF800
003FFCFFF800
003FFC7FF800
003FF87FF800
003FF87FFC00
007FF87FFC00
007FF87FFC00
007FF87FFC00
007FF87FFC00
007FF83FFC00
007FF83FFE00
007FF03FFE00
00FFF03FFE00
00FFF03FFE00
00FFF03FFE00
00FFF03FFE00
00FFF01FFF00
00FFF01FFF00
01FFE01FFF00
01FFE01FFF00
01FFE01FFF00
01FFE01FFF00
01FFE01FFF80
01FFE00FFF80
03FFE00FFF80
03FFC00FFF80
03FFC00FFF80
03FFC00FFF80
03FFC00FFFC0
03FFC00FFFC0
07FFC007FFC0
07FFC007FFC0
07FF8007FFC0
07FF8007FFC0
07FF8007FFE0
07FF8007FFE0
0FFF8007FFE0
0FFFFFFFFFE0
0FFFFFFFFFE0
0FFFFFFFFFE0
0FFFFFFFFFE0
0FFFFFFFFFF0
1FFFFFFFFFF0
1FFFFFFFFFF0
1FFFFFFFFFF0
1FFFFFFFFFF0
1FFFFFFFFFF0
1FFFFFFFFFF8
1FFFFFFFFFF8
3FFE0001FFF8
3FFE0001FFF8
3FFE0000FFF8
3FFE0000FFF8
3FFE0000FFFC
3FFC0000FFFC
7FFC0000FFFC
7FFC0000FFFC
7FFC0000FFFC
7FFC00007FFC
7FFC00007FFE
7FFC00007FFE
FFF800007FFE
FFF800007FFE
FFF800007FFE
FFF800007FFE
FFF800007FFF
FFF800003FFF
ENDCHAR
STARTCHAR Atilde
ENCODING 195
SWIDTH 401 0
DWIDTH 51 0
BBX 48 111 2 0
BITMAP
000000002000
0001F8003800
0007FF007E00
001FFFC07F00
003FFFF1FFC0
007FFFFFFF80
007FFFFFFF00
00FFFFFFFF00
00FFFFFFFE00
01FFFFFFFE00
01FFFFFFFC00
03FF0FFFF800
01FE03FFF000
007C00FFE000
0038003F8000
000800000000
000000000000
000000000000
000000000000
000000000000
000000000000
0003FFFF8000
0003FFFF8000
0003FFFFC000
0003FFFFC000
0007FFFFC000
0007FFFFC000
0007FFFFC000
0007FFFFC000
0007FFFFE000
0007FFFFE000
000FFFFFE000
000FFFFFE000
000FFFFFE000
000FFFFFE000
000FFFFFF000
000FFFFFF000
001FFFFFF000
001FFFFFF000
001FFEFFF000
001FFCFFF000
001FFCFFF800
001FFCFFF800
003FFCFFF800
003FFCFFF800
003FFCFFF800
003FFC7FF800
003FF87FF800
003FF87FFC00
007FF87FFC00
007FF87FFC00
007FF87FFC00
007FF87FFC00
007FF83FFC00
007FF83FFE00
007FF03FFE00
00FFF03FFE00
00FFF03FFE00
00FFF03FFE00
00FFF03FFE00
00FFF01FFF00
00FFF01FFF00
01FFE01FFF00
01FFE01FFF00
01FFE01FFF00
01FFE01FFF00
01FFE01FFF80
01FFE00FFF80
03FFE00FFF80
03FFC00FFF80
03FFC00FFF80
03FFC00FFF80
03FFC00FFFC0
03FFC00FFFC0
07FFC007FFC0
07FFC007FFC0
07FF8007FFC0
07FF8007FFC0
07FF8007FFE0
07FF8007FFE0
0FFF8007FFE0
0FFFFFFFFFE0
0FFFFFFFFFE0
0FFFFFFFFFE0
0FFFFFFFFFE0
0FFFFFFFFFF0
1FFFFFFFFFF0
1FFFFFFFFFF0
1FFFFFFFFFF0
1FFFFFFFFFF0
1FFFFFFFFFF0
1FFFFFFFFFF8
1FFFFFFFFFF8
3FFE0001FFF8
3FFE0001FFF8
3FFE0000FFF8
3FFE0000FFF8
3FFE0000FFFC
3FFC0000FFFC
7FFC0000FFFC
7FFC0000FFFC
7FFC0000FFFC
7FFC00007FFC
7FFC00007FFE
7FFC00007FFE
FFF800007FFE
FFF800007FFE
FFF800007FFE
FFF800007FFE
FFF800007FFF
FFF800003FFF
ENDCHAR
STARTCHAR Adieresis
ENCODING 196
SWIDTH 401 0
DWIDTH 51 0
BBX 48 109 2 0
BITMAP
00FFF01FFF00
00FFF01FFF00
00FFF01FFF00
00FFF01FFF00
00FFF01FFF00
00FFF01FFF00
00FFF01FFF00
00FFF01FFF00
00FFF01FFF00
00FFF01FFF00
00FFF01FFF00
00FFF01FFF00
00FFF01FFF00
000000000000
000000000000
000000000000
000000000000
000000000000
000000000000
0003FFFF8000
0003FFFF8000
0003FFFFC000
0003FFFFC000
0007FFFFC000
0007FFFFC000
0007FFFFC000
0007FFFFC000
0007FFFFE000
0007FFFFE000
000FFFFFE000
000FFFFFE000
000FFFFFE000
000FFFFFE000
000FFFFFF000
000FFFFFF000
001FFFFFF000
001FFFFFF000
001FFEFFF000
001FFCFFF000
001FFCFFF800
001FFCFFF800
003FFCFFF800
003FFCFFF800
003FFCFFF800
003FFC7FF800
003FF87FF800
003FF87FFC00
007FF87FFC00
007FF87FFC00
007FF87FFC00
007FF87FFC00
007FF83FFC00
007FF83FFE00
007FF03FFE00
00FFF03FFE00
00FFF03FFE00
00FFF03FFE00
00FFF03FFE00
00FFF01FFF00
00FFF01FFF00
01FFE01FFF00
01FFE01FFF00
01FFE01FFF00
01FFE01FFF00
01FFE01FFF80
01FFE00FFF80
03FFE00FFF80
03FFC00FFF80
03FFC00FFF80
03FFC00FFF80
03FFC00FFFC0
03FFC00FFFC0
07FFC007FFC0
07FFC007FFC0
07FF8007FFC0
07FF8007FFC0
07FF8007FFE0
07FF8007FFE0
0FFF8007FFE0
0FFFFFFFFFE0
0FFFFFFFFFE0
0FFFFFFFFFE0
0FFFFFFFFFE0
0FFFFFFFFFF0
1FFFFFFFFFF0
1FFFFFFFFFF0
1FFFFFFFFFF0
1FFFFFFFFFF0
1FFFFFFFFFF0
1FFFFFFFFFF8
1FFFFFFFFFF8
3FFE0001FFF8
3FFE0001FFF8
3FFE0000FFF8
3FFE0000FFF8
3FFE0000FFFC
3FFC0000FFFC
7FFC0000FFFC
7FFC0000FFFC
7FFC0000FFFC
7FFC00007FFC
7FFC00007FFE
7FFC00007FFE
FFF800007FFE
FFF800007FFE
FFF800007FFE
FFF800007FFE
FFF800007FFF
FFF800003FFF
ENDCHAR
STARTCHAR Aring
ENCODING 197
SWIDTH 401 0
DWIDTH 51 0
BBX 48 117 2 0
BITMAP
00000FE00000
00003FFC0000
00007FFE0000
0001FFFF0000
0001FFFF8000
0003FFFFC000
0007FFFFC000
0007FC3FC000
0007F81FE000
000FF01FE000
000FF00FE000
000FF00FE000
000FF00FE000
000FF01FE000
0007F81FE000
0007FC3FC000
0007FFFFC000
0003FFFFC000
0001FFFF8000
0001FFFF0000
0000FFFE0000
00003FF80000
00000FE00000
000000000000
000000000000
000000000000
000000000000
0003FFFF8000
0003FFFF8000
0003FFFFC000
0003FFFFC000
0007FFFFC000
0007FFFFC000
0007FFFFC000
0007FFFFC000
0007FFFFE000
0007FFFFE000
000FFFFFE000
000FFFFFE000
000FFFFFE000
000FFFFFE000
000FFFFFF000
000FFFFFF000
001FFFFFF000
001FFFFFF000
001FFEFFF000
001FFCFFF000
001FFCFFF800
001FFCFFF800
003FFCFFF800
003FFCFFF800
003FFCFFF800
003FFC7FF800
003FF87FF800
003FF87FFC00
007FF87FFC00
007FF87FFC00
007FF87FFC00
007FF87FFC00
007FF83FFC00
007FF83FFE00
007FF03FFE00
00FFF03FFE00
00FFF03FFE00
00FFF03FFE00
00FFF03FFE00
00FFF01FFF00
00FFF01FFF00
01FFE01FFF00
01FFE01FFF00
01FFE01FFF00
01FFE01FFF00
01FFE01FFF80
01FFE00FFF80
03FFE00FFF80
03FFC00FFF80
03FFC00FFF80
03FFC00FFF80
03FFC00FFFC0
03FFC00FFFC0
07FFC007FFC0
07FFC007FFC0
07FF8007FFC0
07FF8007FFC0
07FF8007FFE0
07FF8007FFE0
0FFF8007FFE0
0FFFFFFFFFE0
0FFFFFFFFFE0
0FFFFFFFFFE0
0FFFFFFFFFE0
0FFFFFFFFFF0
1FFFFFFFFFF0
1FFFFFFFFFF0
1FFFFFFFFFF0
1FFFFFFFFFF0
1FFFFFFFFFF0
1FFFFFFFFFF8
1FFFFFFFFFF8
3FFE0001FFF8
3FFE0001FFF8
3FFE0000FFF8
3FFE0000FFF8
3FFE0000FFFC
3FFC0000FFFC
7FFC0000FFFC
7FFC0000FFFC
7FFC0000FFFC
7FFC00007FFC
7FFC00007FFE
7FFC00007FFE
FFF800007FFE
FFF800007FFE
FFF800007FFE
FFF800007FFE
FFF800007FFF
FFF800003FFF
ENDCHAR
STARTCHAR AE
ENCODING 198
SWIDTH 580 0
DWIDTH 74 0
BBX 70 90 1 0
BITMAP
000000FFFFFFFFFFFC
000000FFFFFFFFFFFC
000000FFFFFFFFFFFC
000001FFFFFFFFFFFC
000001FFFFFFFFFFFC
000001FFFFFFFFFFFC
000003FFFFFFFFFFFC
000003FFFFFFFFFFFC
000003FFFFFFFFFFFC
000003FFFFFFFFFFFC
000007FFFFFFFFFFFC
000007FFFFFFFFFFFC
000007FFFFFFFFFFFC
000007FFFFFC000000
00000FFFFFFC000000
00000FFFFFFC000000
00000FFFFFFC000000
00000FFFFFFC000000
00001FFFFFFC000000
00001FFEFFFC000000
00001FFEFFFC000000
00003FFEFFFC000000
00003FFEFFFC000000
00003FFCFFFC000000
00003FFCFFFC000000
00007FFCFFFC000000
00007FFCFFFC000000
00007FF8FFFC000000
00007FF8FFFC000000
0000FFF8FFFC000000
0000FFF8FFFC000000
0000FFF0FFFC000000
0000FFF0FFFC000000
0001FFF0FFFC000000
0001FFF0FFFC000000
0001FFE0FFFC000000
0001FFE0FFFC000000
0003FFE0FFFFFFFF80
0003FFE0FFFFFFFF80
0003FFC0FFFFFFFF80
0007FFC0FFFFFFFF80
0007FFC0FFFFFFFF80
0007FFC0FFFFFFFF80
0007FF80FFFFFFFF80
000FFF80FFFFFFFF80
000FFF80FFFFFFFF80
000FFF80FFFFFFFF80
000FFF00FFFFFFFF80
001FFF00FFFFFFFF80
001FFF00FFFFFFFF80
001FFF00FFFC000000
001FFE00FFFC000000
003FFE00FFFC000000
003FFE00FFFC000000
003FFE00FFFC000000
007FFC00FFFC000000
007FFC00FFFC000000
007FFC00FFFC000000
007FFC00FFFC000000
00FFF800FFFC000000
00FFFFFFFFFC000000
00FFFFFFFFFC000000
00FFFFFFFFFC000000
01FFFFFFFFFC000000
01FFFFFFFFFC000000
01FFFFFFFFFC000000
01FFFFFFFFFC000000
03FFFFFFFFFC000000
03FFFFFFFFFC000000
03FFFFFFFFFC000000
07FFFFFFFFFC000000
07FFFFFFFFFC000000
07FFC000FFFC000000
07FFC000FFFC000000
0FFFC000FFFC000000
0FFF8000FFFC000000
0FFF8000FFFC000000
0FFF8000FFFFFFFFFC
1FFF8000FFFFFFFFFC
1FFF0000FFFFFFFFFC
1FFF0000FFFFFFFFFC
1FFF0000FFFFFFFFFC
3FFF0000FFFFFFFFFC
3FFE0000FFFFFFFFFC
3FFE0000FFFFFFFFFC
7FFE0000FFFFFFFFFC
7FFE0000FFFFFFFFFC
7FFC0000FFFFFFFFFC
7FFC0000FFFFFFFFFC
FFFC0000FFFFFFFFFC
ENDCHAR
STARTCHAR Ccedilla
ENCODING 199
SWIDTH 383 0
DWIDTH 49 0
BBX 42 110 4 -19
BITMAP
0000FFE00000
000FFFFC0000
003FFFFF0000
00FFFFFFC000
01FFFFFFE000
03FFFFFFF000
07FFFFFFF800
0FFFFFFFFC00
0FFFFFFFFE00
1FFFFFFFFE00
3FFFFFFFFF00
3FFFFFFFFF00
3FFFFFFFFF00
7FFFC07FFF80
7FFF803FFF80
7FFF001FFF80
7FFE000FFF80
7FFE000FFFC0
FFFE000FFFC0
FFFE000FFFC0
FFFC000FFFC0
FFFC0007FFC0
FFFC0007FFC0
FFFC0007FFC0
FFFC0007FFC0
FFFC0007FFC0
FFFC0007FFC0
FFFC0007FFC0
FFFC0007FFC0
FFFC0007FFC0
FFFC0007FFC0
FFFC00000000
FFFC00000000
FFFC00000000
FFFC00000000
FFFC00000000
FFFC00000000
FFFC00000000
FFFC00000000
FFFC00000000
FFFC00000000
FFFC00000000
FFFC00000000
FFFC00000000
FFFC00000000
FFFC00000000
FFFC00000000
FFFC00000000
FFFC00000000
FFFC00000000
FFFC00000000
FFFC00000000
FFFC00000000
FFFC00000000
FFFC00000000
FFFC00000000
FFFC00000000
FFFC0007FFC0
FFFC0007FFC0
FFFC0007FFC0
FFFC0007FFC0
FFFC0007FFC0
FFFC0007FFC0
FFFC0007FFC0
FFFC0007FFC0
FFFC0007FFC0
FFFC0007FFC0
FFFC0007FFC0
FFFC0007FFC0
FFFC0007FFC0
FFFC0007FFC0
FFFC000FFFC0
FFFE000FFFC0
7FFE000FFFC0
7FFE000FFFC0
7FFE000FFF80
7FFF001FFF80
7FFF803FFF80
7FFFC07FFF80
3FFFFFFFFF00
3FFFFFFFFF00
1FFFFFFFFF00
1FFFFFFFFE00
0FFFFFFFFE00
0FFFFFFFFC00
07FFFFFFF800
03FFFFFFF000
01FFFFFFE000
00FFFFFFC000
003FFFFF0000
000FFFFC0000
0000FFE00000
00003F000000
00003F000000
00003F000000
00003F000000
00003FFC0000
00003FFE0000
000003FF0000
000001FF8000
000001FF8000
00FF80FF8000
00FF81FF8000
00FFC1FF8000
00FFE3FF8000
00FFFFFF8000
007FFFFF0000
003FFFFE0000
001FFFFC0000
0003FFC00000
ENDCHAR
STARTCHAR Egrave
ENCODING 200
SWIDTH 363 0
DWIDTH 46 0
BBX 39 111 5 0
BITMAP
1FFFC00000
0FFFE00000
07FFF00000
03FFF00000
01FFF80000
00FFF80000
007FFC0000
003FFE0000
001FFE0000
001FFF0000
000FFF0000
0007FF8000
0003FFC000
0001FFC000
0000FFE000
0000000000
0000000000
0000000000
0000000000
0000000000
0000000000
FFFFFFFFFE
FFFFFFFFFE
FFFFFFFFFE
FFFFFFFFFE
FFFFFFFFFE
FFFFFFFFFE
FFFFFFFFFE
FFFFFFFFFE
FFFFFFFFFE
FFFFFFFFFE
FFFFFFFFFE
FFFFFFFFFE
FFFFFFFFFE
FFFC000000
FFFC000000
FFFC000000
FFFC000000
FFFC000000
FFFC000000
FFFC000000
FFFC000000
FFFC000000
FFFC000000
FFFC000000
FFFC000000
FFFC000000
FFFC000000
FFFC000000
FFFC000000
FFFC000000
FFFC000000
FFFC000000
FFFC000000
FFFC000000
FFFC000000
FFFC000000
FFFC000000
FFFFFFFFC0
FFFFFFFFC0
FFFFFFFFC0
FFFFFFFFC0
FFFFFFFFC0
FFFFFFFFC0
FFFFFFFFC0
FFFFFFFFC0
FFFFFFFFC0
FFFFFFFFC0
FFFFFFFFC0
FFFFFFFFC0
FFFFFFFFC0
FFFC000000
FFFC000000
FFFC000000
FFFC000000
FFFC000000
FFFC000000
FFFC000000
FFFC000000
FFFC000000
FFFC000000
FFFC000000
FFFC000000
FFFC000000
FFFC000000
FFFC000000
FFFC000000
FFFC000000
FFFC000000
FFFC000000
FFFC000000
FFFC000000
FFFC000000
FFFC000000
FFFC000000
FFFC000000
FFFC000000
FFFC000000
FFFFFFFFFE
FFFFFFFFFE
FFFFFFFFFE
FFFFFFFFFE
FFFFFFFFFE
FFFFFFFFFE
FFFFFFFFFE
FFFFFFFFFE
FFFFFFFFFE
FFFFFFFFFE
FFFFFFFFFE
FFFFFFFFFE
FFFFFFFFFE
ENDCHAR
STARTCHAR Eacute
ENCODING 201
SWIDTH 363 0
DWIDTH 46 0
BBX 39 111 5 0
BITMAP
00000FFFF0
00000FFFE0
00001FFFC0
00001FFF80
00003FFF00
00007FFE00
00007FFC00
0000FFF800
0000FFF000
0001FFE000
0003FFE000
0003FFC000
0007FF8000
0007FF0000
000FFE0000
0000000000
0000000000
0000000000
0000000000
0000000000
0000000000
FFFFFFFFFE
FFFFFFFFFE
FFFFFFFFFE
FFFFFFFFFE
FFFFFFFFFE
FFFFFFFFFE
FFFFFFFFFE
FFFFFFFFFE
FFFFFFFFFE
FFFFFFFFFE
FFFFFFFFFE
FFFFFFFFFE
FFFFFFFFFE
FFFC000000
FFFC000000
FFFC000000
FFFC000000
FFFC000000
FFFC000000
FFFC000000
FFFC000000
FFFC000000
FFFC000000
FFFC000000
FFFC000000
FFFC000000
FFFC000000
FFFC000000
FFFC000000
FFFC000000
FFFC000000
FFFC000000
FFFC000000
FFFC000000
FFFC000000
FFFC000000
FFFC000000
FFFFFFFFC0
FFFFFFFFC0
FFFFFFFFC0
FFFFFFFFC0
FFFFFFFFC0
FFFFFFFFC0
FFFFFFFFC0
FFFFFFFFC0
FFFFFFFFC0
FFFFFFFFC0
FFFFFFFFC0
FFFFFFFFC0
FFFFFFFFC0
FFFC000000
FFFC000000
FFFC000000
FFFC000000
FFFC000000
FFFC000000
FFFC000000
FFFC000000
FFFC000000
FFFC000000
FFFC000000
FFFC000000
FFFC000000
FFFC000000
FFFC000000
FFFC000000
FFFC000000
FFFC000000
FFFC000000
FFFC000000
FFFC000000
FFFC000000
FFFC000000
FFFC000000
FFFC000000
FFFC000000
FFFC000000
FFFFFFFFFE
FFFFFFFFFE
FFFFFFFFFE
FFFFFFFFFE
FFFFFFFFFE
FFFFFFFFFE
FFFFFFFFFE
FFFFFFFFFE
FFFFFFFFFE
FFFFFFFFFE
FFFFFFFFFE
FFFFFFFFFE
FFFFFFFFFE
ENDCHAR
STARTCHAR Ecircumflex
ENCODING 202
SWIDTH 363 0
DWIDTH 46 0
BBX 39 111 5 0
BITMAP
000FFFC000
000FFFE000
001FFFF000
003FFFF800
003FFFF800
007FFFFC00
00FFFFFE00
00FFFFFE00
01FFEFFF00
03FFC7FF80
07FF83FF80
07FF01FFC0
0FFE00FFE0
1FFC007FF0
3FF8003FF8
0000000000
0000000000
0000000000
0000000000
0000000000
0000000000
FFFFFFFFFE
FFFFFFFFFE
FFFFFFFFFE
FFFFFFFFFE
FFFFFFFFFE
FFFFFFFFFE
FFFFFFFFFE
FFFFFFFFFE
FFFFFFFFFE
FFFFFFFFFE
FFFFFFFFFE
FFFFFFFFFE
FFFFFFFFFE
FFFC000000
FFFC000000
FFFC000000
FFFC000000
FFFC000000
FFFC000000
FFFC000000
FFFC000000
FFFC000000
FFFC000000
FFFC000000
FFFC000000
FFFC000000
FFFC000000
FFFC000000
FFFC000000
FFFC000000
FFFC000000
FFFC000000
FFFC000000
FFFC000000
FFFC000000
FFFC000000
FFFC000000
FFFFFFFFC0
FFFFFFFFC0
FFFFFFFFC0
FFFFFFFFC0
FFFFFFFFC0
FFFFFFFFC0
FFFFFFFFC0
FFFFFFFFC0
FFFFFFFFC0
FFFFFFFFC0
FFFFFFFFC0
FFFFFFFFC0
FFFFFFFFC0
FFFC000000
FFFC000000
FFFC000000
FFFC000000
FFFC000000
FFFC000000
FFFC000000
FFFC000000
FFFC000000
FFFC000000
FFFC000000
FFFC000000
FFFC000000
FFFC000000
FFFC000000
FFFC000000
FFFC000000
FFFC000000
FFFC000000
FFFC000000
FFFC000000
FFFC000000
FFFC000000
FFFC000000
FFFC000000
FFFC000000
FFFC000000
FFFFFFFFFE
FFFFFFFFFE
FFFFFFFFFE
FFFFFFFFFE
FFFFFFFFFE
FFFFFFFFFE
FFFFFFFFFE
FFFFFFFFFE
FFFFFFFFFE
FFFFFFFFFE
FFFFFFFFFE
FFFFFFFFFE
FFFFFFFFFE
ENDCHAR
STARTCHAR Edieresis
ENCODING 203
SWIDTH 363 0
DWIDTH 46 0
BBX 39 109 5 0
BITMAP
1FFF01FFF0
1FFF01FFF0
1FFF01FFF0
1FFF01FFF0
1FFF01FFF0
1FFF01FFF0
1FFF01FFF0
1FFF01FFF0
1FFF01FFF0
1FFF01FFF0
1FFF01FFF0
1FFF01FFF0
1FFF01FFF0
0000000000
0000000000
0000000000
0000000000
0000000000
0000000000
FFFFFFFFFE
FFFFFFFFFE
FFFFFFFFFE
FFFFFFFFFE
FFFFFFFFFE
FFFFFFFFFE
FFFFFFFFFE
FFFFFFFFFE
FFFFFFFFFE
FFFFFFFFFE
FFFFFFFFFE
FFFFFFFFFE
FFFFFFFFFE
FFFC000000
FFFC000000
FFFC000000
FFFC000000
FFFC000000
FFFC000000
FFFC000000
FFFC000000
FFFC000000
FFFC000000
FFFC000000
FFFC000000
FFFC000000
FFFC000000
FFFC000000
FFFC000000
FFFC000000
FFFC000000
FFFC000000
FFFC000000
FFFC000000
FFFC000000
FFFC000000
FFFC000000
FFFFFFFFC0
FFFFFFFFC0
FFFFFFFFC0
FFFFFFFFC0
FFFFFFFFC0
FFFFFFFFC0
FFFFFFFFC0
FFFFFFFFC0
FFFFFFFFC0
FFFFFFFFC0
FFFFFFFFC0
FFFFFFFFC0
FFFFFFFFC0
FFFC000000
FFFC000000
FFFC000000
FFFC000000
FFFC000000
FFFC000000
FFFC000000
FFFC000000
FFFC000000
FFFC000000
FFFC000000
FFFC000000
FFFC000000
FFFC000000
FFFC000000
FFFC000000
FFFC000000
FFFC000000
FFFC000000
FFFC000000
FFFC000000
FFFC000000
FFFC000000
FFFC000000
FFFC000000
FFFC000000
FFFC000000
FFFFFFFFFE
FFFFFFFFFE
FFFFFFFFFE
FFFFFFFFFE
FFFFFFFFFE
FFFFFFFFFE
FFFFFFFFFE
FFFFFFFFFE
FFFFFFFFFE
FFFFFFFFFE
FFFFFFFFFE
FFFFFFFFFE
FFFFFFFFFE
ENDCHAR
STARTCHAR Igrave
ENCODING 204
SWIDTH 192 0
DWIDTH 25 0
BBX 24 111 -4 0
BITMAP
FFFE00
7FFF00
3FFF00
1FFF80
0FFFC0
07FFC0
03FFE0
03FFE0
01FFF0
00FFF8
007FF8
003FFC
001FFC
000FFE
0007FF
000000
000000
000000
000000
000000
000000
007FFE
007FFE
007FFE
007FFE
007FFE
007FFE
007FFE
007FFE
007FFE
007FFE
007FFE
007FFE
007FFE
007FFE
007FFE
007FFE
007FFE
007FFE
007FFE
007FFE
007FFE
007FFE
007FFE
007FFE
007FFE
007FFE
007FFE
007FFE
007FFE
007FFE
007FFE
007FFE
007FFE
007FFE
007FFE
007FFE
007FFE
007FFE
007FFE
007FFE
007FFE
007FFE
007FFE
007FFE
007FFE
007FFE
007FFE
007FFE
007FFE
007FFE
007FFE
007FFE
007FFE
007FFE
007FFE
007FFE
007FFE
007FFE
007FFE
007FFE
007FFE
007FFE
007FFE
007FFE
007FFE
007FFE
007FFE
007FFE
007FFE
007FFE
007FFE
007FFE
007FFE
007FFE
007FFE
007FFE
007FFE
007FFE
007FFE
007FFE
007FFE
007FFE
007FFE
007FFE
007FFE
007FFE
007FFE
007FFE
007FFE
007FFE
ENDCHAR
STARTCHAR Iacute
ENCODING 205
SWIDTH 192 0
DWIDTH 25 0
BBX 24 111 5 0
BITMAP
00FFFF
00FFFE
01FFFC
03FFF8
03FFF0
07FFE0
07FFC0
0FFF80
1FFF00
1FFE00
3FFC00
3FF800
7FF800
FFF000
FFE000
000000
000000
000000
000000
000000
000000
FFFC00
FFFC00
FFFC00
FFFC00
FFFC00
FFFC00
FFFC00
FFFC00
FFFC00
FFFC00
FFFC00
FFFC00
FFFC00
FFFC00
FFFC00
FFFC00
FFFC00
FFFC00
FFFC00
FFFC00
FFFC00
FFFC00
FFFC00
FFFC00
FFFC00
FFFC00
FFFC00
FFFC00
FFFC00
FFFC00
FFFC00
FFFC00
FFFC00
FFFC00
FFFC00
FFFC00
FFFC00
FFFC00
FFFC00
FFFC00
FFFC00
FFFC00
FFFC00
FFFC00
FFFC00
FFFC00
FFFC00
FFFC00
FFFC00
FFFC00
FFFC00
FFFC00
FFFC00
FFFC00
FFFC00
FFFC00
FFFC00
FFFC00
FFFC00
FFFC00
FFFC00
FFFC00
FFFC00
FFFC00
FFFC00
FFFC00
FFFC00
FFFC00
FFFC00
FFFC00
FFFC00
FFFC00
FFFC00
FFFC00
FFFC00
FFFC00
FFFC00
FFFC00
FFFC00
FFFC00
FFFC00
FFFC00
FFFC00
FFFC00
FFFC00
FFFC00
FFFC00
FFFC00
FFFC00
FFFC00
ENDCHAR
STARTCHAR Icircumflex
ENCODING 206
SWIDTH 192 0
DWIDTH 25 0
BBX 34 111 -5 0
BITMAP
003FFF0000
003FFF8000
007FFFC000
00FFFFC000
01FFFFE000
01FFFFF000
03FFFFF800
07FFFFF800
07FFBFFC00
0FFF1FFE00
1FFE0FFE00
1FFC07FF00
3FF803FF80
7FF003FF80
FFE001FFC0
0000000000
0000000000
0000000000
0000000000
0000000000
0000000000
003FFF0000
003FFF0000
003FFF0000
003FFF0000
003FFF0000
003FFF0000
003FFF0000
003FFF0000
003FFF0000
003FFF0000
003FFF0000
003FFF0000
003FFF0000
003FFF0000
003FFF0000
003FFF0000
003FFF0000
003FFF0000
003FFF0000
003FFF0000
003FFF0000
003FFF0000
003FFF0000
003FFF0000
003FFF0000
003FFF0000
003FFF0000
003FFF0000
003FFF0000
003FFF0000
003FFF0000
003FFF0000
003FFF0000
003FFF0000
003FFF0000
003FFF0000
003FFF0000
003FFF0000
003FFF0000
003FFF0000
003FFF0000
003FFF0000
003FFF0000
003FFF0000
003FFF0000
003FFF0000
003FFF0000
003FFF0000
003FFF0000
003FFF0000
003FFF0000
003FFF0000
003FFF0000
003FFF0000
003FFF0000
003FFF0000
003FFF0000
003FFF0000
003FFF0000
003FFF0000
003FFF0000
003FFF0000
003FFF0000
003FFF0000
003FFF0000
003FFF0000
003FFF0000
003FFF0000
003FFF0000
003FFF0000
003FFF0000
003FFF0000
003FFF0000
003FFF0000
003FFF0000
003FFF0000
003FFF0000
003FFF0000
003FFF0000
003FFF0000
003FFF0000
003FFF0000
003FFF0000
003FFF0000
003FFF0000
003FFF0000
003FFF0000
003FFF0000
003FFF0000
003FFF0000
ENDCHAR
STARTCHAR Idieresis
ENCODING 207
SWIDTH 192 0
DWIDTH 25 0
BBX 32 109 -4 0
BITMAP
FFF80FFF
FFF80FFF
FFF80FFF
FFF80FFF
FFF80FFF
FFF80FFF
FFF80FFF
FFF80FFF
FFF80FFF
FFF80FFF
FFF80FFF
FFF80FFF
FFF80FFF
00000000
00000000
00000000
00000000
00000000
00000000
007FFE00
007FFE00
007FFE00
007FFE00
007FFE00
007FFE00
007FFE00
007FFE00
007FFE00
007FFE00
007FFE00
007FFE00
007FFE00
007FFE00
007FFE00
007FFE00
007FFE00
007FFE00
007FFE00
007FFE00
007FFE00
007FFE00
007FFE00
007FFE00
007FFE00
007FFE00
007FFE00
007FFE00
007FFE00
007FFE00
007FFE00
007FFE00
007FFE00
007FFE00
007FFE00
007FFE00
007FFE00
007FFE00
007FFE00
007FFE00
007FFE00
007FFE00
007FFE00
007FFE00
007FFE00
007FFE00
007FFE00
007FFE00
007FFE00
007FFE00
007FFE00
007FFE00
007FFE00
007FFE00
007FFE00
007FFE00
007FFE00
007FFE00
007FFE00
007FFE00
007FFE00
007FFE00
007FFE00
007FFE00
007FFE00
007FFE00
007FFE00
007FFE00
007FFE00
007FFE00
007FFE00
007FFE00
007FFE00
007FFE00
007FFE00
007FFE00
007FFE00
007FFE00
007FFE00
007FFE00
007FFE00
007FFE00
007FFE00
007FFE00
007FFE00
007FFE00
007FFE00
007FFE00
007FFE00
007FFE00
ENDCHAR
STARTCHAR Eth
ENCODING 208
SWIDTH 423 0
DWIDTH 54 0
BBX 49 90 1 0
BITMAP
03FFFFFFC00000
03FFFFFFF80000
03FFFFFFFF0000
03FFFFFFFF8000
03FFFFFFFFC000
03FFFFFFFFF000
03FFFFFFFFF000
03FFFFFFFFF800
03FFFFFFFFFC00
03FFFFFFFFFC00
03FFFFFFFFFE00
03FFFFFFFFFE00
03FFFFFFFFFF00
03FFF801FFFF00
03FFF8007FFF00
03FFF8007FFF00
03FFF8003FFF00
03FFF8003FFF80
03FFF8001FFF80
03FFF8001FFF80
03FFF8001FFF80
03FFF8001FFF80
03FFF8001FFF80
03FFF8001FFF80
03FFF8001FFF80
03FFF8001FFF80
03FFF8001FFF80
03FFF8001FFF80
03FFF8001FFF80
03FFF8001FFF80
03FFF8001FFF80
03FFF8001FFF80
03FFF8001FFF80
03FFF8001FFF80
03FFF8001FFF80
03FFF8001FFF80
03FFF8001FFF80
FFFFFFF01FFF80
FFFFFFF01FFF80
FFFFFFF01FFF80
FFFFFFF01FFF80
FFFFFFF01FFF80
FFFFFFF01FFF80
FFFFFFF01FFF80
FFFFFFF01FFF80
FFFFFFF01FFF80
FFFFFFF01FFF80
FFFFFFF01FFF80
FFFFFFF01FFF80
03FFF8001FFF80
03FFF8001FFF80
03FFF8001FFF80
03FFF8001FFF80
03FFF8001FFF80
03FFF8001FFF80
03FFF8001FFF80
03FFF8001FFF80
03FFF8001FFF80
03FFF8001FFF80
03FFF8001FFF80
03FFF8001FFF80
03FFF8001FFF80
03FFF8001FFF80
03FFF8001FFF80
03FFF8001FFF80
03FFF8001FFF80
03FFF8001FFF80
03FFF8001FFF80
03FFF8001FFF80
03FFF8001FFF80
03FFF8001FFF80
03FFF8001FFF80
03FFF8003FFF80
03FFF8003FFF00
03FFF8007FFF00
03FFF8007FFF00
03FFF801FFFF00
03FFFFFFFFFF00
03FFFFFFFFFE00
03FFFFFFFFFE00
03FFFFFFFFFC00
03FFFFFFFFFC00
03FFFFFFFFF800
03FFFFFFFFF000
03FFFFFFFFF000
03FFFFFFFFE000
03FFFFFFFF8000
03FFFFFFFF0000
03FFFFFFF80000
03FFFFFFC00000
ENDCHAR
STARTCHAR Ntilde
ENCODING 209
SWIDTH 427 0
DWIDTH 55 0
BBX 44 111 5 0
BITMAP
000000004000
0007F0007000
001FFC00F800
003FFF01FE00
007FFFC3FF00
00FFFFFFFF00
01FFFFFFFE00
01FFFFFFFE00
03FFFFFFFC00
03FFFFFFF800
07FFFFFFF800
07FE1FFFF000
03F807FFE000
01F803FF8000
0070007E0000
001000000000
000000000000
000000000000
000000000000
000000000000
000000000000
FFFFC000FFF0
FFFFC000FFF0
FFFFE000FFF0
FFFFE000FFF0
FFFFE000FFF0
FFFFE000FFF0
FFFFF000FFF0
FFFFF000FFF0
FFFFF000FFF0
FFFFF000FFF0
FFFFF800FFF0
FFFFF800FFF0
FFFFF800FFF0
FFFFF800FFF0
FFFFFC00FFF0
FFFFFC00FFF0
FFFFFC00FFF0
FFFFFC00FFF0
FFFFFE00FFF0
FFFFFE00FFF0
FFFFFE00FFF0
FFFFFE00FFF0
FFFFFF00FFF0
FFFFFF00FFF0
FFFFFF00FFF0
FFFFFF00FFF0
FFFBFF80FFF0
FFFBFF80FFF0
FFFBFF80FFF0
FFFBFF80FFF0
FFF9FFC0FFF0
FFF9FFC0FFF0
FFF9FFC0FFF0
FFF9FFC0FFF0
FFF8FFE0FFF0
FFF8FFE0FFF0
FFF8FFE0FFF0
FFF8FFE0FFF0
FFF87FF0FFF0
FFF87FF0FFF0
FFF87FF0FFF0
FFF87FF0FFF0
FFF83FF8FFF0
FFF83FF8FFF0
FFF83FF8FFF0
FFF83FF8FFF0
FFF81FFCFFF0
FFF81FFCFFF0
FFF81FFCFFF0
FFF81FFCFFF0
FFF80FFEFFF0
FFF80FFEFFF0
FFF80FFEFFF0
FFF807FEFFF0
FFF807FFFFF0
FFF807FFFFF0
FFF807FFFFF0
FFF803FFFFF0
FFF803FFFFF0
FFF803FFFFF0
FFF803FFFFF0
FFF801FFFFF0
FFF801FFFFF0
FFF801FFFFF0
FFF801FFFFF0
FFF800FFFFF0
FFF800FFFFF0
FFF800FFFFF0
FFF800FFFFF0
FFF8007FFFF0
FFF8007FFFF0
FFF8007FFFF0
FFF8007FFFF0
FFF8003FFFF0
FFF8003FFFF0
FFF8003FFFF0
FFF8003FFFF0
FFF8001FFFF0
FFF8001FFFF0
FFF8001FFFF0
FFF8001FFFF0
FFF8000FFFF0
FFF8000FFFF0
FFF8000FFFF0
FFF80007FFF0
FFF80007FFF0
FFF80007FFF0
FFF80007FFF0
FFF80003FFF0
FFF80003FFF0
ENDCHAR
STARTCHAR Ograve
ENCODING 210
SWIDTH 400 0
DWIDTH 51 0
BBX 43 112 4 -1
BITMAP
07FFF8000000
03FFF8000000
01FFFC000000
00FFFC000000
007FFE000000
003FFF000000
001FFF000000
000FFF800000
0007FF800000
0003FFC00000
0001FFE00000
0001FFE00000
0000FFF00000
00007FF00000
00003FF80000
000000000000
000000000000
000000000000
000000000000
000000000000
0000FFE00000
000FFFFE0000
003FFFFF8000
00FFFFFFE000
01FFFFFFF000
03FFFFFFF800
07FFFFFFFC00
0FFFFFFFFE00
0FFFFFFFFE00
1FFFFFFFFF00
1FFFFFFFFF80
3FFFFFFFFF80
3FFFFFFFFF80
7FFFC07FFFC0
7FFF801FFFC0
7FFF001FFFC0
7FFE000FFFC0
7FFE000FFFE0
FFFE0007FFE0
FFFC0007FFE0
FFFC0007FFE0
FFFC0007FFE0
FFFC0007FFE0
FFFC0007FFE0
FFFC0007FFE0
FFFC0007FFE0
FFFC0007FFE0
FFFC0007FFE0
FFFC0007FFE0
FFFC0007FFE0
FFFC0007FFE0
FFFC0007FFE0
FFFC0007FFE0
FFFC0007FFE0
FFFC0007FFE0
FFFC0007FFE0
FFFC0007FFE0
FFFC0007FFE0
FFFC0007FFE0
FFFC0007FFE0
FFFC0007FFE0
FFFC0007FFE0
FFFC0007FFE0
FFFC0007FFE0
FFFC0007FFE0
FFFC0007FFE0
FFFC0007FFE0
FFFC0007FFE0
FFFC0007FFE0
FFFC0007FFE0
FFFC0007FFE0
FFFC0007FFE0
FFFC0007FFE0
FFFC0007FFE0
FFFC0007FFE0
FFFC0007FFE0
FFFC0007FFE0
FFFC0007FFE0
FFFC0007FFE0
FFFC0007FFE0
FFFC0007FFE0
FFFC0007FFE0
FFFC0007FFE0
FFFC0007FFE0
FFFC0007FFE0
FFFC0007FFE0
FFFC0007FFE0
FFFC0007FFE0
FFFC0007FFE0
FFFC0007FFE0
FFFC0007FFE0
FFFC0007FFE0
FFFC0007FFE0
FFFE0007FFE0
7FFE000FFFE0
7FFE000FFFC0
7FFF001FFFC0
7FFF801FFFC0
7FFFC07FFFC0
3FFFFFFFFF80
3FFFFFFFFF80
1FFFFFFFFF80
1FFFFFFFFF00
0FFFFFFFFE00
0FFFFFFFFE00
07FFFFFFFC00
03FFFFFFF800
01FFFFFFF000
00FFFFFFE000
003FFFFF8000
000FFFFE0000
0000FFE00000
ENDCHAR
STARTCHAR Oacute
ENCODING 211
SWIDTH 400 0
DWIDTH 51 0
BBX 43 112 4 -1
BITMAP
000001FFFC00
000003FFF800
000007FFF000
000007FFE000
00000FFFC000
00000FFF8000
00001FFF0000
00003FFE0000
00003FFC0000
00007FFC0000
00007FF80000
0000FFF00000
0001FFE00000
0001FFC00000
0003FF800000
000000000000
000000000000
000000000000
000000000000
000000000000
0000FFE00000
000FFFFE0000
003FFFFF8000
00FFFFFFE000
01FFFFFFF000
03FFFFFFF800
07FFFFFFFC00
0FFFFFFFFE00
0FFFFFFFFE00
1FFFFFFFFF00
1FFFFFFFFF80
3FFFFFFFFF80
3FFFFFFFFF80
7FFFC07FFFC0
7FFF801FFFC0
7FFF001FFFC0
7FFE000FFFC0
7FFE000FFFE0
FFFE0007FFE0
FFFC0007FFE0
FFFC0007FFE0
FFFC0007FFE0
FFFC0007FFE0
FFFC0007FFE0
FFFC0007FFE0
FFFC0007FFE0
FFFC0007FFE0
FFFC0007FFE0
FFFC0007FFE0
FFFC0007FFE0
FFFC0007FFE0
FFFC0007FFE0
FFFC0007FFE0
FFFC0007FFE0
FFFC0007FFE0
FFFC0007FFE0
FFFC0007FFE0
FFFC0007FFE0
FFFC0007FFE0
FFFC0007FFE0
FFFC0007FFE0
FFFC0007FFE0
FFFC0007FFE0
FFFC0007FFE0
FFFC0007FFE0
FFFC0007FFE0
FFFC0007FFE0
FFFC0007FFE0
FFFC0007FFE0
FFFC0007FFE0
FFFC0007FFE0
FFFC0007FFE0
FFFC0007FFE0
FFFC0007FFE0
FFFC0007FFE0
FFFC0007FFE0
FFFC0007FFE0
FFFC0007FFE0
FFFC0007FFE0
FFFC0007FFE0
FFFC0007FFE0
FFFC0007FFE0
FFFC0007FFE0
FFFC0007FFE0
FFFC0007FFE0
FFFC0007FFE0
FFFC0007FFE0
FFFC0007FFE0
FFFC0007FFE0
FFFC0007FFE0
FFFC0007FFE0
FFFC0007FFE0
FFFC0007FFE0
FFFE0007FFE0
7FFE000FFFE0
7FFE000FFFC0
7FFF001FFFC0
7FFF801FFFC0
7FFFC07FFFC0
3FFFFFFFFF80
3FFFFFFFFF80
1FFFFFFFFF80
1FFFFFFFFF00
0FFFFFFFFE00
0FFFFFFFFE00
07FFFFFFFC00
03FFFFFFF800
01FFFFFFF000
00FFFFFFE000
003FFFFF8000
000FFFFE0000
0000FFE00000
ENDCHAR
STARTCHAR Ocircumflex
ENCODING 212
SWIDTH 400 0
DWIDTH 51 0
BBX 43 112 4 -1
BITMAP
0001FFF80000
0003FFF80000
0007FFFC0000
000FFFFE0000
000FFFFE0000
001FFFFF0000
003FFFFF8000
003FFFFFC000
007FFBFFC000
00FFF1FFE000
00FFE0FFF000
01FFC07FF000
03FF803FF800
07FF001FFC00
0FFF000FFE00
000000000000
000000000000
000000000000
000000000000
000000000000
0000FFE00000
000FFFFE0000
003FFFFF8000
00FFFFFFE000
01FFFFFFF000
03FFFFFFF800
07FFFFFFFC00
0FFFFFFFFE00
0FFFFFFFFE00
1FFFFFFFFF00
1FFFFFFFFF80
3FFFFFFFFF80
3FFFFFFFFF80
7FFFC07FFFC0
7FFF801FFFC0
7FFF001FFFC0
7FFE000FFFC0
7FFE000FFFE0
FFFE0007FFE0
FFFC0007FFE0
FFFC0007FFE0
FFFC0007FFE0
FFFC0007FFE0
FFFC0007FFE0
FFFC0007FFE0
FFFC0007FFE0
FFFC0007FFE0
FFFC0007FFE0
FFFC0007FFE0
FFFC0007FFE0
FFFC0007FFE0
FFFC0007FFE0
FFFC0007FFE0
FFFC0007FFE0
FFFC0007FFE0
FFFC0007FFE0
FFFC0007FFE0
FFFC0007FFE0
FFFC0007FFE0
FFFC0007FFE0
FFFC0007FFE0
FFFC0007FFE0
FFFC0007FFE0
FFFC0007FFE0
FFFC0007FFE0
FFFC0007FFE0
FFFC0007FFE0
FFFC0007FFE0
FFFC0007FFE0
FFFC0007FFE0
FFFC0007FFE0
FFFC0007FFE0
FFFC0007FFE0
FFFC0007FFE0
FFFC0007FFE0
FFFC0007FFE0
FFFC0007FFE0
FFFC0007FFE0
FFFC0007FFE0
FFFC0007FFE0
FFFC0007FFE0
FFFC0007FFE0
FFFC0007FFE0
FFFC0007FFE0
FFFC0007FFE0
FFFC0007FFE0
FFFC0007FFE0
FFFC0007FFE0
FFFC0007FFE0
FFFC0007FFE0
FFFC0007FFE0
FFFC0007FFE0
FFFC0007FFE0
FFFE0007FFE0
7FFE000FFFE0
7FFE000FFFC0
7FFF001FFFC0
7FFF801FFFC0
7FFFC07FFFC0
3FFFFFFFFF80
3FFFFFFFFF80
1FFFFFFFFF80
1FFFFFFFFF00
0FFFFFFFFE00
0FFFFFFFFE00
07FFFFFFFC00
03FFFFFFF800
01FFFFFFF000
00FFFFFFE000
003FFFFF8000
000FFFFE0000
0000FFE00000
ENDCHAR
STARTCHAR Otilde
ENCODING 213
SWIDTH 400 0
DWIDTH 51 0
BBX 43 112 4 -1
BITMAP
000000008000
0007E000E000
003FFC01F800
007FFE01FC00
00FFFF87FE00
01FFFFFFFE00
01FFFFFFFC00
03FFFFFFFC00
07FFFFFFF800
07FFFFFFF800
0FFFFFFFF000
0FFC3FFFE000
07F80FFFC000
01F003FF8000
00E000FE0000
002000000000
000000000000
000000000000
000000000000
000000000000
0000FFE00000
000FFFFE0000
003FFFFF8000
00FFFFFFE000
01FFFFFFF000
03FFFFFFF800
07FFFFFFFC00
0FFFFFFFFE00
0FFFFFFFFE00
1FFFFFFFFF00
1FFFFFFFFF80
3FFFFFFFFF80
3FFFFFFFFF80
7FFFC07FFFC0
7FFF801FFFC0
7FFF001FFFC0
7FFE000FFFC0
7FFE000FFFE0
FFFE0007FFE0
FFFC0007FFE0
FFFC0007FFE0
FFFC0007FFE0
FFFC0007FFE0
FFFC0007FFE0
FFFC0007FFE0
FFFC0007FFE0
FFFC0007FFE0
FFFC0007FFE0
FFFC0007FFE0
FFFC0007FFE0
FFFC0007FFE0
FFFC0007FFE0
FFFC0007FFE0
FFFC0007FFE0
FFFC0007FFE0
FFFC0007FFE0
FFFC0007FFE0
FFFC0007FFE0
FFFC0007FFE0
FFFC0007FFE0
FFFC0007FFE0
FFFC0007FFE0
FFFC0007FFE0
FFFC0007FFE0
FFFC0007FFE0
FFFC0007FFE0
FFFC0007FFE0
FFFC0007FFE0
FFFC0007FFE0
FFFC0007FFE0
FFFC0007FFE0
FFFC0007FFE0
FFFC0007FFE0
FFFC0007FFE0
FFFC0007FFE0
FFFC0007FFE0
FFFC0007FFE0
FFFC0007FFE0
FFFC0007FFE0
FFFC0007FFE0
FFFC0007FFE0
FFFC0007FFE0
FFFC0007FFE0
FFFC0007FFE0
FFFC0007FFE0
FFFC0007FFE0
FFFC0007FFE0
FFFC0007FFE0
FFFC0007FFE0
FFFC0007FFE0
FFFC0007FFE0
FFFC0007FFE0
FFFC0007FFE0
FFFE0007FFE0
7FFE000FFFE0
7FFE000FFFC0
7FFF001FFFC0
7FFF801FFFC0
7FFFC07FFFC0
3FFFFFFFFF80
3FFFFFFFFF80
1FFFFFFFFF80
1FFFFFFFFF00
0FFFFFFFFE00
0FFFFFFFFE00
07FFFFFFFC00
03FFFFFFF800
01FFFFFFF000
00FFFFFFE000
003FFFFF8000
000FFFFE0000
0000FFE00000
ENDCHAR
STARTCHAR Odieresis
ENCODING 214
SWIDTH 400 0
DWIDTH 51 0
BBX 43 110 4 -1
BITMAP
07FFC07FFC00
07FFC07FFC00
07FFC07FFC00
07FFC07FFC00
07FFC07FFC00
07FFC07FFC00
07FFC07FFC00
07FFC07FFC00
07FFC07FFC00
07FFC07FFC00
07FFC07FFC00
07FFC07FFC00
07FFC07FFC00
000000000000
000000000000
000000000000
000000000000
000000000000
0000FFE00000
000FFFFE0000
003FFFFF8000
00FFFFFFE000
01FFFFFFF000
03FFFFFFF800
07FFFFFFFC00
0FFFFFFFFE00
0FFFFFFFFE00
1FFFFFFFFF00
1FFFFFFFFF80
3FFFFFFFFF80
3FFFFFFFFF80
7FFFC07FFFC0
7FFF801FFFC0
7FFF001FFFC0
7FFE000FFFC0
7FFE000FFFE0
FFFE0007FFE0
FFFC0007FFE0
FFFC0007FFE0
FFFC0007FFE0
FFFC0007FFE0
FFFC0007FFE0
FFFC0007FFE0
FFFC0007FFE0
FFFC0007FFE0
FFFC0007FFE0
FFFC0007FFE0
FFFC0007FFE0
FFFC0007FFE0
FFFC0007FFE0
FFFC0007FFE0
FFFC0007FFE0
FFFC0007FFE0
FFFC0007FFE0
FFFC0007FFE0
FFFC0007FFE0
FFFC0007FFE0
FFFC0007FFE0
FFFC0007FFE0
FFFC0007FFE0
FFFC0007FFE0
FFFC0007FFE0
FFFC0007FFE0
FFFC0007FFE0
FFFC0007FFE0
FFFC0007FFE0
FFFC0007FFE0
FFFC0007FFE0
FFFC0007FFE0
FFFC0007FFE0
FFFC0007FFE0
FFFC0007FFE0
FFFC0007FFE0
FFFC0007FFE0
FFFC0007FFE0
FFFC0007FFE0
FFFC0007FFE0
FFFC0007FFE0
FFFC0007FFE0
FFFC0007FFE0
FFFC0007FFE0
FFFC0007FFE0
FFFC0007FFE0
FFFC0007FFE0
FFFC0007FFE0
FFFC0007FFE0
FFFC0007FFE0
FFFC0007FFE0
FFFC0007FFE0
FFFC0007FFE0
FFFC0007FFE0
FFFE0007FFE0
7FFE000FFFE0
7FFE000FFFC0
7FFF001FFFC0
7FFF801FFFC0
7FFFC07FFFC0
3FFFFFFFFF80
3FFFFFFFFF80
1FFFFFFFFF80
1FFFFFFFFF00
0FFFFFFFFE00
0FFFFFFFFE00
07FFFFFFFC00
03FFFFFFF800
01FFFFFFF000
00FFFFFFE000
003FFFFF8000
000FFFFE0000
0000FFE00000
ENDCHAR
STARTCHAR multiply
ENCODING 215
SWIDTH 400 0
DWIDTH 51 0
BBX 41 42 5 24
BITMAP
010000002000
030000006000
07800000F000
0FC00001F800
1FE00003FC00
3FF00007FE00
7FF8000FFF00
FFFC001FFF80
7FFE003FFF00
3FFF007FFE00
1FFF80FFFC00
0FFFC1FFF800
07FFE3FFF000
03FFF7FFE000
01FFFFFFC000
00FFFFFF8000
007FFFFF0000
003FFFFE0000
001FFFFC0000
000FFFF80000
0007FFF00000
0007FFF00000
000FFFF80000
001FFFFC0000
003FFFFE0000
003FFFFF0000
007FFFFF8000
00FFFFFF8000
01FFF7FFC000
03FFE3FFE000
07FFC1FFF000
0FFF80FFF800
1FFF007FFC00
3FFE003FFE00
7FFC001FFF00
FFF8000FFF80
7FF00007FF00
3FE00003FE00
1FC00001FC00
0F800000F800
070000007000
020000002000
ENDCHAR
STARTCHAR Oslash
ENCODING 216
SWIDTH 400 0
DWIDTH 51 0
BBX 45 96 3 -3
BITMAP
000000000600
000000000780
00007FF007E0
0007FFFF0FF8
001FFFFFCFF8
007FFFFFFFF0
00FFFFFFFFF0
01FFFFFFFFF0
03FFFFFFFFE0
07FFFFFFFFE0
07FFFFFFFFC0
0FFFFFFFFFC0
0FFFFFFFFFC0
1FFFFFFFFFC0
1FFFFFFFFFC0
3FFFE03FFFE0
3FFFC00FFFE0
3FFF800FFFE0
3FFF0007FFE0
3FFF0007FFF0
7FFF0007FFF0
7FFE0007FFF0
7FFE000FFFF0
7FFE000FFFF0
7FFE000FFFF0
7FFE001FFFF0
7FFE001FFFF0
7FFE003FFFF0
7FFE003FFFF0
7FFE003FFFF0
7FFE007FFFF0
7FFE007FFFF0
7FFE00FFFFF0
7FFE00FFFFF0
7FFE00FFFFF0
7FFE01FFFFF0
7FFE01FFFFF0
7FFE03FFFFF0
7FFE03FFFFF0
7FFE03FFFFF0
7FFE07FFFFF0
7FFE07FFFFF0
7FFE0FFFFFF0
7FFE0FFBFFF0
7FFE0FFBFFF0
7FFE1FF3FFF0
7FFE1FF3FFF0
7FFE3FE3FFF0
7FFE3FE3FFF0
7FFE3FE3FFF0
7FFE7FC3FFF0
7FFE7FC3FFF0
7FFEFF83FFF0
7FFEFF83FFF0
7FFEFF83FFF0
7FFFFF03FFF0
7FFFFF03FFF0
7FFFFE03FFF0
7FFFFE03FFF0
7FFFFE03FFF0
7FFFFC03FFF0
7FFFFC03FFF0
7FFFF803FFF0
7FFFF803FFF0
7FFFF003FFF0
7FFFF003FFF0
7FFFF003FFF0
7FFFE003FFF0
7FFFE003FFF0
7FFFC003FFF0
7FFFC003FFF0
7FFFC003FFF0
7FFF8003FFF0
7FFF8003FFF0
7FFF0003FFF0
7FFF0003FFF0
3FFF0007FFF0
3FFF0007FFE0
3FFF800FFFE0
3FFFC00FFFE0
3FFFE03FFFE0
1FFFFFFFFFC0
1FFFFFFFFFC0
0FFFFFFFFFC0
1FFFFFFFFF80
1FFFFFFFFF00
3FFFFFFFFF00
3FFFFFFFFE00
3FFFFFFFFC00
7FFFFFFFF800
7FFFFFFFF000
FF9FFFFFC000
FF87FFFF0000
3F807FF00000
0F0000000000
030000000000
ENDCHAR
STARTCHAR Ugrave
ENCODING 217
SWIDTH 402 0
DWIDTH 51 0
BBX 42 112 5 -1
BITMAP
0FFFF0000000
07FFF0000000
03FFF8000000
01FFFC000000
00FFFC000000
007FFE000000
003FFE000000
001FFF000000
000FFF800000
0007FF800000
0003FFC00000
0001FFC00000
0000FFE00000
0000FFF00000
00007FF00000
000000000000
000000000000
000000000000
000000000000
000000000000
000000000000
FFFC000FFFC0
FFFC000FFFC0
FFFC000FFFC0
FFFC000FFFC0
FFFC000FFFC0
FFFC000FFFC0
FFFC000FFFC0
FFFC000FFFC0
FFFC000FFFC0
FFFC000FFFC0
FFFC000FFFC0
FFFC000FFFC0
FFFC000FFFC0
FFFC000FFFC0
FFFC000FFFC0
FFFC000FFFC0
FFFC000FFFC0
FFFC000FFFC0
FFFC000FFFC0
FFFC000FFFC0
FFFC000FFFC0
FFFC000FFFC0
FFFC000FFFC0
FFFC000FFFC0
FFFC000FFFC0
FFFC000FFFC0
FFFC000FFFC0
FFFC000FFFC0
FFFC000FFFC0
FFFC000FFFC0
FFFC000FFFC0
FFFC000FFFC0
FFFC000FFFC0
FFFC000FFFC0
FFFC000FFFC0
FFFC000FFFC0
FFFC000FFFC0
FFFC000FFFC0
FFFC000FFFC0
FFFC000FFFC0
FFFC000FFFC0
FFFC000FFFC0
FFFC000FFFC0
FFFC000FFFC0
FFFC000FFFC0
FFFC000FFFC0
FFFC000FFFC0
FFFC000FFFC0
FFFC000FFFC0
FFFC000FFFC0
FFFC000FFFC0
FFFC000FFFC0
FFFC000FFFC0
FFFC000FFFC0
FFFC000FFFC0
FFFC000FFFC0
FFFC000FFFC0
FFFC000FFFC0
FFFC000FFFC0
FFFC000FFFC0
FFFC000FFFC0
FFFC000FFFC0
FFFC000FFFC0
FFFC000FFFC0
FFFC000FFFC0
FFFC000FFFC0
FFFC000FFFC0
FFFC000FFFC0
FFFC000FFFC0
FFFC000FFFC0
FFFC000FFFC0
FFFC000FFFC0
FFFC000FFFC0
FFFC000FFF80
FFFE001FFF80
FFFE001FFF80
7FFF003FFF80
7FFFC0FFFF80
7FFFFFFFFF00
3FFFFFFFFF00
3FFFFFFFFE00
3FFFFFFFFE00
1FFFFFFFFC00
0FFFFFFFFC00
07FFFFFFF800
07FFFFFFF000
03FFFFFFE000
00FFFFFFC000
007FFFFF0000
000FFFFC0000
0001FFC00000
ENDCHAR
STARTCHAR Uacute
ENCODING 218
SWIDTH 402 0
DWIDTH 51 0
BBX 42 112 5 -1
BITMAP
000003FFF800
000007FFF000
000007FFE000
00000FFFC000
00001FFF8000
00001FFF0000
00003FFE0000
00003FFE0000
00007FFC0000
0000FFF80000
0000FFF00000
0001FFE00000
0001FFC00000
0003FF800000
0007FF000000
000000000000
000000000000
000000000000
000000000000
000000000000
000000000000
FFFC000FFFC0
FFFC000FFFC0
FFFC000FFFC0
FFFC000FFFC0
FFFC000FFFC0
FFFC000FFFC0
FFFC000FFFC0
FFFC000FFFC0
FFFC000FFFC0
FFFC000FFFC0
FFFC000FFFC0
FFFC000FFFC0
FFFC000FFFC0
FFFC000FFFC0
FFFC000FFFC0
FFFC000FFFC0
FFFC000FFFC0
FFFC000FFFC0
FFFC000FFFC0
FFFC000FFFC0
FFFC000FFFC0
FFFC000FFFC0
FFFC000FFFC0
FFFC000FFFC0
FFFC000FFFC0
FFFC000FFFC0
FFFC000FFFC0
FFFC000FFFC0
FFFC000FFFC0
FFFC000FFFC0
FFFC000FFFC0
FFFC000FFFC0
FFFC000FFFC0
FFFC000FFFC0
FFFC000FFFC0
FFFC000FFFC0
FFFC000FFFC0
FFFC000FFFC0
FFFC000FFFC0
FFFC000FFFC0
FFFC000FFFC0
FFFC000FFFC0
FFFC000FFFC0
FFFC000FFFC0
FFFC000FFFC0
FFFC000FFFC0
FFFC000FFFC0
FFFC000FFFC0
FFFC000FFFC0
FFFC000FFFC0
FFFC000FFFC0
FFFC000FFFC0
FFFC000FFFC0
FFFC000FFFC0
FFFC000FFFC0
FFFC000FFFC0
FFFC000FFFC0
FFFC000FFFC0
FFFC000FFFC0
FFFC000FFFC0
FFFC000FFFC0
FFFC000FFFC0
FFFC000FFFC0
FFFC000FFFC0
FFFC000FFFC0
FFFC000FFFC0
FFFC000FFFC0
FFFC000FFFC0
FFFC000FFFC0
FFFC000FFFC0
FFFC000FFFC0
FFFC000FFFC0
FFFC000FFFC0
FFFC000FFF80
FFFE001FFF80
FFFE001FFF80
7FFF003FFF80
7FFFC0FFFF80
7FFFFFFFFF00
3FFFFFFFFF00
3FFFFFFFFE00
3FFFFFFFFE00
1FFFFFFFFC00
0FFFFFFFFC00
07FFFFFFF800
07FFFFFFF000
03FFFFFFE000
00FFFFFFC000
007FFFFF0000
000FFFFC0000
0001FFC00000
ENDCHAR
STARTCHAR Ucircumflex
ENCODING 219
SWIDTH 402 0
DWIDTH 51 0
BBX 42 112 5 -1
BITMAP
0003FFF00000
0007FFF00000
000FFFF80000
000FFFFC0000
001FFFFE0000
003FFFFE0000
003FFFFF0000
007FFFFF8000
00FFF7FF8000
01FFE3FFC000
01FFC1FFE000
03FF80FFE000
07FF007FF000
07FF003FF800
0FFE001FFC00
000000000000
000000000000
000000000000
000000000000
000000000000
000000000000
FFFC000FFFC0
FFFC000FFFC0
FFFC000FFFC0
FFFC000FFFC0
FFFC000FFFC0
FFFC000FFFC0
FFFC000FFFC0
FFFC000FFFC0
FFFC000FFFC0
FFFC000FFFC0
FFFC000FFFC0
FFFC000FFFC0
FFFC000FFFC0
FFFC000FFFC0
FFFC000FFFC0
FFFC000FFFC0
FFFC000FFFC0
FFFC000FFFC0
FFFC000FFFC0
FFFC000FFFC0
FFFC000FFFC0
FFFC000FFFC0
FFFC000FFFC0
FFFC000FFFC0
FFFC000FFFC0
FFFC000FFFC0
FFFC000FFFC0
FFFC000FFFC0
FFFC000FFFC0
FFFC000FFFC0
FFFC000FFFC0
FFFC000FFFC0
FFFC000FFFC0
FFFC000FFFC0
FFFC000FFFC0
FFFC000FFFC0
FFFC000FFFC0
FFFC000FFFC0
FFFC000FFFC0
FFFC000FFFC0
FFFC000FFFC0
FFFC000FFFC0
FFFC000FFFC0
FFFC000FFFC0
FFFC000FFFC0
FFFC000FFFC0
FFFC000FFFC0
FFFC000FFFC0
FFFC000FFFC0
FFFC000FFFC0
FFFC000FFFC0
FFFC000FFFC0
FFFC000FFFC0
FFFC000FFFC0
FFFC000FFFC0
FFFC000FFFC0
FFFC000FFFC0
FFFC000FFFC0
FFFC000FFFC0
FFFC000FFFC0
FFFC000FFFC0
FFFC000FFFC0
FFFC000FFFC0
FFFC000FFFC0
FFFC000FFFC0
FFFC000FFFC0
FFFC000FFFC0
FFFC000FFFC0
FFFC000FFFC0
FFFC000FFFC0
FFFC000FFFC0
FFFC000FFFC0
FFFC000FFFC0
FFFC000FFF80
FFFE001FFF80
FFFE001FFF80
7FFF003FFF80
7FFFC0FFFF80
7FFFFFFFFF00
3FFFFFFFFF00
3FFFFFFFFE00
3FFFFFFFFE00
1FFFFFFFFC00
0FFFFFFFFC00
07FFFFFFF800
07FFFFFFF000
03FFFFFFE000
00FFFFFFC000
007FFFFF0000
000FFFFC0000
0001FFC00000
ENDCHAR
STARTCHAR Udieresis
ENCODING 220
SWIDTH 402 0
DWIDTH 51 0
BBX 42 110 5 -1
BITMAP
07FF80FFF800
07FF80FFF800
07FF80FFF800
07FF80FFF800
07FF80FFF800
07FF80FFF800
07FF80FFF800
07FF80FFF800
07FF80FFF800
07FF80FFF800
07FF80FFF800
07FF80FFF800
07FF80FFF800
000000000000
000000000000
000000000000
000000000000
000000000000
000000000000
FFFC000FFFC0
FFFC000FFFC0
FFFC000FFFC0
FFFC000FFFC0
FFFC000FFFC0
FFFC000FFFC0
FFFC000FFFC0
FFFC000FFFC0
FFFC000FFFC0
FFFC000FFFC0
FFFC000FFFC0
FFFC000FFFC0
FFFC000FFFC0
FFFC000FFFC0
FFFC000FFFC0
FFFC000FFFC0
FFFC000FFFC0
FFFC000FFFC0
FFFC000FFFC0
FFFC000FFFC0
FFFC000FFFC0
FFFC000FFFC0
FFFC000FFFC0
FFFC000FFFC0
FFFC000FFFC0
FFFC000FFFC0
FFFC000FFFC0
FFFC000FFFC0
FFFC000FFFC0
FFFC000FFFC0
FFFC000FFFC0
FFFC000FFFC0
FFFC000FFFC0
FFFC000FFFC0
FFFC000FFFC0
FFFC000FFFC0
FFFC000FFFC0
FFFC000FFFC0
FFFC000FFFC0
FFFC000FFFC0
FFFC000FFFC0
FFFC000FFFC0
FFFC000FFFC0
FFFC000FFFC0
FFFC000FFFC0
FFFC000FFFC0
FFFC000FFFC0
FFFC000FFFC0
FFFC000FFFC0
FFFC000FFFC0
FFFC000FFFC0
FFFC000FFFC0
FFFC000FFFC0
FFFC000FFFC0
FFFC000FFFC0
FFFC000FFFC0
FFFC000FFFC0
FFFC000FFFC0
FFFC000FFFC0
FFFC000FFFC0
FFFC000FFFC0
FFFC000FFFC0
FFFC000FFFC0
FFFC000FFFC0
FFFC000FFFC0
FFFC000FFFC0
FFFC000FFFC0
FFFC000FFFC0
FFFC000FFFC0
FFFC000FFFC0
FFFC000FFFC0
FFFC000FFFC0
FFFC000FFFC0
FFFC000FFF80
FFFE001FFF80
FFFE001FFF80
7FFF003FFF80
7FFFC0FFFF80
7FFFFFFFFF00
3FFFFFFFFF00
3FFFFFFFFE00
3FFFFFFFFE00
1FFFFFFFFC00
0FFFFFFFFC00
07FFFFFFF800
07FFFFFFF000
03FFFFFFE000
00FFFFFFC000
007FFFFF0000
000FFFFC0000
0001FFC00000
ENDCHAR
STARTCHAR Yacute
ENCODING 221
SWIDTH 394 0
DWIDTH 50 0
BBX 48 111 1 0
BITMAP
0000007FFF80
0000007FFF00
000000FFFE00
000001FFFC00
000001FFF800
000003FFF000
000003FFE000
000007FFC000
00000FFF8000
00000FFF0000
00001FFE0000
00001FFC0000
00003FF80000
00007FF80000
00007FF00000
000000000000
000000000000
000000000000
000000000000
000000000000
000000000000
FFFE00003FFF
7FFF00003FFF
7FFF00003FFE
7FFF00003FFE
3FFF00007FFE
3FFF80007FFC
3FFF80007FFC
1FFF8000FFFC
1FFFC000FFF8
1FFFC000FFF8
0FFFC000FFF8
0FFFC001FFF8
0FFFE001FFF0
07FFE001FFF0
07FFE003FFF0
07FFF003FFE0
03FFF003FFE0
03FFF003FFE0
03FFF007FFC0
01FFF807FFC0
01FFF807FFC0
01FFF80FFF80
00FFFC0FFF80
00FFFC0FFF80
00FFFC1FFF00
007FFE1FFF00
007FFE1FFF00
007FFE1FFE00
003FFE3FFE00
003FFF3FFE00
003FFF3FFC00
003FFF7FFC00
001FFFFFFC00
001FFFFFF800
001FFFFFF800
000FFFFFF800
000FFFFFF000
000FFFFFF000
0007FFFFF000
0007FFFFE000
0007FFFFE000
0003FFFFE000
0003FFFFC000
0003FFFFC000
0001FFFFC000
0001FFFF8000
0001FFFF8000
0000FFFF8000
0000FFFF0000
0000FFFF0000
00007FFF0000
00007FFE0000
00007FFE0000
00007FFE0000
00007FFE0000
00007FFE0000
00007FFE0000
00007FFE0000
00007FFE0000
00007FFE0000
00007FFE0000
00007FFE0000
00007FFE0000
00007FFE0000
00007FFE0000
00007FFE0000
00007FFE0000
00007FFE0000
00007FFE0000
00007FFE0000
00007FFE0000
00007FFE0000
00007FFE0000
00007FFE0000
00007FFE0000
00007FFE0000
00007FFE0000
00007FFE0000
00007FFE0000
00007FFE0000
00007FFE0000
00007FFE0000
00007FFE0000
00007FFE0000
00007FFE0000
00007FFE0000
00007FFE0000
00007FFE0000
00007FFE0000
00007FFE0000
ENDCHAR
STARTCHAR Thorn
ENCODING 222
SWIDTH 386 0
DWIDTH 49 0
BBX 42 90 5 0
BITMAP
FFFC00000000
FFFC00000000
FFFC00000000
FFFC00000000
FFFC00000000
FFFC00000000
FFFC00000000
FFFC00000000
FFFC00000000
FFFC00000000
FFFC00000000
FFFC00000000
FFFC00000000
FFFFFFE00000
FFFFFFFC0000
FFFFFFFF8000
FFFFFFFFC000
FFFFFFFFF000
FFFFFFFFF800
FFFFFFFFF800
FFFFFFFFFC00
FFFFFFFFFE00
FFFFFFFFFE00
FFFFFFFFFF00
FFFFFFFFFF00
FFFFFFFFFF80
FFFC00FFFF80
FFFC003FFF80
FFFC001FFF80
FFFC001FFFC0
FFFC001FFFC0
FFFC000FFFC0
FFFC000FFFC0
FFFC000FFFC0
FFFC000FFFC0
FFFC000FFFC0
FFFC000FFFC0
FFFC000FFFC0
FFFC000FFFC0
FFFC000FFFC0
FFFC000FFFC0
FFFC000FFFC0
FFFC000FFFC0
FFFC000FFFC0
FFFC000FFFC0
FFFC000FFFC0
FFFC000FFFC0
FFFC000FFFC0
FFFC001FFFC0
FFFC001FFFC0
FFFC001FFF80
FFFC003FFF80
FFFC00FFFF80
FFFFFFFFFF80
FFFFFFFFFF00
FFFFFFFFFF00
FFFFFFFFFE00
FFFFFFFFFE00
FFFFFFFFFC00
FFFFFFFFFC00
FFFFFFFFF800
FFFFFFFFF000
FFFFFFFFC000
FFFFFFFF8000
FFFFFFFE0000
FFFFFFE00000
FFFC00000000
FFFC00000000
FFFC00000000
FFFC00000000
FFFC00000000
FFFC00000000
FFFC00000000
FFFC00000000
FFFC00000000
FFFC00000000
FFFC00000000
FFFC00000000
FFFC00000000
FFFC00000000
FFFC00000000
FFFC00000000
FFFC00000000
FFFC00000000
FFFC00000000
FFFC00000000
FFFC00000000
FFFC00000000
FFFC00000000
FFFC00000000
ENDCHAR
STARTCHAR germandbls
ENCODING 223
SWIDTH 407 0
DWIDTH 52 0
BBX 44 90 5 0
BITMAP
FFFFFFFFFFE0
FFFFFFFFFFE0
FFFFFFFFFFE0
FFFFFFFFFFE0
FFFFFFFFFFE0
FFFFFFFFFFE0
FFFFFFFFFFE0
FFFFFFFFFFE0
FFFFFFFFFFE0
FFFFFFFFFFE0
FFFFFFFFFFE0
FFFFFFFFFFE0
FFFFFFFFFFE0
FFFC0007FFE0
FFFC000FFFC0
FFFC000FFFC0
FFFC000FFF80
FFFC001FFF80
FFFC001FFF80
FFFC001FFF00
FFFC003FFF00
FFFC003FFE00
FFFC007FFE00
FFFC007FFE00
FFFC007FFC00
FFFC00FFFC00
FFFC00FFF800
FFFC01FFF800
FFFC01FFF800
FFFC01FFF000
FFFC03FFF000
FFFC03FFE000
FFFC07FFE000
FFFC07FFE000
FFFC07FFC000
FFFC0FFFC000
FFFC0FFF8000
FFFC0FFFE000
FFFC0FFFF800
FFFC0FFFFC00
FFFC0FFFFE00
FFFC0FFFFF00
FFFC0FFFFF80
FFFC0FFFFF80
FFFC0FFFFFC0
FFFC0FFFFFC0
FFFC0FFFFFE0
FFFC0FFFFFE0
FFFC007FFFE0
FFFC000FFFE0
FFFC0007FFF0
FFFC0007FFF0
FFFC0003FFF0
FFFC0003FFF0
FFFC0003FFF0
FFFC0003FFF0
FFFC0003FFF0
FFFC0003FFF0
FFFC0003FFF0
FFFC0003FFF0
FFFC0003FFF0
FFFC0003FFF0
FFFC0003FFF0
FFFC0003FFF0
FFFC0003FFF0
FFFC0003FFF0
FFFC0003FFF0
FFFC0003FFF0
FFFC0003FFF0
FFFC0003FFF0
FFFC0003FFF0
FFFC0003FFF0
FFFC0003FFF0
FFFC0007FFF0
FFFC0007FFF0
FFFC000FFFE0
FFFC001FFFE0
FFFC0FFFFFE0
FFFC0FFFFFE0
FFFC0FFFFFC0
FFFC0FFFFFC0
FFFC0FFFFF80
FFFC0FFFFF00
FFFC0FFFFF00
FFFC0FFFFE00
FFFC0FFFFC00
FFFC0FFFF800
FFFC0FFFE000
FFFC0FFF8000
FFFC0FF80000
ENDCHAR
STARTCHAR agrave
ENCODING 224
SWIDTH 401 0
DWIDTH 51 0
BBX 48 111 2 0
BITMAP
01FFFE000000
00FFFE000000
007FFF000000
003FFF800000
001FFF800000
000FFFC00000
0007FFC00000
0003FFE00000
0001FFF00000
0000FFF00000
00007FF80000
00003FF80000
00001FFC0000
00001FFE0000
00000FFE0000
000000000000
000000000000
000000000000
000000000000
000000000000
000000000000
0003FFFF8000
0003FFFF8000
0003FFFFC000
0003FFFFC000
0007FFFFC000
0007FFFFC000
0007FFFFC000
0007FFFFC000
0007FFFFE000
0007FFFFE000
000FFFFFE000
000FFFFFE000
000FFFFFE000
000FFFFFE000
000FFFFFF000
000FFFFFF000
001FFFFFF000
001FFFFFF000
001FFEFFF000
001FFCFFF000
001FFCFFF800
001FFCFFF800
003FFCFFF800
003FFCFFF800
003FFCFFF800
003FFC7FF800
003FF87FF800
003FF87FFC00
007FF87FFC00
007FF87FFC00
007FF87FFC00
007FF87FFC00
007FF83FFC00
007FF83FFE00
007FF03FFE00
00FFF03FFE00
00FFF03FFE00
00FFF03FFE00
00FFF03FFE00
00FFF01FFF00
00FFF01FFF00
01FFE01FFF00
01FFE01FFF00
01FFE01FFF00
01FFE01FFF00
01FFE01FFF80
01FFE00FFF80
03FFE00FFF80
03FFC00FFF80
03FFC00FFF80
03FFC00FFF80
03FFC00FFFC0
03FFC00FFFC0
07FFC007FFC0
07FFC007FFC0
07FF8007FFC0
07FF8007FFC0
07FF8007FFE0
07FF8007FFE0
0FFF8007FFE0
0FFFFFFFFFE0
0FFFFFFFFFE0
0FFFFFFFFFE0
0FFFFFFFFFE0
0FFFFFFFFFF0
1FFFFFFFFFF0
1FFFFFFFFFF0
1FFFFFFFFFF0
1FFFFFFFFFF0
1FFFFFFFFFF0
1FFFFFFFFFF8
1FFFFFFFFFF8
3FFE0001FFF8
3FFE0001FFF8
3FFE0000FFF8
3FFE0000FFF8
3FFE0000FFFC
3FFC0000FFFC
7FFC0000FFFC
7FFC0000FFFC
7FFC0000FFFC
7FFC00007FFC
7FFC00007FFE
7FFC00007FFE
FFF800007FFE
FFF800007FFE
FFF800007FFE
FFF800007FFE
FFF800007FFF
FFF800003FFF
ENDCHAR
STARTCHAR aacute
ENCODING 225
SWIDTH 401 0
DWIDTH 51 0
BBX 48 111 2 0
BITMAP
0000007FFF00
000000FFFE00
000000FFFC00
000001FFF800
000003FFF000
000003FFE000
000007FFC000
000007FFC000
00000FFF8000
00001FFF0000
00001FFE0000
00003FFC0000
00003FF80000
00007FF00000
0000FFE00000
000000000000
000000000000
000000000000
000000000000
000000000000
000000000000
0003FFFF8000
0003FFFF8000
0003FFFFC000
0003FFFFC000
0007FFFFC000
0007FFFFC000
0007FFFFC000
0007FFFFC000
0007FFFFE000
0007FFFFE000
000FFFFFE000
000FFFFFE000
000FFFFFE000
000FFFFFE000
000FFFFFF000
000FFFFFF000
001FFFFFF000
001FFFFFF000
001FFEFFF000
001FFCFFF000
001FFCFFF800
001FFCFFF800
003FFCFFF800
003FFCFFF800
003FFCFFF800
003FFC7FF800
003FF87FF800
003FF87FFC00
007FF87FFC00
007FF87FFC00
007FF87FFC00
007FF87FFC00
007FF83FFC00
007FF83FFE00
007FF03FFE00
00FFF03FFE00
00FFF03FFE00
00FFF03FFE00
00FFF03FFE00
00FFF01FFF00
00FFF01FFF00
01FFE01FFF00
01FFE01FFF00
01FFE01FFF00
01FFE01FFF00
01FFE01FFF80
01FFE00FFF80
03FFE00FFF80
03FFC00FFF80
03FFC00FFF80
03FFC00FFF80
03FFC00FFFC0
03FFC00FFFC0
07FFC007FFC0
07FFC007FFC0
07FF8007FFC0
07FF8007FFC0
07FF8007FFE0
07FF8007FFE0
0FFF8007FFE0
0FFFFFFFFFE0
0FFFFFFFFFE0
0FFFFFFFFFE0
0FFFFFFFFFE0
0FFFFFFFFFF0
1FFFFFFFFFF0
1FFFFFFFFFF0
1FFFFFFFFFF0
1FFFFFFFFFF0
1FFFFFFFFFF0
1FFFFFFFFFF8
1FFFFFFFFFF8
3FFE0001FFF8
3FFE0001FFF8
3FFE0000FFF8
3FFE0000FFF8
3FFE0000FFFC
3FFC0000FFFC
7FFC0000FFFC
7FFC0000FFFC
7FFC0000FFFC
7FFC00007FFC
7FFC00007FFE
7FFC00007FFE
FFF800007FFE
FFF800007FFE
FFF800007FFE
FFF800007FFE
FFF800007FFF
FFF800003FFF
ENDCHAR
STARTCHAR acircumflex
ENCODING 226
SWIDTH 401 0
DWIDTH 51 0
BBX 48 111 2 0
BITMAP
00007FFE0000
0000FFFE0000
0001FFFF0000
0001FFFF8000
0003FFFFC000
0007FFFFC000
0007FFFFE000
000FFFFFF000
001FFEFFF000
003FFC7FF800
003FF83FFC00
007FF01FFC00
00FFE00FFE00
00FFE007FF00
01FFC003FF80
000000000000
000000000000
000000000000
000000000000
000000000000
000000000000
0003FFFF8000
0003FFFF8000
0003FFFFC000
0003FFFFC000
0007FFFFC000
0007FFFFC000
0007FFFFC000
0007FFFFC000
0007FFFFE000
0007FFFFE000
000FFFFFE000
000FFFFFE000
000FFFFFE000
000FFFFFE000
000FFFFFF000
000FFFFFF000
001FFFFFF000
001FFFFFF000
001FFEFFF000
001FFCFFF000
001FFCFFF800
001FFCFFF800
003FFCFFF800
003FFCFFF800
003FFCFFF800
003FFC7FF800
003FF87FF800
003FF87FFC00
007FF87FFC00
007FF87FFC00
007FF87FFC00
007FF87FFC00
007FF83FFC00
007FF83FFE00
007FF03FFE00
00FFF03FFE00
00FFF03FFE00
00FFF03FFE00
00FFF03FFE00
00FFF01FFF00
00FFF01FFF00
01FFE01FFF00
01FFE01FFF00
01FFE01FFF00
01FFE01FFF00
01FFE01FFF80
01FFE00FFF80
03FFE00FFF80
03FFC00FFF80
03FFC00FFF80
03FFC00FFF80
03FFC00FFFC0
03FFC00FFFC0
07FFC007FFC0
07FFC007FFC0
07FF8007FFC0
07FF8007FFC0
07FF8007FFE0
07FF8007FFE0
0FFF8007FFE0
0FFFFFFFFFE0
0FFFFFFFFFE0
0FFFFFFFFFE0
0FFFFFFFFFE0
0FFFFFFFFFF0
1FFFFFFFFFF0
1FFFFFFFFFF0
1FFFFFFFFFF0
1FFFFFFFFFF0
1FFFFFFFFFF0
1FFFFFFFFFF8
1FFFFFFFFFF8
3FFE0001FFF8
3FFE0001FFF8
3FFE0000FFF8
3FFE0000FFF8
3FFE0000FFFC
3FFC0000FFFC
7FFC0000FFFC
7FFC0000FFFC
7FFC0000FFFC
7FFC00007FFC
7FFC00007FFE
7FFC00007FFE
FFF800007FFE
FFF800007FFE
FFF800007FFE
FFF800007FFE
FFF800007FFF
FFF800003FFF
ENDCHAR
STARTCHAR atilde
ENCODING 227
SWIDTH 401 0
DWIDTH 51 0
BBX 48 111 2 0
BITMAP
000000002000
0001F8003800
0007FF007E00
001FFFC07F00
003FFFF1FFC0
007FFFFFFF80
007FFFFFFF00
00FFFFFFFF00
00FFFFFFFE00
01FFFFFFFE00
01FFFFFFFC00
03FF0FFFF800
01FE03FFF000
007C00FFE000
0038003F8000
000800000000
000000000000
000000000000
000000000000
000000000000
000000000000
0003FFFF8000
0003FFFF8000
0003FFFFC000
0003FFFFC000
0007FFFFC000
0007FFFFC000
0007FFFFC000
0007FFFFC000
0007FFFFE000
0007FFFFE000
000FFFFFE000
000FFFFFE000
000FFFFFE000
000FFFFFE000
000FFFFFF000
000FFFFFF000
001FFFFFF000
001FFFFFF000
001FFEFFF000
001FFCFFF000
001FFCFFF800
001FFCFFF800
003FFCFFF800
003FFCFFF800
003FFCFFF800
003FFC7FF800
003FF87FF800
003FF87FFC00
007FF87FFC00
007FF87FFC00
007FF87FFC00
007FF87FFC00
007FF83FFC00
007FF83FFE00
007FF03FFE00
00FFF03FFE00
00FFF03FFE00
00FFF03FFE00
00FFF03FFE00
00FFF01FFF00
00FFF01FFF00
01FFE01FFF00
01FFE01FFF00
01FFE01FFF00
01FFE01FFF00
01FFE01FFF80
01FFE00FFF80
03FFE00FFF80
03FFC00FFF80
03FFC00FFF80
03FFC00FFF80
03FFC00FFFC0
03FFC00FFFC0
07FFC007FFC0
07FFC007FFC0
07FF8007FFC0
07FF8007FFC0
07FF8007FFE0
07FF8007FFE0
0FFF8007FFE0
0FFFFFFFFFE0
0FFFFFFFFFE0
0FFFFFFFFFE0
0FFFFFFFFFE0
0FFFFFFFFFF0
1FFFFFFFFFF0
1FFFFFFFFFF0
1FFFFFFFFFF0
1FFFFFFFFFF0
1FFFFFFFFFF0
1FFFFFFFFFF8
1FFFFFFFFFF8
3FFE0001FFF8
3FFE0001FFF8
3FFE0000FFF8
3FFE0000FFF8
3FFE0000FFFC
3FFC0000FFFC
7FFC0000FFFC
7FFC0000FFFC
7FFC0000FFFC
7FFC00007FFC
7FFC00007FFE
7FFC00007FFE
FFF800007FFE
FFF800007FFE
FFF800007FFE
FFF800007FFE
FFF800007FFF
FFF800003FFF
ENDCHAR
STARTCHAR adieresis
ENCODING 228
SWIDTH 401 0
DWIDTH 51 0
BBX 48 109 2 0
BITMAP
00FFF01FFF00
00FFF01FFF00
00FFF01FFF00
00FFF01FFF00
00FFF01FFF00
00FFF01FFF00
00FFF01FFF00
00FFF01FFF00
00FFF01FFF00
00FFF01FFF00
00FFF01FFF00
00FFF01FFF00
00FFF01FFF00
000000000000
000000000000
000000000000
000000000000
000000000000
000000000000
0003FFFF8000
0003FFFF8000
0003FFFFC000
0003FFFFC000
0007FFFFC000
0007FFFFC000
0007FFFFC000
0007FFFFC000
0007FFFFE000
0007FFFFE000
000FFFFFE000
000FFFFFE000
000FFFFFE000
000FFFFFE000
000FFFFFF000
000FFFFFF000
001FFFFFF000
001FFFFFF000
001FFEFFF000
001FFCFFF000
001FFCFFF800
001FFCFFF800
003FFCFFF800
003FFCFFF800
003FFCFFF800
003FFC7FF800
003FF87FF800
003FF87FFC00
007FF87FFC00
007FF87FFC00
007FF87FFC00
007FF87FFC00
007FF83FFC00
007FF83FFE00
007FF03FFE00
00FFF03FFE00
00FFF03FFE00
00FFF03FFE00
00FFF03FFE00
00FFF01FFF00
00FFF01FFF00
01FFE01FFF00
01FFE01FFF00
01FFE01FFF00
01FFE01FFF00
01FFE01FFF80
01FFE00FFF80
03FFE00FFF80
03FFC00FFF80
03FFC00FFF80
03FFC00FFF80
03FFC00FFFC0
03FFC00FFFC0
07FFC007FFC0
07FFC007FFC0
07FF8007FFC0
07FF8007FFC0
07FF8007FFE0
07FF8007FFE0
0FFF8007FFE0
0FFFFFFFFFE0
0FFFFFFFFFE0
0FFFFFFFFFE0
0FFFFFFFFFE0
0FFFFFFFFFF0
1FFFFFFFFFF0
1FFFFFFFFFF0
1FFFFFFFFFF0
1FFFFFFFFFF0
1FFFFFFFFFF0
1FFFFFFFFFF8
1FFFFFFFFFF8
3FFE0001FFF8
3FFE0001FFF8
3FFE0000FFF8
3FFE0000FFF8
3FFE0000FFFC
3FFC0000FFFC
7FFC0000FFFC
7FFC0000FFFC
7FFC0000FFFC
7FFC00007FFC
7FFC00007FFE
7FFC00007FFE
FFF800007FFE
FFF800007FFE
FFF800007FFE
FFF800007FFE
FFF800007FFF
FFF800003FFF
ENDCHAR
STARTCHAR aring
ENCODING 229
SWIDTH 401 0
DWIDTH 51 0
BBX 48 117 2 0
BITMAP
00000FE00000
00003FFC0000
00007FFE0000
0001FFFF0000
0001FFFF8000
0003FFFFC000
0007FFFFC000
0007FC3FC000
0007F81FE000
000FF01FE000
000FF00FE000
000FF00FE000
000FF00FE000
000FF01FE000
0007F81FE000
0007FC3FC000
0007FFFFC000
0003FFFFC000
0001FFFF8000
0001FFFF0000
0000FFFE0000
00003FF80000
00000FE00000
000000000000
000000000000
000000000000
000000000000
0003FFFF8000
0003FFFF8000
0003FFFFC000
0003FFFFC000
0007FFFFC000
0007FFFFC000
0007FFFFC000
0007FFFFC000
0007FFFFE000
0007FFFFE000
000FFFFFE000
000FFFFFE000
000FFFFFE000
000FFFFFE000
000FFFFFF000
000FFFFFF000
001FFFFFF000
001FFFFFF000
001FFEFFF000
001FFCFFF000
001FFCFFF800
001FFCFFF800
003FFCFFF800
003FFCFFF800
003FFCFFF800
003FFC7FF800
003FF87FF800
003FF87FFC00
007FF87FFC00
007FF87FFC00
007FF87FFC00
007FF87FFC00
007FF83FFC00
007FF83FFE00
007FF03FFE00
00FFF03FFE00
00FFF03FFE00
00FFF03FFE00
00FFF03FFE00
00FFF01FFF00
00FFF01FFF00
01FFE01FFF00
01FFE01FFF00
01FFE01FFF00
01FFE01FFF00
01FFE01FFF80
01FFE00FFF80
03FFE00FFF80
03FFC00FFF80
03FFC00FFF80
03FFC00FFF80
03FFC00FFFC0
03FFC00FFFC0
07FFC007FFC0
07FFC007FFC0
07FF8007FFC0
07FF8007FFC0
07FF8007FFE0
07FF8007FFE0
0FFF8007FFE0
0FFFFFFFFFE0
0FFFFFFFFFE0
0FFFFFFFFFE0
0FFFFFFFFFE0
0FFFFFFFFFF0
1FFFFFFFFFF0
1FFFFFFFFFF0
1FFFFFFFFFF0
1FFFFFFFFFF0
1FFFFFFFFFF0
1FFFFFFFFFF8
1FFFFFFFFFF8
3FFE0001FFF8
3FFE0001FFF8
3FFE0000FFF8
3FFE0000FFF8
3FFE0000FFFC
3FFC0000FFFC
7FFC0000FFFC
7FFC0000FFFC
7FFC0000FFFC
7FFC00007FFC
7FFC00007FFE
7FFC00007FFE
FFF800007FFE
FFF800007FFE
FFF800007FFE
FFF800007FFE
FFF800007FFF
FFF800003FFF
ENDCHAR
STARTCHAR ae
ENCODING 230
SWIDTH 580 0
DWIDTH 74 0
BBX 70 90 1 0
BITMAP
000000FFFFFFFFFFFC
000000FFFFFFFFFFFC
000000FFFFFFFFFFFC
000001FFFFFFFFFFFC
000001FFFFFFFFFFFC
000001FFFFFFFFFFFC
000003FFFFFFFFFFFC
000003FFFFFFFFFFFC
000003FFFFFFFFFFFC
000003FFFFFFFFFFFC
000007FFFFFFFFFFFC
000007FFFFFFFFFFFC
000007FFFFFFFFFFFC
000007FFFFFC000000
00000FFFFFFC000000
00000FFFFFFC000000
00000FFFFFFC000000
00000FFFFFFC000000
00001FFFFFFC000000
00001FFEFFFC000000
00001FFEFFFC000000
00003FFEFFFC000000
00003FFEFFFC000000
00003FFCFFFC000000
00003FFCFFFC000000
00007FFCFFFC000000
00007FFCFFFC000000
00007FF8FFFC000000
00007FF8FFFC000000
0000FFF8FFFC000000
0000FFF8FFFC000000
0000FFF0FFFC000000
0000FFF0FFFC000000
0001FFF0FFFC000000
0001FFF0FFFC000000
0001FFE0FFFC000000
0001FFE0FFFC000000
0003FFE0FFFFFFFF80
0003FFE0FFFFFFFF80
0003FFC0FFFFFFFF80
0007FFC0FFFFFFFF80
0007FFC0FFFFFFFF80
0007FFC0FFFFFFFF80
0007FF80FFFFFFFF80
000FFF80FFFFFFFF80
000FFF80FFFFFFFF80
000FFF80FFFFFFFF80
000FFF00FFFFFFFF80
001FFF00FFFFFFFF80
001FFF00FFFFFFFF80
001FFF00FFFC000000
001FFE00FFFC000000
003FFE00FFFC000000
003FFE00FFFC000000
003FFE00FFFC000000
007FFC00FFFC000000
007FFC00FFFC000000
007FFC00FFFC000000
007FFC00FFFC000000
00FFF800FFFC000000
00FFFFFFFFFC000000
00FFFFFFFFFC000000
00FFFFFFFFFC000000
01FFFFFFFFFC000000
01FFFFFFFFFC000000
01FFFFFFFFFC000000
01FFFFFFFFFC000000
03FFFFFFFFFC000000
03FFFFFFFFFC000000
03FFFFFFFFFC000000
07FFFFFFFFFC000000
07FFFFFFFFFC000000
07FFC000FFFC000000
07FFC000FFFC000000
0FFFC000FFFC000000
0FFF8000FFFC000000
0FFF8000FFFC000000
0FFF8000FFFFFFFFFC
1FFF8000FFFFFFFFFC
1FFF0000FFFFFFFFFC
1FFF0000FFFFFFFFFC
1FFF0000FFFFFFFFFC
3FFF0000FFFFFFFFFC
3FFE0000FFFFFFFFFC
3FFE0000FFFFFFFFFC
7FFE0000FFFFFFFFFC
7FFE0000FFFFFFFFFC
7FFC0000FFFFFFFFFC
7FFC0000FFFFFFFFFC
FFFC0000FFFFFFFFFC
ENDCHAR
STARTCHAR ccedilla
ENCODING 231
SWIDTH 383 0
DWIDTH 49 0
BBX 42 110 4 -19
BITMAP
0000FFE00000
000FFFFC0000
003FFFFF0000
00FFFFFFC000
01FFFFFFE000
03FFFFFFF000
07FFFFFFF800
0FFFFFFFFC00
0FFFFFFFFE00
1FFFFFFFFE00
3FFFFFFFFF00
3FFFFFFFFF00
3FFFFFFFFF00
7FFFC07FFF80
7FFF803FFF80
7FFF001FFF80
7FFE000FFF80
7FFE000FFFC0
FFFE000FFFC0
FFFE000FFFC0
FFFC000FFFC0
FFFC0007FFC0
FFFC0007FFC0
FFFC0007FFC0
FFFC0007FFC0
FFFC0007FFC0
FFFC0007FFC0
FFFC0007FFC0
FFFC0007FFC0
FFFC0007FFC0
FFFC0007FFC0
FFFC00000000
FFFC00000000
FFFC00000000
FFFC00000000
FFFC00000000
FFFC00000000
FFFC00000000
FFFC00000000
FFFC00000000
FFFC00000000
FFFC00000000
FFFC00000000
FFFC00000000
FFFC00000000
FFFC00000000
FFFC00000000
FFFC00000000
FFFC00000000
FFFC00000000
FFFC00000000
FFFC00000000
FFFC00000000
FFFC00000000
FFFC00000000
FFFC00000000
FFFC00000000
FFFC0007FFC0
FFFC0007FFC0
FFFC0007FFC0
FFFC0007FFC0
FFFC0007FFC0
FFFC0007FFC0
FFFC0007FFC0
FFFC0007FFC0
FFFC0007FFC0
FFFC0007FFC0
FFFC0007FFC0
FFFC0007FFC0
FFFC0007FFC0
FFFC0007FFC0
FFFC000FFFC0
FFFE000FFFC0
7FFE000FFFC0
7FFE000FFFC0
7FFE000FFF80
7FFF001FFF80
7FFF803FFF80
7FFFC07FFF80
3FFFFFFFFF00
3FFFFFFFFF00
1FFFFFFFFF00
1FFFFFFFFE00
0FFFFFFFFE00
0FFFFFFFFC00
07FFFFFFF800
03FFFFFFF000
01FFFFFFE000
00FFFFFFC000
003FFFFF0000
000FFFFC0000
0000FFE00000
00003F000000
00003F000000
00003F000000
00003F000000
00003FFC0000
00003FFE0000
000003FF0000
000001FF8000
000001FF8000
00FF80FF8000
00FF81FF8000
00FFC1FF8000
00FFE3FF8000
00FFFFFF8000
007FFFFF0000
003FFFFE0000
001FFFFC0000
0003FFC00000
ENDCHAR
STARTCHAR egrave
ENCODING 232
SWIDTH 363 0
DWIDTH 46 0
BBX 39 111 5 0
BITMAP
1FFFC00000
0FFFE00000
07FFF00000
03FFF00000
01FFF80000
00FFF80000
007FFC0000
003FFE0000
001FFE0000
001FFF0000
000FFF0000
0007FF8000
0003FFC000
0001FFC000
0000FFE000
0000000000
0000000000
0000000000
0000000000
0000000000
0000000000
FFFFFFFFFE
FFFFFFFFFE
FFFFFFFFFE
FFFFFFFFFE
FFFFFFFFFE
FFFFFFFFFE
FFFFFFFFFE
FFFFFFFFFE
FFFFFFFFFE
FFFFFFFFFE
FFFFFFFFFE
FFFFFFFFFE
FFFFFFFFFE
FFFC000000
FFFC000000
FFFC000000
FFFC000000
FFFC000000
FFFC000000
FFFC000000
FFFC000000
FFFC000000
FFFC000000
FFFC000000
FFFC000000
FFFC000000
FFFC000000
FFFC000000
FFFC000000
FFFC000000
FFFC000000
FFFC000000
FFFC000000
FFFC000000
FFFC000000
FFFC000000
FFFC000000
FFFFFFFFC0
FFFFFFFFC0
FFFFFFFFC0
FFFFFFFFC0
FFFFFFFFC0
FFFFFFFFC0
FFFFFFFFC0
FFFFFFFFC0
FFFFFFFFC0
FFFFFFFFC0
FFFFFFFFC0
FFFFFFFFC0
FFFFFFFFC0
FFFC000000
FFFC000000
FFFC000000
FFFC000000
FFFC000000
FFFC000000
FFFC000000
FFFC000000
FFFC000000
FFFC000000
FFFC000000
FFFC000000
FFFC000000
FFFC000000
FFFC000000
FFFC000000
FFFC000000
FFFC000000
FFFC000000
FFFC000000
FFFC000000
FFFC000000
FFFC000000
FFFC000000
FFFC000000
FFFC000000
FFFC000000
FFFFFFFFFE
FFFFFFFFFE
FFFFFFFFFE
FFFFFFFFFE
FFFFFFFFFE
FFFFFFFFFE
FFFFFFFFFE
FFFFFFFFFE
FFFFFFFFFE
FFFFFFFFFE
FFFFFFFFFE
FFFFFFFFFE
FFFFFFFFFE
ENDCHAR
STARTCHAR eacute
ENCODING 233
SWIDTH 363 0
DWIDTH 46 0
BBX 39 111 5 0
BITMAP
00000FFFF0
00000FFFE0
00001FFFC0
00001FFF80
00003FFF00
00007FFE00
00007FFC00
0000FFF800
0000FFF000
0001FFE000
0003FFE000
0003FFC000
0007FF8000
0007FF0000
000FFE0000
0000000000
0000000000
0000000000
0000000000
0000000000
0000000000
FFFFFFFFFE
FFFFFFFFFE
FFFFFFFFFE
FFFFFFFFFE
FFFFFFFFFE
FFFFFFFFFE
FFFFFFFFFE
FFFFFFFFFE
FFFFFFFFFE
FFFFFFFFFE
FFFFFFFFFE
FFFFFFFFFE
FFFFFFFFFE
FFFC000000
FFFC000000
FFFC000000
FFFC000000
FFFC000000
FFFC000000
FFFC000000
FFFC000000
FFFC000000
FFFC000000
FFFC000000
FFFC000000
FFFC000000
FFFC000000
FFFC000000
FFFC000000
FFFC000000
FFFC000000
FFFC000000
FFFC000000
FFFC000000
FFFC000000
FFFC000000
FFFC000000
FFFFFFFFC0
FFFFFFFFC0
FFFFFFFFC0
FFFFFFFFC0
FFFFFFFFC0
FFFFFFFFC0
FFFFFFFFC0
FFFFFFFFC0
FFFFFFFFC0
FFFFFFFFC0
FFFFFFFFC0
FFFFFFFFC0
FFFFFFFFC0
FFFC000000
FFFC000000
FFFC000000
FFFC000000
FFFC000000
FFFC000000
FFFC000000
FFFC000000
FFFC000000
FFFC000000
FFFC000000
FFFC000000
FFFC000000
FFFC000000
FFFC000000
FFFC000000
FFFC000000
FFFC000000
FFFC000000
FFFC000000
FFFC000000
FFFC000000
FFFC000000
FFFC000000
FFFC000000
FFFC000000
FFFC000000
FFFFFFFFFE
FFFFFFFFFE
FFFFFFFFFE
FFFFFFFFFE
FFFFFFFFFE
FFFFFFFFFE
FFFFFFFFFE
FFFFFFFFFE
FFFFFFFFFE
FFFFFFFFFE
FFFFFFFFFE
FFFFFFFFFE
FFFFFFFFFE
ENDCHAR
STARTCHAR ecircumflex
ENCODING 234
SWIDTH 363 0
DWIDTH 46 0
BBX 39 111 5 0
BITMAP
000FFFC000
000FFFE000
001FFFF000
003FFFF800
003FFFF800
007FFFFC00
00FFFFFE00
00FFFFFE00
01FFEFFF00
03FFC7FF80
07FF83FF80
07FF01FFC0
0FFE00FFE0
1FFC007FF0
3FF8003FF8
0000000000
0000000000
0000000000
0000000000
0000000000
0000000000
FFFFFFFFFE
FFFFFFFFFE
FFFFFFFFFE
FFFFFFFFFE
FFFFFFFFFE
FFFFFFFFFE
FFFFFFFFFE
FFFFFFFFFE
FFFFFFFFFE
FFFFFFFFFE
FFFFFFFFFE
FFFFFFFFFE
FFFFFFFFFE
FFFC000000
FFFC000000
FFFC000000
FFFC000000
FFFC000000
FFFC000000
FFFC000000
FFFC000000
FFFC000000
FFFC000000
FFFC000000
FFFC000000
FFFC000000
FFFC000000
FFFC000000
FFFC000000
FFFC000000
FFFC000000
FFFC000000
FFFC000000
FFFC000000
FFFC000000
FFFC000000
FFFC000000
FFFFFFFFC0
FFFFFFFFC0
FFFFFFFFC0
FFFFFFFFC0
FFFFFFFFC0
FFFFFFFFC0
FFFFFFFFC0
FFFFFFFFC0
FFFFFFFFC0
FFFFFFFFC0
FFFFFFFFC0
FFFFFFFFC0
FFFFFFFFC0
FFFC000000
FFFC000000
FFFC000000
FFFC000000
FFFC000000
FFFC000000
FFFC000000
FFFC000000
FFFC000000
FFFC000000
FFFC000000
FFFC000000
FFFC000000
FFFC000000
FFFC000000
FFFC000000
FFFC000000
FFFC000000
FFFC000000
FFFC000000
FFFC000000
FFFC000000
FFFC000000
FFFC000000
FFFC000000
FFFC000000
FFFC000000
FFFFFFFFFE
FFFFFFFFFE
FFFFFFFFFE
FFFFFFFFFE
FFFFFFFFFE
FFFFFFFFFE
FFFFFFFFFE
FFFFFFFFFE
FFFFFFFFFE
FFFFFFFFFE
FFFFFFFFFE
FFFFFFFFFE
FFFFFFFFFE
ENDCHAR
STARTCHAR edieresis
ENCODING 235
SWIDTH 363 0
DWIDTH 46 0
BBX 39 109 5 0
BITMAP
1FFF01FFF0
1FFF01FFF0
1FFF01FFF0
1FFF01FFF0
1FFF01FFF0
1FFF01FFF0
1FFF01FFF0
1FFF01FFF0
1FFF01FFF0
1FFF01FFF0
1FFF01FFF0
1FFF01FFF0
1FFF01FFF0
0000000000
0000000000
0000000000
0000000000
0000000000
0000000000
FFFFFFFFFE
FFFFFFFFFE
FFFFFFFFFE
FFFFFFFFFE
FFFFFFFFFE
FFFFFFFFFE
FFFFFFFFFE
FFFFFFFFFE
FFFFFFFFFE
FFFFFFFFFE
FFFFFFFFFE
FFFFFFFFFE
FFFFFFFFFE
FFFC000000
FFFC000000
FFFC000000
FFFC000000
FFFC000000
FFFC000000
FFFC000000
FFFC000000
FFFC000000
FFFC000000
FFFC000000
FFFC000000
FFFC000000
FFFC000000
FFFC000000
FFFC000000
FFFC000000
FFFC000000
FFFC000000
FFFC000000
FFFC000000
FFFC000000
FFFC000000
FFFC000000
FFFFFFFFC0
FFFFFFFFC0
FFFFFFFFC0
FFFFFFFFC0
FFFFFFFFC0
FFFFFFFFC0
FFFFFFFFC0
FFFFFFFFC0
FFFFFFFFC0
FFFFFFFFC0
FFFFFFFFC0
FFFFFFFFC0
FFFFFFFFC0
FFFC000000
FFFC000000
FFFC000000
FFFC000000
FFFC000000
FFFC000000
FFFC000000
FFFC000000
FFFC000000
FFFC000000
FFFC000000
FFFC000000
FFFC000000
FFFC000000
FFFC000000
FFFC000000
FFFC000000
FFFC000000
FFFC000000
FFFC000000
FFFC000000
FFFC000000
FFFC000000
FFFC000000
FFFC000000
FFFC000000
FFFC000000
FFFFFFFFFE
FFFFFFFFFE
FFFFFFFFFE
FFFFFFFFFE
FFFFFFFFFE
FFFFFFFFFE
FFFFFFFFFE
FFFFFFFFFE
FFFFFFFFFE
FFFFFFFFFE
FFFFFFFFFE
FFFFFFFFFE
FFFFFFFFFE
ENDCHAR
STARTCHAR igrave
ENCODING 236
SWIDTH 192 0
DWIDTH 25 0
BBX 24 111 -4 0
BITMAP
FFFE00
7FFF00
3FFF00
1FFF80
0FFFC0
07FFC0
03FFE0
03FFE0
01FFF0
00FFF8
007FF8
003FFC
001FFC
000FFE
0007FF
000000
000000
000000
000000
000000
000000
007FFE
007FFE
007FFE
007FFE
007FFE
007FFE
007FFE
007FFE
007FFE
007FFE
007FFE
007FFE
007FFE
007FFE
007FFE
007FFE
007FFE
007FFE
007FFE
007FFE
007FFE
007FFE
007FFE
007FFE
007FFE
007FFE
007FFE
007FFE
007FFE
007FFE
007FFE
007FFE
007FFE
007FFE
007FFE
007FFE
007FFE
007FFE
007FFE
007FFE
007FFE
007FFE
007FFE
007FFE
007FFE
007FFE
007FFE
007FFE
007FFE
007FFE
007FFE
007FFE
007FFE
007FFE
007FFE
007FFE
007FFE
007FFE
007FFE
007FFE
007FFE
007FFE
007FFE
007FFE
007FFE
007FFE
007FFE
007FFE
007FFE
007FFE
007FFE
007FFE
007FFE
007FFE
007FFE
007FFE
007FFE
007FFE
007FFE
007FFE
007FFE
007FFE
007FFE
007FFE
007FFE
007FFE
007FFE
007FFE
007FFE
007FFE
ENDCHAR
STARTCHAR iacute
ENCODING 237
SWIDTH 192 0
DWIDTH 25 0
BBX 24 111 5 0
BITMAP
00FFFF
00FFFE
01FFFC
03FFF8
03FFF0
07FFE0
07FFC0
0FFF80
1FFF00
1FFE00
3FFC00
3FF800
7FF800
FFF000
FFE000
000000
000000
000000
000000
000000
000000
FFFC00
FFFC00
FFFC00
FFFC00
FFFC00
FFFC00
FFFC00
FFFC00
FFFC00
FFFC00
FFFC00
FFFC00
FFFC00
FFFC00
FFFC00
FFFC00
FFFC00
FFFC00
FFFC00
FFFC00
FFFC00
FFFC00
FFFC00
FFFC00
FFFC00
FFFC00
FFFC00
FFFC00
FFFC00
FFFC00
FFFC00
FFFC00
FFFC00
FFFC00
FFFC00
FFFC00
FFFC00
FFFC00
FFFC00
FFFC00
FFFC00
FFFC00
FFFC00
FFFC00
FFFC00
FFFC00
FFFC00
FFFC00
FFFC00
FFFC00
FFFC00
FFFC00
FFFC00
FFFC00
FFFC00
FFFC00
FFFC00
FFFC00
FFFC00
FFFC00
FFFC00
FFFC00
FFFC00
FFFC00
FFFC00
FFFC00
FFFC00
FFFC00
FFFC00
FFFC00
FFFC00
FFFC00
FFFC00
FFFC00
FFFC00
FFFC00
FFFC00
FFFC00
FFFC00
FFFC00
FFFC00
FFFC00
FFFC00
FFFC00
FFFC00
FFFC00
FFFC00
FFFC00
FFFC00
FFFC00
ENDCHAR
STARTCHAR icircumflex
ENCODING 238
SWIDTH 192 0
DWIDTH 25 0
BBX 34 111 -5 0
BITMAP
003FFF0000
003FFF8000
007FFFC000
00FFFFC000
01FFFFE000
01FFFFF000
03FFFFF800
07FFFFF800
07FFBFFC00
0FFF1FFE00
1FFE0FFE00
1FFC07FF00
3FF803FF80
7FF003FF80
FFE001FFC0
0000000000
0000000000
0000000000
0000000000
0000000000
0000000000
003FFF0000
003FFF0000
003FFF0000
003FFF0000
003FFF0000
003FFF0000
003FFF0000
003FFF0000
003FFF0000
003FFF0000
003FFF0000
003FFF0000
003FFF0000
003FFF0000
003FFF0000
003FFF0000
003FFF0000
003FFF0000
003FFF0000
003FFF0000
003FFF0000
003FFF0000
003FFF0000
003FFF0000
003FFF0000
003FFF0000
003FFF0000
003FFF0000
003FFF0000
003FFF0000
003FFF0000
003FFF0000
003FFF0000
003FFF0000
003FFF0000
003FFF0000
003FFF0000
003FFF0000
003FFF0000
003FFF0000
003FFF0000
003FFF0000
003FFF0000
003FFF0000
003FFF0000
003FFF0000
003FFF0000
003FFF0000
003FFF0000
003FFF0000
003FFF0000
003FFF0000
003FFF0000
003FFF0000
003FFF0000
003FFF0000
003FFF0000
003FFF0000
003FFF0000
003FFF0000
003FFF0000
003FFF0000
003FFF0000
003FFF0000
003FFF0000
003FFF0000
003FFF0000
003FFF0000
003FFF0000
003FFF0000
003FFF0000
003FFF0000
003FFF0000
003FFF0000
003FFF0000
003FFF0000
003FFF0000
003FFF0000
003FFF0000
003FFF0000
003FFF0000
003FFF0000
003FFF0000
003FFF0000
003FFF0000
003FFF0000
003FFF0000
003FFF0000
003FFF0000
003FFF0000
ENDCHAR
STARTCHAR idieresis
ENCODING 239
SWIDTH 192 0
DWIDTH 25 0
BBX 32 109 -4 0
BITMAP
FFF80FFF
FFF80FFF
FFF80FFF
FFF80FFF
FFF80FFF
FFF80FFF
FFF80FFF
FFF80FFF
FFF80FFF
FFF80FFF
FFF80FFF
FFF80FFF
FFF80FFF
00000000
00000000
00000000
00000000
00000000
00000000
007FFE00
007FFE00
007FFE00
007FFE00
007FFE00
007FFE00
007FFE00
007FFE00
007FFE00
007FFE00
007FFE00
007FFE00
007FFE00
007FFE00
007FFE00
007FFE00
007FFE00
007FFE00
007FFE00
007FFE00
007FFE00
007FFE00
007FFE00
007FFE00
007FFE00
007FFE00
007FFE00
007FFE00
007FFE00
007FFE00
007FFE00
007FFE00
007FFE00
007FFE00
007FFE00
007FFE00
007FFE00
007FFE00
007FFE00
007FFE00
007FFE00
007FFE00
007FFE00
007FFE00
007FFE00
007FFE00
007FFE00
007FFE00
007FFE00
007FFE00
007FFE00
007FFE00
007FFE00
007FFE00
007FFE00
007FFE00
007FFE00
007FFE00
007FFE00
007FFE00
007FFE00
007FFE00
007FFE00
007FFE00
007FFE00
007FFE00
007FFE00
007FFE00
007FFE00
007FFE00
007FFE00
007FFE00
007FFE00
007FFE00
007FFE00
007FFE00
007FFE00
007FFE00
007FFE00
007FFE00
007FFE00
007FFE00
007FFE00
007FFE00
007FFE00
007FFE00
007FFE00
007FFE00
007FFE00
007FFE00
ENDCHAR
STARTCHAR eth
ENCODING 240
SWIDTH 423 0
DWIDTH 54 0
BBX 49 90 1 0
BITMAP
03FFFFFFC00000
03FFFFFFF80000
03FFFFFFFF0000
03FFFFFFFF8000
03FFFFFFFFC000
03FFFFFFFFF000
03FFFFFFFFF000
03FFFFFFFFF800
03FFFFFFFFFC00
03FFFFFFFFFC00
03FFFFFFFFFE00
03FFFFFFFFFE00
03FFFFFFFFFF00
03FFF801FFFF00
03FFF8007FFF00
03FFF8007FFF00
03FFF8003FFF00
03FFF8003FFF80
03FFF8001FFF80
03FFF8001FFF80
03FFF8001FFF80
03FFF8001FFF80
03FFF8001FFF80
03FFF8001FFF80
03FFF8001FFF80
03FFF8001FFF80
03FFF8001FFF80
03FFF8001FFF80
03FFF8001FFF80
03FFF8001FFF80
03FFF8001FFF80
03FFF8001FFF80
03FFF8001FFF80
03FFF8001FFF80
03FFF8001FFF80
03FFF8001FFF80
03FFF8001FFF80
FFFFFFF01FFF80
FFFFFFF01FFF80
FFFFFFF01FFF80
FFFFFFF01FFF80
FFFFFFF01FFF80
FFFFFFF01FFF80
FFFFFFF01FFF80
FFFFFFF01FFF80
FFFFFFF01FFF80
FFFFFFF01FFF80
FFFFFFF01FFF80
FFFFFFF01FFF80
03FFF8001FFF80
03FFF8001FFF80
03FFF8001FFF80
03FFF8001FFF80
03FFF8001FFF80
03FFF8001FFF80
03FFF8001FFF80
03FFF8001FFF80
03FFF8001FFF80
03FFF8001FFF80
03FFF8001FFF80
03FFF8001FFF80
03FFF8001FFF80
03FFF8001FFF80
03FFF8001FFF80
03FFF8001FFF80
03FFF8001FFF80
03FFF8001FFF80
03FFF8001FFF80
03FFF8001FFF80
03FFF8001FFF80
03FFF8001FFF80
03FFF8001FFF80
03FFF8003FFF80
03FFF8003FFF00
03FFF8007FFF00
03FFF8007FFF00
03FFF801FFFF00
03FFFFFFFFFF00
03FFFFFFFFFE00
03FFFFFFFFFE00
03FFFFFFFFFC00
03FFFFFFFFFC00
03FFFFFFFFF800
03FFFFFFFFF000
03FFFFFFFFF000
03FFFFFFFFE000
03FFFFFFFF8000
03FFFFFFFF0000
03FFFFFFF80000
03FFFFFFC00000
ENDCHAR
ENDFONT
